<svg class="main-svg" xmlns="http://www.w3.org/2000/svg" xmlns:xlink="http://www.w3.org/1999/xlink" width="700" height="450" style="" viewBox="0 0 700 450"><rect x="0" y="0" width="700" height="450" style="fill: rgb(255, 255, 255); fill-opacity: 1;"/><defs id="defs-4a0b9a"><g class="clips"><clipPath id="clip4a0b9axyplot" class="plotclip"><rect width="517" height="330"/></clipPath><clipPath class="axesclip" id="clip4a0b9ax"><rect x="60" y="0" width="517" height="450"/></clipPath><clipPath class="axesclip" id="clip4a0b9ay"><rect x="0" y="60" width="700" height="330"/></clipPath><clipPath class="axesclip" id="clip4a0b9axy"><rect x="60" y="60" width="517" height="330"/></clipPath></g><g class="gradients"/></defs><g class="bglayer"/><g class="layer-below"><g class="imagelayer"/><g class="shapelayer"/></g><g class="cartesianlayer"><g class="subplot xy"><g class="layer-subplot"><g class="shapelayer"/><g class="imagelayer"/></g><g class="gridlayer"><g class="x"><path class="xgrid crisp" transform="translate(189.31,0)" d="M0,60v330" style="stroke: rgb(238, 238, 238); stroke-opacity: 1; stroke-width: 1px;"/><path class="xgrid crisp" transform="translate(318.63,0)" d="M0,60v330" style="stroke: rgb(238, 238, 238); stroke-opacity: 1; stroke-width: 1px;"/><path class="xgrid crisp" transform="translate(447.94,0)" d="M0,60v330" style="stroke: rgb(238, 238, 238); stroke-opacity: 1; stroke-width: 1px;"/></g><g class="y"><path class="ygrid crisp" transform="translate(0,334.83)" d="M60,0h517" style="stroke: rgb(238, 238, 238); stroke-opacity: 1; stroke-width: 1px;"/><path class="ygrid crisp" transform="translate(0,296.15999999999997)" d="M60,0h517" style="stroke: rgb(238, 238, 238); stroke-opacity: 1; stroke-width: 1px;"/><path class="ygrid crisp" transform="translate(0,257.48)" d="M60,0h517" style="stroke: rgb(238, 238, 238); stroke-opacity: 1; stroke-width: 1px;"/><path class="ygrid crisp" transform="translate(0,218.81)" d="M60,0h517" style="stroke: rgb(238, 238, 238); stroke-opacity: 1; stroke-width: 1px;"/><path class="ygrid crisp" transform="translate(0,180.13)" d="M60,0h517" style="stroke: rgb(238, 238, 238); stroke-opacity: 1; stroke-width: 1px;"/><path class="ygrid crisp" transform="translate(0,141.45999999999998)" d="M60,0h517" style="stroke: rgb(238, 238, 238); stroke-opacity: 1; stroke-width: 1px;"/><path class="ygrid crisp" transform="translate(0,102.78)" d="M60,0h517" style="stroke: rgb(238, 238, 238); stroke-opacity: 1; stroke-width: 1px;"/><path class="ygrid crisp" transform="translate(0,64.11)" d="M60,0h517" style="stroke: rgb(238, 238, 238); stroke-opacity: 1; stroke-width: 1px;"/></g></g><g class="zerolinelayer"><path class="xzl zl crisp" transform="translate(60,0)" d="M0,60v330" style="stroke: rgb(68, 68, 68); stroke-opacity: 1; stroke-width: 1px;"/><path class="yzl zl crisp" transform="translate(0,373.51)" d="M60,0h517" style="stroke: rgb(68, 68, 68); stroke-opacity: 1; stroke-width: 1px;"/></g><path class="xlines-below"/><path class="ylines-below"/><g class="overlines-below"/><g class="xaxislayer-below"/><g class="yaxislayer-below"/><g class="overaxes-below"/><g class="plot" transform="translate(60, 60)" clip-path="url('#clip4a0b9axyplot')"><g class="scatterlayer mlayer"><g class="trace scatter trace011db5" style="stroke-miterlimit: 2; opacity: 1;"><g class="fills"/><g class="errorbars"/><g class="lines"><path class="js-line" d="M0,163.03L1.03,307.2L1.29,309.24L2.84,313.02L3.1,313.1L4.66,312.86L4.91,312.16L6.21,313.28L6.47,312.74L7.76,313.33L8.02,313.38L10.86,313.31L11.12,313.44L29.23,313.48L29.48,313.49L33.62,313.45L33.88,313.49L517,313.5" style="vector-effect: non-scaling-stroke; fill: none; stroke: rgb(31, 119, 180); stroke-opacity: 1; stroke-width: 2px; opacity: 1;"/></g><g class="points"/><g class="text"/></g><g class="trace scatter trace8308a4" style="stroke-miterlimit: 2; opacity: 1;"><g class="fills"/><g class="errorbars"/><g class="lines"><path class="js-line" d="M0,16.5L1.03,277.44L1.29,280.06L2.07,277.27L2.33,279.63L3.36,282.13L3.62,278.23L3.88,282.01L4.4,280.36L4.66,278.49L4.91,267.54L5.17,279.17L5.43,280.52L5.69,279.69L5.95,275.78L7.24,280.11L7.5,280.24L8.28,275.81L8.53,277.4L8.79,277L9.05,277.86L9.31,275.65L9.83,278.71L10.09,277.89L10.35,275.9L11.38,279.86L11.64,279.68L13.45,279.57L13.71,279.68L14.22,279.53L14.48,278.3L15.52,279.93L15.78,279.32L16.04,278.63L16.55,279.17L16.81,278.98L17.33,279.08L17.59,275.3L17.85,278.92L18.36,277.52L18.62,278.07L18.88,277.7L19.14,277.99L19.4,278.53L20.69,279.17L20.95,279.24L25.35,278.73L25.6,279.07L27.16,278.75L27.41,278.67L28.19,278.97L28.45,278.7L30,278.86L30.26,278.88L30.52,279.16L30.78,278.5L31.04,278.48L32.59,278.65L32.85,277.71L34.14,278.49L34.4,277.71L34.66,277.18L35.17,277.52L35.43,277.69L37.5,277.64L37.76,277.47L38.79,277.4L39.05,277.37L40.09,277.86L40.35,277.73L41.38,277.71L41.64,277.85L43.71,277.93L43.97,277.93L44.74,277.66L45,277.84L50.17,277.69L50.43,277.48L50.95,278.25L51.47,277.85L51.73,278L53.28,277.73L53.54,277.75L56.64,277.88L56.9,277.64L65.17,277.66L65.43,277.89L66.21,277.57L66.47,277.84L72.67,277.74L72.93,277.82L76.3,277.82L76.55,277.91L77.59,277.56L77.85,277.66L78.62,277.64L78.88,277.55L80.43,277.83L80.69,277.5L81.99,277.86L82.24,277.56L84.05,278.1L84.31,277.61L85.61,277.36L85.86,277.38L86.9,277.69L87.16,277.43L91.04,277.79L91.3,277.37L92.85,277.99L93.11,277.76L94.92,277.6L95.18,277.77L95.95,277.44L96.21,277.71L98.02,277.71L98.28,277.84L99.57,277.47L99.83,277.71L100.87,277.79L101.12,277.71L103.45,277.42L103.71,277.61L108.62,277.57L108.88,277.83L109.66,277.67L109.92,277.94L111.47,277.57L111.73,277.5L113.02,277.75L113.28,277.76L114.31,277.46L114.57,277.88L115.61,277.6L115.87,277.77L116.9,277.77L117.16,277.61L118.45,277.69L118.71,277.63L120.26,277.72L120.52,277.59L122.59,277.78L122.85,277.64L125.95,277.8L126.21,277.49L127.5,277.66L127.76,277.81L129.83,277.63L130.09,277.47L131.13,277.6L131.38,277.49L134.75,277.58L135,277.9L139.66,277.71L139.92,277.97L141.73,277.53L141.99,277.72L144.06,277.45L144.32,277.58L145.61,277.51L145.87,277.85L150.26,277.67L150.52,277.73L152.07,277.79L152.33,278L153.37,277.6L153.63,277.64L154.92,277.94L155.18,277.69L157.76,277.86L158.02,277.65L159.32,277.75L159.57,277.74L167.33,277.52L167.59,277.43L168.37,277.83L168.63,277.56L168.88,277.52L170.7,277.85L170.95,277.81L171.99,277.6L172.25,277.66L173.8,277.85L174.06,277.8L175.87,277.58L176.13,277.77L176.9,277.63L177.16,277.81L179.23,277.62L179.49,277.66L185.44,277.73L185.7,277.45L187.25,277.66L187.51,277.45L188.54,277.68L188.8,277.62L194.49,277.71L194.75,278.03L196.04,277.59L196.3,277.6L198.37,277.28L198.63,277.73L200.44,277.76L200.7,277.64L201.99,277.86L202.25,277.69L203.28,277.52L203.54,278.11L205.09,277.43L205.35,277.28L206.64,277.92L206.9,277.68L208.71,277.72L208.97,277.73L209.75,277.6L210.01,277.8L212.08,277.81L212.33,277.87L213.11,277.58L213.37,277.94L214.4,277.71L214.66,277.83L216.47,277.61L216.73,277.66L218.8,277.91L219.06,277.85L220.09,277.71L220.35,277.9L222.16,277.53L222.42,277.88L224.75,277.42L225.01,277.73L226.56,277.6L226.82,277.74L236.9,277.58L237.16,277.9L238.2,277.76L238.46,277.85L239.23,277.48L239.49,277.82L239.75,277.77L241.3,277.61L241.56,277.76L242.85,277.73L243.11,277.71L289.66,277.76L289.92,278.04L292.25,277.66L292.51,277.8L297.42,277.43L297.68,277.78L302.34,277.53L302.6,277.71L303.89,277.5L304.15,277.84L336.48,277.62L336.74,277.2L337.77,277.51L338.03,277.45L338.8,277.68L339.06,277.64L341.91,277.63L342.17,277.44L343.46,277.76L343.72,277.4L345.01,277.6L345.27,277.41L346.56,277.48L346.82,277.31L348.12,277.75L348.37,277.81L349.41,277.64L349.67,277.67L354.32,277.68L354.58,277.74L356.65,277.67L356.91,277.76L358.46,277.76L358.72,277.88L366.22,277.57L366.48,277.96L367.77,277.54L368.03,277.66L369.84,277.7L370.1,277.85L371.65,277.69L371.91,277.81L376.31,277.51L376.56,277.97L377.6,277.66L377.86,277.74L378.63,277.85L378.89,277.75L382.51,277.79L382.77,277.77L384.58,277.56L384.84,277.72L385.87,277.84L386.13,278.01L387.69,277.7L387.94,277.83L389.5,277.44L389.75,277.76L390.79,277.77L391.05,277.56L392.08,277.79L392.34,277.66L400.1,277.63L400.36,277.82L401.39,277.65L401.65,277.58L405.01,277.69L405.27,277.73L406.57,277.77L406.82,277.85L408.12,277.5L408.38,277.71L409.67,277.55L409.93,277.44L411.22,277.49L411.48,277.63L412.77,277.83L413.03,277.61L415.62,277.74L415.88,277.61L417.43,277.79L417.69,277.52L419.76,277.63L420.01,277.55L423.38,277.87L423.63,277.5L425.96,277.86L426.22,277.46L427.77,277.81L428.03,277.33L429.07,277.8L429.32,277.98L430.36,277.84L430.62,277.89L432.17,277.4L432.43,277.75L433.98,277.38L434.24,277.68L435.79,277.55L436.05,277.84L437.08,277.63L437.34,277.79L439.93,277.46L440.19,277.75L442,277.7L442.26,277.57L443.29,278.1L443.55,277.6L443.81,277.55L445.1,277.93L445.36,277.68L448.72,277.67L448.98,278.13L450.53,277.71L450.79,277.83L452.86,277.3L453.12,277.5L455.7,277.6L455.96,277.39L456.74,277.76L457,277.66L458.03,277.82L458.29,277.92L460.62,277.37L460.88,277.54L461.91,277.66L462.17,277.52L463.72,277.84L463.98,277.6L477.17,277.65L477.43,277.41L479.24,277.84L479.5,277.95L480.53,277.73L480.79,277.92L482.86,277.78L483.12,277.43L484.67,277.82L484.93,277.58L486.22,277.85L486.48,277.52L490.62,277.84L490.88,277.94L492.17,277.5L492.43,277.62L494.24,277.49L494.5,277.71L495.53,277.66L495.79,277.76L497.86,277.58L498.12,277.82L517,277.83" style="vector-effect: non-scaling-stroke; fill: none; stroke: rgb(255, 127, 14); stroke-opacity: 1; stroke-width: 2px; opacity: 1;"/></g><g class="points"/><g class="text"/></g><g class="trace scatter tracecd5d21" style="stroke-miterlimit: 2; opacity: 1;"><g class="fills"/><g class="errorbars"/><g class="lines"><path class="js-line" d="M0,306.84L1.29,283.35L1.55,283.22L2.84,282.81L3.1,282.45L3.36,282.46L3.62,283.26L3.88,282.34L4.4,282.71L4.66,282.92L4.91,283.73L5.17,282.77L5.43,282.61L6.72,282.7L6.98,282.5L9.57,282.66L9.83,282.54L11.12,282.5L11.38,282.27L14.48,282.37L14.74,282.25L16.81,282.33L17.07,282.34L20.17,282.27L20.43,282.23L30.52,282.18L30.78,282.23L41.64,282.32L41.9,282.32L61.04,282.32L61.3,282.36L80.43,282.3L80.69,282.33L517,282.29" style="vector-effect: non-scaling-stroke; fill: none; stroke: rgb(44, 160, 44); stroke-opacity: 1; stroke-width: 2px; opacity: 1;"/></g><g class="points"/><g class="text"/></g></g></g><g class="overplot"/><path class="xlines-above crisp" d="M0,0" style="fill: none;"/><path class="ylines-above crisp" d="M0,0" style="fill: none;"/><g class="overlines-above"/><g class="xaxislayer-above"><g class="xtick"><text text-anchor="middle" x="0" y="403" transform="translate(60,0)" style="font-family: 'Open Sans', verdana, arial, sans-serif; font-size: 12px; fill: rgb(68, 68, 68); fill-opacity: 1; white-space: pre;">0</text></g><g class="xtick"><text text-anchor="middle" x="0" y="403" transform="translate(189.31,0)" style="font-family: 'Open Sans', verdana, arial, sans-serif; font-size: 12px; fill: rgb(68, 68, 68); fill-opacity: 1; white-space: pre;">500</text></g><g class="xtick"><text text-anchor="middle" x="0" y="403" transform="translate(318.63,0)" style="font-family: 'Open Sans', verdana, arial, sans-serif; font-size: 12px; fill: rgb(68, 68, 68); fill-opacity: 1; white-space: pre;">1000</text></g><g class="xtick"><text text-anchor="middle" x="0" y="403" transform="translate(447.94,0)" style="font-family: 'Open Sans', verdana, arial, sans-serif; font-size: 12px; fill: rgb(68, 68, 68); fill-opacity: 1; white-space: pre;">1500</text></g></g><g class="yaxislayer-above"><g class="ytick"><text text-anchor="end" x="59" y="4.199999999999999" transform="translate(0,373.51)" style="font-family: 'Open Sans', verdana, arial, sans-serif; font-size: 12px; fill: rgb(68, 68, 68); fill-opacity: 1; white-space: pre;">0</text></g><g class="ytick"><text text-anchor="end" x="59" y="4.199999999999999" transform="translate(0,334.83)" style="font-family: 'Open Sans', verdana, arial, sans-serif; font-size: 12px; fill: rgb(68, 68, 68); fill-opacity: 1; white-space: pre;">1</text></g><g class="ytick"><text text-anchor="end" x="59" y="4.199999999999999" transform="translate(0,296.15999999999997)" style="font-family: 'Open Sans', verdana, arial, sans-serif; font-size: 12px; fill: rgb(68, 68, 68); fill-opacity: 1; white-space: pre;">2</text></g><g class="ytick"><text text-anchor="end" x="59" y="4.199999999999999" transform="translate(0,257.48)" style="font-family: 'Open Sans', verdana, arial, sans-serif; font-size: 12px; fill: rgb(68, 68, 68); fill-opacity: 1; white-space: pre;">3</text></g><g class="ytick"><text text-anchor="end" x="59" y="4.199999999999999" transform="translate(0,218.81)" style="font-family: 'Open Sans', verdana, arial, sans-serif; font-size: 12px; fill: rgb(68, 68, 68); fill-opacity: 1; white-space: pre;">4</text></g><g class="ytick"><text text-anchor="end" x="59" y="4.199999999999999" transform="translate(0,180.13)" style="font-family: 'Open Sans', verdana, arial, sans-serif; font-size: 12px; fill: rgb(68, 68, 68); fill-opacity: 1; white-space: pre;">5</text></g><g class="ytick"><text text-anchor="end" x="59" y="4.199999999999999" transform="translate(0,141.45999999999998)" style="font-family: 'Open Sans', verdana, arial, sans-serif; font-size: 12px; fill: rgb(68, 68, 68); fill-opacity: 1; white-space: pre;">6</text></g><g class="ytick"><text text-anchor="end" x="59" y="4.199999999999999" transform="translate(0,102.78)" style="font-family: 'Open Sans', verdana, arial, sans-serif; font-size: 12px; fill: rgb(68, 68, 68); fill-opacity: 1; white-space: pre;">7</text></g><g class="ytick"><text text-anchor="end" x="59" y="4.199999999999999" transform="translate(0,64.11)" style="font-family: 'Open Sans', verdana, arial, sans-serif; font-size: 12px; fill: rgb(68, 68, 68); fill-opacity: 1; white-space: pre;">8</text></g></g><g class="overaxes-above"/></g></g><g class="polarlayer"/><g class="ternarylayer"/><g class="geolayer"/><g class="funnelarealayer"/><g class="pielayer"/><g class="treemaplayer"/><g class="sunburstlayer"/><g class="glimages"/><defs id="topdefs-4a0b9a"><g class="clips"/><clipPath id="legend4a0b9a"><rect width="101" height="67" x="0" y="0"/></clipPath></defs><g class="layer-above"><g class="imagelayer"/><g class="shapelayer"/></g><g class="infolayer"><g class="legend" pointer-events="all" transform="translate(587.34, 60)"><rect class="bg" shape-rendering="crispEdges" width="101" height="67" x="0" y="0" style="stroke: rgb(68, 68, 68); stroke-opacity: 1; fill: rgb(255, 255, 255); fill-opacity: 1; stroke-width: 0px;"/><g class="scrollbox" transform="translate(0, 0)" clip-path="url('#legend4a0b9a')"><g class="groups"><g class="traces" transform="translate(0, 14.5)" style="opacity: 1;"><text class="legendtext" text-anchor="start" x="40" y="4.680000000000001" style="font-family: 'Open Sans', verdana, arial, sans-serif; font-size: 12px; fill: rgb(68, 68, 68); fill-opacity: 1; white-space: pre;">train loss</text><g class="layers" style="opacity: 1;"><g class="legendfill"/><g class="legendlines"><path class="js-line" d="M5,0h30" style="fill: none; stroke: rgb(31, 119, 180); stroke-opacity: 1; stroke-width: 2px;"/></g><g class="legendsymbols"><g class="legendpoints"/></g></g><rect class="legendtoggle" pointer-events="all" x="0" y="-9.5" width="95.78125" height="19" style="cursor: pointer; fill: rgb(0, 0, 0); fill-opacity: 0;"/></g><g class="traces" transform="translate(0, 33.5)" style="opacity: 1;"><text class="legendtext" text-anchor="start" x="40" y="4.680000000000001" style="font-family: 'Open Sans', verdana, arial, sans-serif; font-size: 12px; fill: rgb(68, 68, 68); fill-opacity: 1; white-space: pre;">test loss</text><g class="layers" style="opacity: 1;"><g class="legendfill"/><g class="legendlines"><path class="js-line" d="M5,0h30" style="fill: none; stroke: rgb(255, 127, 14); stroke-opacity: 1; stroke-width: 2px;"/></g><g class="legendsymbols"><g class="legendpoints"/></g></g><rect class="legendtoggle" pointer-events="all" x="0" y="-9.5" width="95.78125" height="19" style="cursor: pointer; fill: rgb(0, 0, 0); fill-opacity: 0;"/></g><g class="traces" transform="translate(0, 52.5)" style="opacity: 1;"><text class="legendtext" text-anchor="start" x="40" y="4.680000000000001" style="font-family: 'Open Sans', verdana, arial, sans-serif; font-size: 12px; fill: rgb(68, 68, 68); fill-opacity: 1; white-space: pre;">acc</text><g class="layers" style="opacity: 1;"><g class="legendfill"/><g class="legendlines"><path class="js-line" d="M5,0h30" style="fill: none; stroke: rgb(44, 160, 44); stroke-opacity: 1; stroke-width: 2px;"/></g><g class="legendsymbols"><g class="legendpoints"/></g></g><rect class="legendtoggle" pointer-events="all" x="0" y="-9.5" width="95.78125" height="19" style="cursor: pointer; fill: rgb(0, 0, 0); fill-opacity: 0;"/></g></g></g><rect class="scrollbar" rx="20" ry="3" width="0" height="0" x="0" y="0" style="fill: rgb(128, 139, 164); fill-opacity: 1;"/></g><g class="g-gtitle"><text class="gtitle" x="350" y="30" text-anchor="middle" dy="0em" style="font-family: 'Open Sans', verdana, arial, sans-serif; font-size: 17px; fill: rgb(68, 68, 68); opacity: 1; font-weight: normal; white-space: pre;">TwoCnn_SAMPLE_PER_CLASS_10</text></g><g class="g-xtitle"/><g class="g-ytitle"/></g></svg>