<svg class="main-svg" xmlns="http://www.w3.org/2000/svg" xmlns:xlink="http://www.w3.org/1999/xlink" width="700" height="450" style="" viewBox="0 0 700 450"><rect x="0" y="0" width="700" height="450" style="fill: rgb(255, 255, 255); fill-opacity: 1;"/><defs id="defs-6a6040"><g class="clips"><clipPath id="clip6a6040xyplot" class="plotclip"><rect width="517" height="330"/></clipPath><clipPath class="axesclip" id="clip6a6040x"><rect x="60" y="0" width="517" height="450"/></clipPath><clipPath class="axesclip" id="clip6a6040y"><rect x="0" y="60" width="700" height="330"/></clipPath><clipPath class="axesclip" id="clip6a6040xy"><rect x="60" y="60" width="517" height="330"/></clipPath></g><g class="gradients"/></defs><g class="bglayer"/><g class="layer-below"><g class="imagelayer"/><g class="shapelayer"/></g><g class="cartesianlayer"><g class="subplot xy"><g class="layer-subplot"><g class="shapelayer"/><g class="imagelayer"/></g><g class="gridlayer"><g class="x"><path class="xgrid crisp" transform="translate(189.31,0)" d="M0,60v330" style="stroke: rgb(238, 238, 238); stroke-opacity: 1; stroke-width: 1px;"/><path class="xgrid crisp" transform="translate(318.63,0)" d="M0,60v330" style="stroke: rgb(238, 238, 238); stroke-opacity: 1; stroke-width: 1px;"/><path class="xgrid crisp" transform="translate(447.94,0)" d="M0,60v330" style="stroke: rgb(238, 238, 238); stroke-opacity: 1; stroke-width: 1px;"/></g><g class="y"><path class="ygrid crisp" transform="translate(0,322.48)" d="M60,0h517" style="stroke: rgb(238, 238, 238); stroke-opacity: 1; stroke-width: 1px;"/><path class="ygrid crisp" transform="translate(0,271.46000000000004)" d="M60,0h517" style="stroke: rgb(238, 238, 238); stroke-opacity: 1; stroke-width: 1px;"/><path class="ygrid crisp" transform="translate(0,220.44)" d="M60,0h517" style="stroke: rgb(238, 238, 238); stroke-opacity: 1; stroke-width: 1px;"/><path class="ygrid crisp" transform="translate(0,169.42000000000002)" d="M60,0h517" style="stroke: rgb(238, 238, 238); stroke-opacity: 1; stroke-width: 1px;"/><path class="ygrid crisp" transform="translate(0,118.4)" d="M60,0h517" style="stroke: rgb(238, 238, 238); stroke-opacity: 1; stroke-width: 1px;"/><path class="ygrid crisp" transform="translate(0,67.38)" d="M60,0h517" style="stroke: rgb(238, 238, 238); stroke-opacity: 1; stroke-width: 1px;"/></g></g><g class="zerolinelayer"><path class="xzl zl crisp" transform="translate(60,0)" d="M0,60v330" style="stroke: rgb(68, 68, 68); stroke-opacity: 1; stroke-width: 1px;"/><path class="yzl zl crisp" transform="translate(0,373.5)" d="M60,0h517" style="stroke: rgb(68, 68, 68); stroke-opacity: 1; stroke-width: 1px;"/></g><path class="xlines-below"/><path class="ylines-below"/><g class="overlines-below"/><g class="xaxislayer-below"/><g class="yaxislayer-below"/><g class="overaxes-below"/><g class="plot" transform="translate(60, 60)" clip-path="url('#clip6a6040xyplot')"><g class="scatterlayer mlayer"><g class="trace scatter trace300606" style="stroke-miterlimit: 2; opacity: 1;"><g class="fills"/><g class="errorbars"/><g class="lines"><path class="js-line" d="M0,16.5L1.03,289.39L1.29,293.34L3.62,311.64L3.88,312.72L4.4,312.01L4.66,299.34L4.91,296.74L5.17,306.34L5.43,305.3L5.69,301.16L6.72,311.27L6.98,306.88L7.24,300.79L7.5,307.13L7.76,310.5L8.79,313.27L9.05,312.19L9.31,311.72L9.57,312.74L9.83,312.86L10.86,311.58L11.12,313.02L11.64,313.06L11.9,312.1L12.67,313.26L12.93,313.14L13.71,311.95L13.97,312.99L14.22,313.08L14.48,311.13L15.52,313.46L15.78,313.43L17.33,313.29L17.59,312.86L18.1,312.68L18.36,313.4L20.69,313.35L20.95,313.36L22.24,313.37L22.5,313.49L517,313.45" style="vector-effect: non-scaling-stroke; fill: none; stroke: rgb(31, 119, 180); stroke-opacity: 1; stroke-width: 2px; opacity: 1;"/></g><g class="points"/><g class="text"/></g><g class="trace scatter tracea012fe" style="stroke-miterlimit: 2; opacity: 1;"><g class="fills"/><g class="errorbars"/><g class="lines"><path class="js-line" d="M0,171.63L1.29,267.61L1.55,243.7L1.81,268.49L2.07,256.97L2.33,200.73L3.1,293.02L3.36,276.94L3.62,300.04L4.4,282.33L4.66,120.57L5.69,287.19L5.95,292.12L6.21,254.85L6.47,297.07L6.72,293.75L7.24,199.87L7.5,272.55L7.76,298.36L8.02,296.59L8.28,299.77L8.53,300.09L8.79,300.62L9.05,297.89L9.31,294.88L9.57,298.52L9.83,266.27L10.09,300.18L10.6,293.34L10.86,297.95L11.38,298.51L11.64,295.5L11.9,296.97L12.41,299.75L12.67,297.51L13.19,298.01L13.45,295.27L13.71,299.58L14.22,297.11L14.48,294.68L14.74,298.6L15,283.55L15.52,297.85L15.78,296.66L16.04,298.57L16.29,281.45L16.81,296.87L17.07,297.9L17.33,299.36L17.59,293.66L18.88,296.99L19.14,296.86L19.4,296.82L19.66,294.38L20.69,296.91L20.95,297.25L21.47,297.63L21.98,295.75L22.24,297.18L23.28,297.69L23.54,290.75L24.31,299.08L24.57,298.66L24.83,298.83L25.6,297.11L25.86,297.71L26.12,298.65L26.38,298.53L26.64,297.37L26.9,298.17L27.16,297.08L27.41,297.88L27.67,297.44L28.71,297.7L28.97,297.55L30,298.51L30.26,298.19L31.04,298.17L31.29,298.2L32.07,297.96L32.33,298.84L32.85,298.11L33.1,298.77L33.36,298.81L33.88,297.73L34.14,298.37L34.4,298.58L34.91,297.47L35.17,298.16L35.43,298.89L36.98,298.19L37.24,298.7L38.02,298.62L38.28,299.11L38.54,298.63L39.05,299.05L39.31,298.97L40.6,297.71L40.86,296.09L41.12,296.14L41.38,297.17L42.42,297.78L42.67,295.97L43.45,298.55L43.71,298.01L43.97,297.67L45.26,297.78L45.52,297.5L47.85,298.24L48.11,297.33L49.14,298.13L49.4,298.4L52.24,298L52.5,298.13L53.54,297.52L53.79,298.04L54.05,298.18L55.35,298.4L55.61,297.83L56.64,298.03L56.9,297.33L57.93,298.56L58.19,297.46L58.45,298.2L58.97,297.95L59.23,297.82L60.78,298L61.04,298.58L62.07,298.07L62.33,297.99L63.36,298.43L63.62,298.06L64.14,298L64.4,297.51L64.66,298.51L65.17,297.91L65.43,298.47L66.21,297.49L66.47,298.34L67.5,298.06L67.76,298.16L68.8,298.12L69.05,298L70.86,297.96L71.12,298.2L72.93,298.02L73.19,298.15L73.97,297.42L74.23,298.09L79.4,298.07L79.66,297.59L79.92,298.13L80.18,297.49L80.43,297.33L80.69,297.99L81.21,297.57L81.47,297.92L85.86,298L86.12,298.12L87.68,297.61L87.93,298.08L88.19,298.22L88.45,297.44L89.49,298.11L89.74,298.23L90.78,297.98L91.04,297.93L94.66,298.06L94.92,297.41L95.95,298.22L96.21,297.76L97.5,297.45L97.76,298.17L98.54,297.6L98.8,297.83L99.06,297.87L100.35,297.97L100.61,298.23L101.38,297.69L101.64,298.09L101.9,297.99L102.68,297.79L102.93,298.13L103.71,298L103.97,297.92L106.04,297.62L106.3,298.07L108.11,297.98L108.37,297.97L109.14,298.11L109.4,297.7L110.69,297.72L110.95,298.17L112.76,298.12L113.02,297.66L114.57,297.82L114.83,298.15L115.87,297.33L116.12,297.84L116.38,298.63L116.64,297.66L116.9,297.94L117.16,298.06L118.45,297.53L118.71,298.11L120.78,297.31L121.04,297.76L121.56,297.39L121.81,298.08L122.07,297.97L123.37,297.94L123.62,298.15L124.66,298.09L124.92,298.38L125.44,297.7L125.95,298.15L126.21,298.02L128.8,297.78L129.06,298.31L129.83,297.66L130.09,298.14L130.35,297.33L130.87,297.85L131.13,297.63L132.42,298.02L132.68,297.72L133.19,298.32L133.45,297.72L133.71,297.66L135.52,298.22L135.78,297.55L136.56,297.89L136.81,297.6L137.07,298.02L137.59,297.53L137.85,297.8L138.63,297.91L138.88,298.39L139.4,297.53L139.66,297.67L139.92,298.2L141.21,297.96L141.47,298.09L142.5,297.79L142.76,297.88L144.57,297.46L144.83,298.04L145.35,297.6L145.61,298.17L145.87,298.28L146.13,297.43L146.64,297.87L146.9,297.65L148.19,297.79L148.45,297.99L149.23,297.55L149.49,298.06L149.75,298.01L150.78,297.92L151.04,298.41L151.3,297.58L151.82,298.03L152.07,297.89L153.88,297.88L154.14,297.48L154.92,298.32L155.18,297.69L155.69,298.26L155.95,297.71L156.21,297.77L156.99,297.27L157.25,297.89L157.51,297.76L157.76,297.57L158.02,298.03L158.28,298.18L159.83,297.53L160.09,298.12L161.13,297.98L161.38,298.2L164.49,297.8L164.75,297.68L166.04,297.64L166.3,297.57L170.18,297.98L170.44,297.45L171.21,298.04L171.47,297.28L171.73,298.46L172.25,297.62L172.51,297.55L174.06,298.01L174.32,297.79L175.35,297.9L175.61,297.69L177.16,298.28L177.42,297.54L178.2,297.81L178.45,297.81L179.49,298.11L179.75,297.48L181.04,298.28L181.3,297.76L182.08,297.92L182.33,297.73L183.63,298.07L183.89,297.44L184.66,298.43L184.92,298.05L185.18,297.87L185.7,297.61L185.95,297.92L186.21,298.1L186.99,297.58L187.25,298.18L188.8,297.16L189.06,297.82L190.35,297.56L190.61,298.47L191.13,297.77L191.39,298.29L191.64,298.24L192.16,297.77L192.42,297.98L192.68,298.53L193.71,297.26L193.97,297.56L194.75,297.67L195.01,297.59L196.3,298L196.56,297.87L196.82,297.49L197.08,298.15L197.33,298.13L199.14,297.33L199.4,297.91L200.44,297.68L200.7,297.25L201.99,298.09L202.25,297.93L202.77,298.27L203.02,297.9L203.28,297.82L204.32,297.69L204.58,297.91L205.35,298.45L205.61,297.8L207.42,298L207.68,298.25L208.2,297.5L208.46,298.26L209.49,297.49L209.75,298.19L213.89,297.87L214.15,297.53L215.18,298.07L215.44,297.93L215.96,298.16L216.21,297.66L216.47,297.91L217.77,298.04L218.02,297.47L218.28,297.11L218.54,297.61L218.8,298.1L220.35,297.94L220.61,298.12L220.87,297.81L221.13,298.13L221.39,298.36L221.9,297.4L222.16,297.87L222.42,298.19L224.75,298.13L225.01,297.4L225.78,298.11L226.04,297.94L226.3,297.62L226.56,297.31L226.82,297.61L227.08,298.06L228.11,297.47L228.37,297.82L229.4,297.83L229.66,297.39L230.44,298.02L230.7,297.64L231.73,297.8L231.99,297.6L233.28,298.2L233.54,297.82L239.75,297.78L240.01,298.25L240.27,297.12L240.78,297.78L241.04,297.83L243.89,298.04L244.15,297.88L245.44,298.01L245.7,297.65L248.03,298.07L248.28,297.81L249.32,298.09L249.58,297.91L250.09,298.18L250.35,297.98L250.61,297.36L251.65,298.03L251.9,297.78L253.97,298.06L254.23,297.48L254.49,298.19L255.01,297.86L255.27,298.07L256.56,297.19L256.82,298.04L257.85,297.38L258.11,297.65L258.89,298.17L259.15,297.68L260.18,297.89L260.44,297.66L263.03,297.5L263.28,298.34L264.32,297.68L264.58,298.4L265.1,297.51L265.35,297.77L265.61,298.05L266.91,297.98L267.16,297.34L267.68,298.31L267.94,298.01L268.2,297.6L268.72,297.83L268.97,297.49L269.23,297.1L270.27,297.95L270.53,297.79L272.08,297.55L272.34,297.27L273.11,298.01L273.37,297.59L276.73,297.88L276.99,298.51L277.77,297.76L278.03,298.28L278.29,297.36L278.8,297.96L279.06,298.1L282.68,297.84L282.94,298.09L284.23,297.72L284.49,298.1L285.53,297.84L285.79,297.95L286.56,297.84L286.82,297.86L288.37,298L288.63,298.27L288.89,297.58L289.41,297.96L289.66,298.36L289.92,297.85L290.44,298.27L290.7,298.12L290.96,297.5L291.48,297.84L291.73,298.02L292.77,297.88L293.03,298.52L294.32,297.45L294.58,297.91L294.84,297.3L295.1,297.68L295.35,298.18L297.42,298.12L297.68,298.1L298.46,297.75L298.72,298.47L299.75,297.95L300.01,298.36L300.27,297.54L300.79,297.99L301.04,297.6L301.82,297.83L302.08,298.07L302.85,298.12L303.11,297.36L304.15,298.48L304.41,297.9L305.44,297.95L305.7,297.88L306.48,297.76L306.73,297.68L308.03,297.97L308.29,297.71L308.54,298.18L309.06,297.67L309.32,297.53L310.36,297.94L310.61,297.65L310.87,297.03L311.13,297.88L311.39,297.86L312.94,298.19L313.2,297.52L314.75,297.92L315.01,297.53L315.53,298.04L315.79,297.53L316.05,298.06L318.63,297.87L318.89,298.24L319.92,298.01L320.18,298L321.48,297.24L321.73,297.76L322.25,297.88L322.51,297.51L322.77,297.58L324.06,297.97L324.32,297.75L325.1,297.95L325.36,298.32L326.39,297.44L326.65,297.75L326.91,298.04L328.2,298.38L328.46,297.89L328.72,298.32L328.98,297.78L329.24,297.66L330.01,298.08L330.27,298L333.11,298.14L333.37,297.64L334.15,297.75L334.41,297.97L334.92,297.32L335.18,297.81L335.44,297.6L336.48,297.84L336.74,297.65L337.77,298.09L338.03,297.52L338.29,297.65L339.84,298.37L340.1,298.12L340.87,298.03L341.13,297.65L344.24,297.76L344.49,298.31L345.27,297.77L345.53,298.07L348.37,297.79L348.63,298.54L349.41,297.93L349.67,298.3L350.96,297.75L351.22,298.05L352.51,298.01L352.77,298.01L353.8,297.84L354.06,298.18L355.1,298.03L355.36,298.03L356.13,297.71L356.39,298.01L356.65,297.95L357.68,297.48L357.94,298.04L358.72,298.16L358.98,298.17L360.01,297.65L360.27,297.31L361.31,298.54L361.56,297.68L363.63,297.27L363.89,297.48L364.15,298.19L364.67,297.51L364.93,297.91L365.96,298.17L366.22,297.72L368.81,298.09L369.06,297.37L369.84,298.41L370.1,297.46L370.36,298.31L370.87,297.92L371.13,298.04L372.43,298.03L372.68,298.18L373.46,297.5L373.72,297.99L373.98,298.25L375.27,297.5L375.53,298.02L376.56,297.97L376.82,297.82L377.6,298.13L377.86,297.82L378.89,297.76L379.15,298.04L379.67,297.38L379.93,298.24L380.19,297.95L381.48,297.85L381.74,298.39L382.51,297.3L382.77,297.93L383.03,298.19L384.58,298.14L384.84,297.25L385.87,297.9L386.13,297.78L388.46,297.72L388.72,297.98L389.75,297.7L390.01,298.13L390.79,297.83L391.05,297.66L392.6,297.45L392.86,297.33L394.15,297.69L394.41,297.8L395.44,298.32L395.7,297.91L396.48,298.06L396.74,298.23L397.25,297.29L397.51,298.14L397.77,297.88L398.55,298.29L398.81,297.46L400.36,298.24L400.62,298.12L401.39,297.75L401.65,298.28L402.43,297.74L402.69,297.91L402.94,298.02L404.24,297.75L404.5,297.66L405.79,298.21L406.05,297.6L406.82,297.64L407.08,298.13L407.86,297.87L408.12,298.39L408.63,297.85L408.89,298.05L409.15,298.22L409.67,297.34L409.93,298.17L410.19,298.16L411.48,297.69L411.74,298.16L412.51,297.89L412.77,298.26L414.58,297.5L414.84,298.16L417.94,298.27L418.2,297.66L418.98,298.6L419.24,297.64L420.79,298.23L421.05,297.89L422.6,297.71L422.86,297.63L424.41,298.11L424.67,297.89L427,297.86L427.26,298.33L428.29,297.47L428.55,297.49L429.58,298.06L429.84,297.64L430.62,297.87L430.88,297.44L432.17,298.18L432.43,297.93L433.72,298.31L433.98,297.59L434.76,297.96L435.01,297.52L436.57,298.02L436.82,298.11L437.08,297.53L437.34,298.29L437.6,298.32L438.38,297.67L438.64,297.98L440.19,298.01L440.45,298.05L441.74,297.73L442,297.55L442.77,297.77L443.03,297.46L443.55,298.36L444.07,298.14L444.33,297.85L444.58,298.24L444.84,297.61L445.1,297.49L445.62,298.39L445.88,298L446.14,297.67L447.69,298.02L447.95,297.85L449.76,297.76L450.02,298.11L451.83,298.19L452.08,297.58L453.38,298.34L453.64,297.74L455.45,297.86L455.7,297.43L456.48,297.93L456.74,297.51L457.52,298.04L457.77,297.72L458.03,297.82L458.55,298.21L458.81,297.91L459.07,297.82L460.1,298.1L460.36,298.04L463.21,297.74L463.46,298.03L464.24,297.53L464.5,297.75L465.79,297.95L466.05,297.44L466.57,298.51L466.83,297.88L467.08,297.93L468.38,298.01L468.64,298.06L470.96,297.64L471.22,298.08L472.52,297.18L472.77,297.94L473.81,297.43L474.07,298.02L475.1,297.85L475.36,298.21L476.14,297.59L476.4,298.08L476.91,298.32L477.17,297.82L477.43,297.59L479.24,298.24L479.5,297.6L480.53,298.03L480.79,297.89L481.05,298.2L481.57,297.75L481.83,297.87L482.6,297.78L482.86,298L483.12,297.72L483.38,297.99L483.64,298.46L484.41,297.72L484.67,298.02L485.19,297.71L485.45,298.38L485.71,297.03L486.22,297.56L486.48,297.8L487.26,297.39L487.52,297.38L488.29,298.22L488.55,297.65L489.59,297.87L489.84,297.76L493.21,298.12L493.46,298.35L494.5,297.95L494.76,297.95L496.31,298L496.57,297.66L497.6,298.19L497.86,297.98L498.9,297.85L499.15,297.72L500.45,298.38L500.71,297.76L502.78,297.8L503.03,298.06L504.84,297.62L505.1,297.6L505.88,297.98L506.14,297.87L506.65,298.37L506.91,297.91L507.17,298.05L508.72,297.64L508.98,297.83L510.02,298.08L510.28,297.86L510.53,298.2L511.05,297.78L511.31,297.61L511.57,298.19L512.09,297.73L512.34,297.71L513.38,297.8L513.64,297.5L514.67,298.17L514.93,297.72L517,297.76" style="vector-effect: non-scaling-stroke; fill: none; stroke: rgb(255, 127, 14); stroke-opacity: 1; stroke-width: 2px; opacity: 1;"/></g><g class="points"/><g class="text"/></g><g class="trace scatter trace2e05da" style="stroke-miterlimit: 2; opacity: 1;"><g class="fills"/><g class="errorbars"/><g class="lines"><path class="js-line" d="M0,103.58L0.78,78.95L1.03,83.91L1.29,72.91L1.55,77.71L1.81,70.82L2.07,73.37L2.33,83.67L2.59,69.83L2.84,64.28L3.1,63.96L3.36,68.19L3.62,62.26L4.14,63.06L4.4,64.73L4.66,86.84L4.91,76.19L5.17,66.29L5.43,74.11L5.69,65.48L5.95,64.04L6.21,73L6.47,62.78L6.72,63.04L7.24,77.9L7.5,68.48L7.76,62.1L8.02,62.56L8.28,61.85L8.53,61.7L8.79,61.62L9.05,62.46L9.31,63.54L9.57,62.08L9.83,66.66L10.35,61.78L10.6,63.42L10.86,62.03L12.16,62.23L12.41,61.77L13.45,62.91L13.71,61.45L14.48,62.87L14.74,61.67L15,65.67L15.26,61.7L15.52,61.66L15.78,61.89L16.04,61.5L16.29,64.62L17.33,61.37L17.59,62.72L18.88,61.73L19.14,61.81L20.17,62.09L20.43,61.96L22.24,61.74L22.5,61.63L23.28,61.6L23.54,63.35L24.31,61.43L24.57,61.53L24.83,61.5L26.12,61.54L26.38,61.55L27.41,61.76L27.67,61.65L28.97,61.63L29.23,61.5L35.17,61.43L35.43,61.31L37.24,61.33L37.5,61.43L39.83,61.3L40.09,61.38L43.19,61.58L43.45,61.32L47.07,61.43L47.33,61.37L53.79,61.39L54.05,61.37L58.97,61.32L59.23,61.35L61.55,61.26L61.81,61.26L65.95,61.26L66.21,61.37L68.28,61.25L68.54,61.27L74.49,61.26L74.74,61.37L76.55,61.24L76.81,61.34L83.8,61.22L84.05,61.29L93.11,61.31L93.37,61.22L99.31,61.28L99.57,61.16L102.42,61.29L102.68,61.25L118.71,61.24L118.97,61.15L120.78,61.37L121.04,61.33L122.33,61.29L122.59,61.36L124.4,61.18L124.66,61.2L133.19,61.18L133.45,61.32L137.07,61.25L137.33,61.3L141.47,61.25L141.73,61.24L151.04,61.23L151.3,61.28L152.85,61.27L153.11,61.34L155.95,61.36L156.21,61.36L157.76,61.29L158.02,61.32L159.57,61.31L159.83,61.26L169.14,61.21L169.4,61.31L172.51,61.24L172.76,61.31L190.35,61.28L190.61,61.18L195.52,61.31L195.78,61.17L202.25,61.25L202.51,61.2L208.71,61.2L208.97,61.2L211.56,61.32L211.82,61.26L517,61.26" style="vector-effect: non-scaling-stroke; fill: none; stroke: rgb(44, 160, 44); stroke-opacity: 1; stroke-width: 2px; opacity: 1;"/></g><g class="points"/><g class="text"/></g></g></g><g class="overplot"/><path class="xlines-above crisp" d="M0,0" style="fill: none;"/><path class="ylines-above crisp" d="M0,0" style="fill: none;"/><g class="overlines-above"/><g class="xaxislayer-above"><g class="xtick"><text text-anchor="middle" x="0" y="403" transform="translate(60,0)" style="font-family: 'Open Sans', verdana, arial, sans-serif; font-size: 12px; fill: rgb(68, 68, 68); fill-opacity: 1; white-space: pre;">0</text></g><g class="xtick"><text text-anchor="middle" x="0" y="403" transform="translate(189.31,0)" style="font-family: 'Open Sans', verdana, arial, sans-serif; font-size: 12px; fill: rgb(68, 68, 68); fill-opacity: 1; white-space: pre;">500</text></g><g class="xtick"><text text-anchor="middle" x="0" y="403" transform="translate(318.63,0)" style="font-family: 'Open Sans', verdana, arial, sans-serif; font-size: 12px; fill: rgb(68, 68, 68); fill-opacity: 1; white-space: pre;">1000</text></g><g class="xtick"><text text-anchor="middle" x="0" y="403" transform="translate(447.94,0)" style="font-family: 'Open Sans', verdana, arial, sans-serif; font-size: 12px; fill: rgb(68, 68, 68); fill-opacity: 1; white-space: pre;">1500</text></g></g><g class="yaxislayer-above"><g class="ytick"><text text-anchor="end" x="59" y="4.199999999999999" transform="translate(0,373.5)" style="font-family: 'Open Sans', verdana, arial, sans-serif; font-size: 12px; fill: rgb(68, 68, 68); fill-opacity: 1; white-space: pre;">0</text></g><g class="ytick"><text text-anchor="end" x="59" y="4.199999999999999" transform="translate(0,322.48)" style="font-family: 'Open Sans', verdana, arial, sans-serif; font-size: 12px; fill: rgb(68, 68, 68); fill-opacity: 1; white-space: pre;">0.2</text></g><g class="ytick"><text text-anchor="end" x="59" y="4.199999999999999" transform="translate(0,271.46000000000004)" style="font-family: 'Open Sans', verdana, arial, sans-serif; font-size: 12px; fill: rgb(68, 68, 68); fill-opacity: 1; white-space: pre;">0.4</text></g><g class="ytick"><text text-anchor="end" x="59" y="4.199999999999999" transform="translate(0,220.44)" style="font-family: 'Open Sans', verdana, arial, sans-serif; font-size: 12px; fill: rgb(68, 68, 68); fill-opacity: 1; white-space: pre;">0.6</text></g><g class="ytick"><text text-anchor="end" x="59" y="4.199999999999999" transform="translate(0,169.42000000000002)" style="font-family: 'Open Sans', verdana, arial, sans-serif; font-size: 12px; fill: rgb(68, 68, 68); fill-opacity: 1; white-space: pre;">0.8</text></g><g class="ytick"><text text-anchor="end" x="59" y="4.199999999999999" transform="translate(0,118.4)" style="font-family: 'Open Sans', verdana, arial, sans-serif; font-size: 12px; fill: rgb(68, 68, 68); fill-opacity: 1; white-space: pre;">1</text></g><g class="ytick"><text text-anchor="end" x="59" y="4.199999999999999" transform="translate(0,67.38)" style="font-family: 'Open Sans', verdana, arial, sans-serif; font-size: 12px; fill: rgb(68, 68, 68); fill-opacity: 1; white-space: pre;">1.2</text></g></g><g class="overaxes-above"/></g></g><g class="polarlayer"/><g class="ternarylayer"/><g class="geolayer"/><g class="funnelarealayer"/><g class="pielayer"/><g class="treemaplayer"/><g class="sunburstlayer"/><g class="glimages"/><defs id="topdefs-6a6040"><g class="clips"/><clipPath id="legend6a6040"><rect width="101" height="67" x="0" y="0"/></clipPath></defs><g class="layer-above"><g class="imagelayer"/><g class="shapelayer"/></g><g class="infolayer"><g class="legend" pointer-events="all" transform="translate(587.34, 60)"><rect class="bg" shape-rendering="crispEdges" width="101" height="67" x="0" y="0" style="stroke: rgb(68, 68, 68); stroke-opacity: 1; fill: rgb(255, 255, 255); fill-opacity: 1; stroke-width: 0px;"/><g class="scrollbox" transform="translate(0, 0)" clip-path="url('#legend6a6040')"><g class="groups"><g class="traces" transform="translate(0, 14.5)" style="opacity: 1;"><text class="legendtext" text-anchor="start" x="40" y="4.680000000000001" style="font-family: 'Open Sans', verdana, arial, sans-serif; font-size: 12px; fill: rgb(68, 68, 68); fill-opacity: 1; white-space: pre;">train loss</text><g class="layers" style="opacity: 1;"><g class="legendfill"/><g class="legendlines"><path class="js-line" d="M5,0h30" style="fill: none; stroke: rgb(31, 119, 180); stroke-opacity: 1; stroke-width: 2px;"/></g><g class="legendsymbols"><g class="legendpoints"/></g></g><rect class="legendtoggle" pointer-events="all" x="0" y="-9.5" width="95.78125" height="19" style="cursor: pointer; fill: rgb(0, 0, 0); fill-opacity: 0;"/></g><g class="traces" transform="translate(0, 33.5)" style="opacity: 1;"><text class="legendtext" text-anchor="start" x="40" y="4.680000000000001" style="font-family: 'Open Sans', verdana, arial, sans-serif; font-size: 12px; fill: rgb(68, 68, 68); fill-opacity: 1; white-space: pre;">test loss</text><g class="layers" style="opacity: 1;"><g class="legendfill"/><g class="legendlines"><path class="js-line" d="M5,0h30" style="fill: none; stroke: rgb(255, 127, 14); stroke-opacity: 1; stroke-width: 2px;"/></g><g class="legendsymbols"><g class="legendpoints"/></g></g><rect class="legendtoggle" pointer-events="all" x="0" y="-9.5" width="95.78125" height="19" style="cursor: pointer; fill: rgb(0, 0, 0); fill-opacity: 0;"/></g><g class="traces" transform="translate(0, 52.5)" style="opacity: 1;"><text class="legendtext" text-anchor="start" x="40" y="4.680000000000001" style="font-family: 'Open Sans', verdana, arial, sans-serif; font-size: 12px; fill: rgb(68, 68, 68); fill-opacity: 1; white-space: pre;">acc</text><g class="layers" style="opacity: 1;"><g class="legendfill"/><g class="legendlines"><path class="js-line" d="M5,0h30" style="fill: none; stroke: rgb(44, 160, 44); stroke-opacity: 1; stroke-width: 2px;"/></g><g class="legendsymbols"><g class="legendpoints"/></g></g><rect class="legendtoggle" pointer-events="all" x="0" y="-9.5" width="95.78125" height="19" style="cursor: pointer; fill: rgb(0, 0, 0); fill-opacity: 0;"/></g></g></g><rect class="scrollbar" rx="20" ry="3" width="0" height="0" x="0" y="0" style="fill: rgb(128, 139, 164); fill-opacity: 1;"/></g><g class="g-gtitle"><text class="gtitle" x="350" y="30" text-anchor="middle" dy="0em" style="font-family: 'Open Sans', verdana, arial, sans-serif; font-size: 17px; fill: rgb(68, 68, 68); opacity: 1; font-weight: normal; white-space: pre;">TwoCnn_SAMPLE_PER_CLASS_100</text></g><g class="g-xtitle"/><g class="g-ytitle"/></g></svg>