<svg class="main-svg" xmlns="http://www.w3.org/2000/svg" xmlns:xlink="http://www.w3.org/1999/xlink" width="700" height="450" style="" viewBox="0 0 700 450"><rect x="0" y="0" width="700" height="450" style="fill: rgb(255, 255, 255); fill-opacity: 1;"/><defs id="defs-e7f795"><g class="clips"><clipPath id="clipe7f795xyplot" class="plotclip"><rect width="517" height="330"/></clipPath><clipPath class="axesclip" id="clipe7f795x"><rect x="60" y="0" width="517" height="450"/></clipPath><clipPath class="axesclip" id="clipe7f795y"><rect x="0" y="60" width="700" height="330"/></clipPath><clipPath class="axesclip" id="clipe7f795xy"><rect x="60" y="60" width="517" height="330"/></clipPath></g><g class="gradients"/></defs><g class="bglayer"/><g class="layer-below"><g class="imagelayer"/><g class="shapelayer"/></g><g class="cartesianlayer"><g class="subplot xy"><g class="layer-subplot"><g class="shapelayer"/><g class="imagelayer"/></g><g class="gridlayer"><g class="x"><path class="xgrid crisp" transform="translate(189.31,0)" d="M0,60v330" style="stroke: rgb(238, 238, 238); stroke-opacity: 1; stroke-width: 1px;"/><path class="xgrid crisp" transform="translate(318.63,0)" d="M0,60v330" style="stroke: rgb(238, 238, 238); stroke-opacity: 1; stroke-width: 1px;"/><path class="xgrid crisp" transform="translate(447.94,0)" d="M0,60v330" style="stroke: rgb(238, 238, 238); stroke-opacity: 1; stroke-width: 1px;"/></g><g class="y"><path class="ygrid crisp" transform="translate(0,337.12)" d="M60,0h517" style="stroke: rgb(238, 238, 238); stroke-opacity: 1; stroke-width: 1px;"/><path class="ygrid crisp" transform="translate(0,300.74)" d="M60,0h517" style="stroke: rgb(238, 238, 238); stroke-opacity: 1; stroke-width: 1px;"/><path class="ygrid crisp" transform="translate(0,264.36)" d="M60,0h517" style="stroke: rgb(238, 238, 238); stroke-opacity: 1; stroke-width: 1px;"/><path class="ygrid crisp" transform="translate(0,227.99)" d="M60,0h517" style="stroke: rgb(238, 238, 238); stroke-opacity: 1; stroke-width: 1px;"/><path class="ygrid crisp" transform="translate(0,191.61)" d="M60,0h517" style="stroke: rgb(238, 238, 238); stroke-opacity: 1; stroke-width: 1px;"/><path class="ygrid crisp" transform="translate(0,155.23000000000002)" d="M60,0h517" style="stroke: rgb(238, 238, 238); stroke-opacity: 1; stroke-width: 1px;"/><path class="ygrid crisp" transform="translate(0,118.85)" d="M60,0h517" style="stroke: rgb(238, 238, 238); stroke-opacity: 1; stroke-width: 1px;"/><path class="ygrid crisp" transform="translate(0,82.47)" d="M60,0h517" style="stroke: rgb(238, 238, 238); stroke-opacity: 1; stroke-width: 1px;"/></g></g><g class="zerolinelayer"><path class="xzl zl crisp" transform="translate(60,0)" d="M0,60v330" style="stroke: rgb(68, 68, 68); stroke-opacity: 1; stroke-width: 1px;"/><path class="yzl zl crisp" transform="translate(0,373.5)" d="M60,0h517" style="stroke: rgb(68, 68, 68); stroke-opacity: 1; stroke-width: 1px;"/></g><path class="xlines-below"/><path class="ylines-below"/><g class="overlines-below"/><g class="xaxislayer-below"/><g class="yaxislayer-below"/><g class="overaxes-below"/><g class="plot" transform="translate(60, 60)" clip-path="url('#clipe7f795xyplot')"><g class="scatterlayer mlayer"><g class="trace scatter trace17d0d3" style="stroke-miterlimit: 2; opacity: 1;"><g class="fills"/><g class="errorbars"/><g class="lines"><path class="js-line" d="M0,16.5L1.03,295.79L1.29,291.69L1.81,300.81L2.07,292.51L2.33,296.74L2.84,311.18L3.36,310.41L3.62,309.52L4.4,312.81L4.66,312.58L4.91,312.24L5.17,308.37L5.43,310.29L5.69,312.12L6.47,310.67L6.72,311.75L6.98,311.87L7.24,311.99L7.5,310.57L8.28,313.2L8.53,312.86L8.79,313.14L9.31,308.62L9.57,308.69L9.83,312.23L10.6,312.75L10.86,310.02L11.12,308.89L11.38,311.28L12.16,313.39L12.41,313.24L12.67,311.98L13.45,313.38L13.71,313.25L13.97,312.27L14.22,312.73L14.48,313.4L16.55,313.36L16.81,313L17.59,313.25L17.85,312.5L18.1,311.98L18.36,313.34L20.17,313.48L20.43,313.39L21.98,313.48L22.24,313.46L33.36,313.49L33.62,313.07L34.66,313.49L34.91,313.49L517,313.5" style="vector-effect: non-scaling-stroke; fill: none; stroke: rgb(31, 119, 180); stroke-opacity: 1; stroke-width: 2px; opacity: 1;"/></g><g class="points"/><g class="text"/></g><g class="trace scatter traceefe22e" style="stroke-miterlimit: 2; opacity: 1;"><g class="fills"/><g class="errorbars"/><g class="lines"><path class="js-line" d="M0,181.1L1.03,254.53L1.29,181.93L1.81,226.65L2.07,215.18L2.33,199.39L2.59,272.41L3.1,224.87L3.36,263.39L3.62,255.12L3.88,277.58L4.4,280.44L5.17,262.44L5.43,276.69L5.69,277.78L5.95,267.19L6.21,280.07L6.47,264.31L6.72,276.37L6.98,238.4L8.02,279.52L8.28,276.97L8.53,277.72L8.79,276.57L9.05,214.37L10.09,279.33L10.35,270.62L10.6,276.56L10.86,250.53L11.12,218.83L11.38,269.13L11.64,272.52L12.16,276.57L12.41,274.06L12.67,273.24L12.93,277.08L13.45,276.32L13.71,196.86L14.48,276.94L14.74,277.02L16.29,276.23L16.55,273.79L16.81,276.11L17.07,275.35L17.33,267.4L18.36,276.04L18.62,275.99L19.4,276.43L19.66,277.15L21.21,276.08L21.47,272.28L22.24,276.31L22.5,276.63L22.76,276.99L23.02,274.55L23.79,276.84L24.05,274.74L24.31,274.05L24.57,276.39L24.83,272.51L25.09,275.84L25.35,276.36L25.6,275.99L26.12,276.36L26.38,274.23L26.64,273.51L26.9,274.38L27.16,275.07L27.41,275.88L27.67,271.51L28.45,276.14L28.71,275.12L29.74,274.7L30,275.5L30.52,273.28L30.78,276.01L31.29,276.61L31.55,276.05L31.81,275.77L32.59,275.88L32.85,276.34L33.1,276.73L33.36,275.77L33.62,276.27L33.88,276.52L34.66,275.96L34.91,276.35L36.47,275L36.73,274.75L37.24,275.86L37.76,275.41L38.02,275.15L39.05,276L39.31,275.11L39.57,276.32L39.83,274.19L40.09,275.06L40.6,275.1L40.86,273.69L41.12,275.43L41.64,274.89L41.9,275.02L42.42,275.8L42.67,274.82L42.93,274.25L43.19,275.36L43.45,274.63L43.71,275.31L44.23,274.47L44.74,274.69L45,275.16L45.78,275.09L46.04,275.52L47.07,274.77L47.33,274.77L47.85,274.9L48.11,275.19L48.88,274.96L49.14,274.2L50.43,274.46L50.69,274.45L51.21,274.23L51.47,274.84L51.73,275.17L52.24,274.31L52.5,274.56L52.76,274.9L54.05,274.39L54.31,274.96L55.09,274.12L55.35,275.29L56.64,273.76L56.9,274.45L57.67,273.61L57.93,274.43L58.97,274.88L59.23,274.73L60.52,275.01L60.78,275.38L61.81,275.24L62.07,275.02L62.33,274.62L62.59,275.41L62.85,275.28L63.36,275.31L63.62,274.4L63.88,275.39L64.4,274.48L64.66,274.89L65.17,275.25L65.43,274.6L65.69,274.74L65.95,275.07L66.21,274.71L66.47,274.26L66.98,275.28L67.24,275.08L67.5,274.85L67.76,275.46L68.28,275.22L68.54,275.23L69.05,274.48L69.31,274.84L69.57,274.8L70.35,275.08L70.61,274.69L71.38,275.06L71.64,274.72L71.9,275.18L72.16,275L72.42,274.17L73.19,275.18L73.45,275L73.71,274.94L74.23,274.48L74.49,275.46L75.52,274.68L75.78,275.1L76.55,275.48L76.81,274.41L77.85,275.16L78.11,275.17L78.88,274.4L79.14,274.8L79.4,275.02L79.92,275.38L80.18,274.32L81.73,275.02L81.99,274.68L82.76,274.62L83.02,274.5L83.54,275.17L83.8,274.34L84.83,275.11L85.09,274.81L85.35,275.64L85.61,274.91L85.86,274.29L86.12,274.92L86.64,274.7L86.9,274.69L87.68,275.38L87.93,274.67L88.71,274.51L88.97,274.96L89.23,274.4L89.49,274.84L89.74,275.59L90,274.38L90.52,274.74L90.78,275.56L91.81,274.38L92.07,274.83L92.33,273.72L92.85,274.42L93.11,274.92L93.88,274.59L94.14,274.48L95.18,275.12L95.43,274.9L95.95,274.82L96.21,274.37L97.24,275.06L97.5,274.4L98.54,275.18L98.8,274.37L99.83,275.37L100.09,274.54L100.87,274.95L101.12,274.34L102.42,275L102.68,274.93L103.71,274.31L103.97,274.98L105,273.97L105.26,274.72L105.78,274.45L106.04,274.85L106.3,275.25L107.33,274.3L107.59,274.64L107.85,275.31L108.37,274.84L108.62,275L109.4,274.13L109.66,275.03L109.92,274.03L110.43,274.58L110.69,275.02L111.73,274.68L111.99,275.35L112.76,274.35L113.02,275L113.28,275.07L114.57,274.15L114.83,275.11L115.87,274.29L116.12,274.68L117.93,275.05L118.19,274.55L118.45,273.99L118.71,274.25L118.97,274.85L119.23,274.85L119.49,274.02L120.78,275.23L121.04,275.05L127.76,274.9L128.02,274.26L129.31,275.44L129.57,275.09L131.13,274.43L131.38,274.53L131.64,275.21L132.16,274.79L132.42,274.82L133.45,274.34L133.71,275.1L135.26,275.2L135.52,274.52L136.81,274.71L137.07,275.22L137.85,274.11L138.11,274.93L139.66,274.52L139.92,274.67L140.69,275.36L140.95,274.55L141.47,275.09L141.73,274.62L141.99,274.76L142.76,275.3L143.02,275.04L143.28,274.83L143.54,275.83L144.32,274.47L144.57,274.95L145.35,274.25L145.61,274.57L146.64,275.19L146.9,274.34L147.68,275.73L147.94,274.28L148.19,274.13L148.45,275.02L149.75,274.49L150.01,275.3L150.26,274.47L150.78,275.18L151.04,274.64L151.82,274.95L152.07,273.99L152.59,275.12L152.85,274.78L153.11,274.42L154.14,274.68L154.4,273.73L155.95,275.15L156.21,275.23L156.47,273.98L156.99,274.8L157.25,274.21L157.51,274.92L158.02,274.5L158.28,274.79L159.06,274.2L159.32,274.58L159.57,273.8L160.09,274.5L160.35,274.52L160.87,274.67L161.13,275.26L162.16,274.35L162.42,274.36L163.2,275.43L163.45,274.73L163.71,274.66L163.97,275.49L164.23,274.75L164.49,274.33L166.3,274.41L166.56,274.33L167.59,275.33L167.85,274.76L168.11,275.05L168.37,274.67L168.63,274.47L169.66,274.48L169.92,275.09L171.73,274.22L171.99,275.06L173.02,274.29L173.28,274.66L174.06,274.31L174.32,274.52L174.57,274.34L174.83,275.12L175.09,273.97L175.61,274.86L175.87,274.81L176.64,274.86L176.9,275.57L177.16,274.23L177.68,274.89L177.94,274.53L178.71,274.75L178.97,274.03L179.75,274.91L180.01,274.16L180.26,275.06L180.78,274.88L181.04,274.58L181.56,275L181.82,274.29L184.66,274.61L184.92,273.97L185.44,274.13L185.7,274.78L185.95,275.22L186.21,274.51L186.47,274.56L186.73,274.48L186.99,275.46L187.51,273.83L187.76,274.09L188.02,275.09L188.54,274.26L188.8,274.64L189.06,274.57L190.87,275.17L191.13,275.43L191.9,274.77L192.16,275.18L192.42,275.26L193.2,274.08L193.45,275.06L193.71,274.25L193.97,274.66L194.23,275.14L195.01,274.73L195.27,274.91L195.52,273.92L196.04,274.83L196.3,274.83L196.82,274.35L197.08,274.63L197.33,274.57L198.37,275.07L198.63,274.4L199.14,275.18L199.4,274.17L199.66,275.11L199.92,273.78L200.18,274.25L200.44,274.48L200.7,275.48L200.95,275.02L201.21,274.39L201.47,274L201.73,274.45L201.99,275.53L202.51,273.9L202.77,274.88L203.02,274.8L203.8,274.54L204.06,275.06L204.58,274.03L204.83,275.21L205.09,274.44L205.61,275.21L205.87,274.94L206.13,275.57L206.39,274.54L206.64,274.54L206.9,275.61L207.16,274.15L207.42,274.62L207.68,274.74L207.94,274.72L208.2,273.86L208.97,275.09L209.23,274.24L209.75,275.37L210.01,274.15L210.52,274.91L211.04,274.43L211.3,274.01L211.82,274.98L212.33,274.47L212.59,274.47L212.85,275.19L213.11,274.33L213.37,274.14L214.66,274.65L214.92,274.17L217.25,274.92L217.51,274.31L217.77,274.37L218.02,275.3L219.06,273.91L219.32,274.16L220.09,275.2L220.35,275.13L221.39,274.53L221.65,274.55L222.42,274.95L222.68,274.65L223.71,274.99L223.97,274.54L224.75,275.08L225.01,274.03L225.78,275.03L226.04,274.29L226.3,275.42L226.82,274.36L227.08,274.54L228.11,274.9L228.37,274.97L229.15,274.13L229.4,274.88L230.18,274.37L230.44,274.95L230.96,275.23L231.47,274.37L231.73,274.72L231.99,274.94L232.25,274.47L232.51,274.1L233.03,275.85L233.28,274.66L233.54,274.53L234.84,274.19L235.09,274.95L235.61,275.31L235.87,274.76L236.13,274.81L236.65,273.92L236.9,274.93L237.68,274.38L237.94,273.79L239.23,275.1L239.49,274.85L240.53,274.2L240.78,274.95L242.08,274.34L242.34,274.93L244.4,274.18L244.66,273.97L245.44,275.44L245.7,274.28L245.96,274.96L246.47,274.51L246.73,274.2L247.25,274.53L247.51,274.3L247.77,274.35L248.8,274.78L249.06,274.35L249.32,273.56L249.58,274.55L249.84,274.53L250.09,275.35L250.61,274.59L250.87,275.17L251.39,273.97L251.65,274.27L251.9,274.4L252.16,274.9L252.68,274.4L252.94,274.71L253.2,274.96L253.46,273.94L253.72,275.15L254.23,274.26L254.49,274.75L255.27,274.69L255.53,275.26L255.78,274.18L256.3,274.85L256.56,274.66L257.34,274.62L257.59,275.05L257.85,274.39L258.37,275L258.63,275.07L259.15,275.02L259.41,273.88L261.22,275.11L261.47,274.6L261.73,274.97L261.99,274.24L262.25,273.97L263.28,274.82L263.54,274.35L263.8,275.19L264.32,274.77L264.58,274.81L267.16,274.84L267.42,274.42L268.72,275.01L268.97,274.74L269.23,274.63L269.49,275.36L270.78,274.37L271.04,274.57L271.82,274.24L272.08,275.49L273.11,274.35L273.37,274.97L273.63,274.23L274.15,274.76L274.41,275.11L274.66,275.43L274.92,274.81L275.18,274.7L275.96,274.24L276.22,275.29L276.99,274.46L277.25,274.95L277.77,274.34L278.03,275.13L278.8,274.72L279.06,275.34L279.32,273.85L279.84,274.63L280.1,274.31L281.13,275.09L281.39,274.14L283.97,275.04L284.23,274.78L285.53,274.05L285.79,274.95L286.82,274.77L287.08,274.76L287.85,274.75L288.11,275.12L288.63,274.33L288.89,274.75L289.15,274.49L289.66,275.17L289.92,274.68L290.18,274.07L290.7,274.86L290.96,275.3L292.25,274.5L292.51,274.59L294.58,274.4L294.84,274.64L296.39,274.68L296.65,273.95L296.91,273.68L297.17,274.01L297.42,274.66L300.53,274.79L300.79,274.27L301.04,275.09L301.56,274.47L301.82,274.09L303.11,275.4L303.37,274.71L304.15,274.41L304.41,275.05L304.92,274.25L305.18,274.41L305.44,274.82L305.7,274.49L305.96,274.94L306.22,275.14L306.73,274.32L306.99,275.01L307.25,274.98L308.03,274.33L308.29,274.58L308.54,275.18L309.06,274.69L309.32,273.73L310.1,274.94L310.36,274.47L311.39,275.47L311.65,274.66L312.68,275.26L312.94,274.97L313.46,273.94L313.72,274.46L313.98,274.45L314.49,275.17L314.75,273.99L315.79,274.45L316.05,274.19L316.82,274.65L317.08,274.24L317.86,275L318.11,274.55L318.37,275.15L318.63,274.58L318.89,274.37L319.15,273.93L319.67,274.44L319.92,274.65L320.44,274.29L320.7,274.73L320.96,274.77L321.73,274.94L321.99,274.88L322.25,274.16L322.51,274.46L322.77,274.99L324.84,274.84L325.1,273.66L325.61,275.26L326.13,275.13L326.39,274.75L326.91,275.43L327.17,274.68L327.42,274.45L327.94,274.35L328.2,274.78L328.46,275.48L329.49,274.27L329.75,275.12L330.01,273.72L330.53,274.43L330.79,274.84L331.3,275.42L331.56,274.07L332.6,274.54L332.86,274.27L333.11,275.15L333.63,274.47L333.89,274.37L334.15,274.25L334.41,275.2L336.48,274.5L336.74,275.47L336.99,274.42L337.51,274.77L337.77,274.7L338.03,274.04L338.55,274.71L338.8,274.74L339.32,275.22L339.58,274.16L340.61,274.37L340.87,273.79L341.65,275.17L341.91,274.13L342.68,275.05L342.94,274.12L343.46,274.86L343.72,274.6L343.98,274.5L344.24,274.13L344.49,274.44L344.75,274.76L345.01,275.22L345.53,274.63L345.79,274.21L346.05,275.04L346.56,274.68L346.82,274.89L347.08,274.84L347.34,273.91L348.37,274.73L348.63,274.67L349.67,274.07L349.93,274.7L350.18,273.7L350.44,275.39L350.7,273.94L350.96,274.07L351.48,274.07L351.74,275.24L352.25,274.38L352.51,275.19L352.77,274.76L353.55,274.01L353.8,275.16L354.58,274.22L354.84,274.82L355.1,274.91L355.36,275.3L355.62,274.95L355.87,274.36L356.39,275.7L356.65,275.09L356.91,274.54L357.68,274.32L357.94,274.09L358.72,274.93L358.98,274.38L359.75,274.79L360.01,274.3L360.27,275.16L360.53,274.52L360.79,274.28L361.05,275.29L361.56,274.82L361.82,274.33L362.6,274.25L362.86,274.37L364.67,274.94L364.93,274.53L365.7,274.05L365.96,275.14L366.99,274.37L367.25,274.84L368.29,275.22L368.55,274.28L368.81,273.88L369.06,274.77L369.32,274.34L369.58,274.47L369.84,274.28L370.1,275.16L371.39,274.45L371.65,274.71L372.68,274.33L372.94,275L375.01,274.95L375.27,275.29L376.31,274.21L376.56,274.54L376.82,274.88L377.34,274.47L377.6,274.64L379.15,274.13L379.41,274.53L379.67,274.05L379.93,274.92L380.19,275.1L381.22,274.3L381.48,275.66L382.51,273.7L382.77,274.33L383.03,274.09L383.29,274.38L383.55,274.86L384.32,274.77L384.58,274.31L385.1,275.09L385.36,274.17L386.13,274.75L386.39,274.07L387.43,274.79L387.69,275.21L388.72,274.48L388.98,274.96L389.75,274.23L390.01,274.89L390.53,274.43L390.79,275.28L391.56,274.19L391.82,274.35L392.08,274.55L392.86,275.11L393.12,274.75L394.15,275.02L394.41,274.12L394.67,274.8L395.19,274.25L395.44,274.44L396.22,274.99L396.48,274.55L396.74,274.43L397.51,275.4L397.77,274.93L398.03,274.24L398.29,275.22L398.55,274.53L398.81,274.19L399.32,275.5L399.58,274.48L400.62,275.13L400.88,274.31L402.17,275.42L402.43,273.8L403.2,275.41L403.46,275.01L403.72,275.25L404.75,274.43L405.01,274.62L407.6,274.58L407.86,275.03L409.15,274.23L409.41,274.79L409.67,274.75L409.93,275.64L410.19,274.18L410.7,274.91L410.96,274.4L411.22,275.23L411.74,274.62L412,274.56L412.77,274.93L413.03,274.46L413.29,274.5L413.55,275.34L414.07,274.63L414.32,274.11L415.1,275.24L415.36,273.94L416.39,275.15L416.65,274.13L417.43,274.63L417.69,274.37L418.46,274.29L418.72,274.98L418.98,275.02L419.24,274.18L420.27,275.02L420.53,274.8L421.57,274.73L421.82,275.35L422.08,273.81L422.6,274.37L422.86,274.83L423.38,275.05L423.63,273.98L424.93,275.02L425.19,274.59L425.7,274.97L425.96,274.81L426.22,274.44L427.51,275.17L427.77,274.31L428.29,275.26L428.55,274.7L428.81,274.58L429.58,275.22L429.84,274.3L430.1,274.02L430.36,275.08L431.14,274.48L431.39,274.89L432.43,274.24L432.69,275L433.46,274.28L433.72,274.69L433.98,275.07L434.24,274.27L434.76,274.58L435.01,274.6L436.31,275.05L436.57,274.84L437.34,274.28L437.6,274.45L437.86,274.41L438.89,275.02L439.15,274.7L439.67,274.3L439.93,274.89L440.19,274.91L440.45,275.05L440.7,273.92L441.48,274.7L441.74,274.67L442.26,274.28L442.51,275.57L443.55,274.26L443.81,274.47L444.84,274.92L445.1,275.04L446.39,274.83L446.65,275.05L447.95,274.52L448.2,274.83L449.5,274.83L449.76,275.21L450.53,274.59L450.79,275.01L451.31,274.09L451.57,274.92L451.83,275.11L452.34,274.02L452.6,274.73L452.86,274.5L453.64,274.78L453.89,274.17L454.93,275.45L455.19,274.84L455.96,273.92L456.22,274.56L457.77,274.35L458.03,274.91L460.62,274.48L460.88,274.97L462.69,274.36L462.95,274.61L463.72,274.13L463.98,273.97L465.02,274.92L465.27,274.28L466.31,274.61L466.57,274.04L468.89,275.53L469.15,274.39L470.19,274.72L470.45,274.79L470.71,275.6L470.96,275.14L471.22,274.39L473.03,275.42L473.29,275L473.55,275.29L473.81,274.55L474.07,274.49L475.1,274.74L475.36,274.14L475.88,275.17L476.14,274.9L476.4,274.02L477.17,275.16L477.43,274.04L477.95,275.54L478.46,275.31L478.72,274.51L479.76,274.56L480.02,273.6L480.79,274.98L481.05,274.88L481.31,274.49L482.6,274.64L482.86,274.1L483.64,275.11L483.9,274.95L484.15,274.5L484.67,274.05L484.93,274.93L485.96,274.44L486.22,274.8L487,275.25L487.26,275.04L488.03,274.8L488.29,275.22L489.07,274.34L489.33,275.13L490.36,274.26L490.62,274.38L491.4,274.91L491.65,274.52L492.69,274.5L492.95,274.93L493.21,274.12L493.72,274.48L493.98,274.57L494.76,274.72L495.02,275.37L496.31,273.76L496.57,274.48L497.6,274.94L497.86,275.85L498.38,273.92L498.9,274.29L499.15,275.02L500.19,274.1L500.45,274.97L501.48,274.45L501.74,274.83L502.78,274.44L503.03,274.35L504.33,275.02L504.59,274.01L504.84,275.18L505.36,274.52L505.62,274.97L506.4,274.63L506.65,275.65L507.43,274.08L507.69,274.57L508.72,274.21L508.98,275.38L509.76,274.44L510.02,274.73L510.53,274.26L510.79,275.15L511.31,275.61L511.57,274.53L511.83,274.56L512.09,274.15L512.34,274.94L512.6,275.07L513.64,274.53L513.9,274.26L514.41,275.01L514.67,274.36L514.93,274.83L517,274.38" style="vector-effect: non-scaling-stroke; fill: none; stroke: rgb(255, 127, 14); stroke-opacity: 1; stroke-width: 2px; opacity: 1;"/></g><g class="points"/><g class="text"/></g><g class="trace scatter trace5f7ec4" style="stroke-miterlimit: 2; opacity: 1;"><g class="fills"/><g class="errorbars"/><g class="lines"><path class="js-line" d="M0,175.49L1.03,150.07L1.29,163.63L1.81,155.48L2.07,157.66L2.33,162.14L2.59,142.69L3.1,150.16L3.36,146.53L4.4,140.18L4.66,143.37L5.17,145.33L5.43,141.29L5.69,140.39L5.95,143.31L6.21,140.23L6.72,140.46L6.98,145.2L8.02,139.45L8.28,139.7L8.79,140.08L9.05,149.6L10.09,139.43L10.35,141.8L10.6,139.92L10.86,145.13L11.12,147.87L11.38,141.4L12.16,139.59L12.41,140.12L12.67,140.78L12.93,139.53L13.45,139.65L13.71,145.32L14.74,139.38L15,139.33L17.07,139.72L17.33,141.26L18.36,139.49L18.62,139.45L20.69,139.38L20.95,139.39L21.21,139.29L21.47,140.08L22.5,139.2L22.76,139.11L23.54,139.5L23.79,139.34L24.83,140.04L25.09,139.39L26.12,139.34L26.38,139.77L29.23,139.35L29.48,139.43L30.52,139.6L30.78,139.13L36.47,139.22L36.73,139.42L38.54,139.1L38.79,139.15L43.97,139.12L44.23,139.33L45.52,139.16L45.78,139.12L47.33,139.1L47.59,139.12L51.21,139.2L51.47,139.05L54.05,139.21L54.31,139.06L55.61,139.2L55.86,139.17L60.78,139.06L61.04,138.96L70.09,139.02L70.35,138.96L74.74,139.01L75,139.04L77.07,138.96L77.33,139.01L79.92,138.92L80.18,139.04L85.35,138.87L85.61,138.98L91.81,138.98L92.07,138.92L94.14,138.94L94.4,138.87L98.28,139.05L98.54,138.79L100.09,138.98L100.35,139.05L103.45,138.92L103.71,139.02L105.52,139.01L105.78,139.04L107.33,138.94L107.59,139.01L117.16,139.02L117.42,138.96L120.78,138.91L121.04,138.92L126.21,138.96L126.47,138.94L135.78,138.93L136.04,138.92L138.63,139.05L138.88,138.97L141.73,138.98L141.99,138.91L144.32,139L144.57,139L147.16,138.85L147.42,138.95L149.23,138.93L149.49,138.98L152.59,138.93L152.85,138.94L157.25,139.06L157.51,138.95L163.97,138.99L164.23,139L170.44,138.98L170.7,138.96L172.25,138.96L172.51,138.97L175.87,138.96L176.13,139.02L181.82,138.97L182.08,139.03L184.14,138.96L184.4,138.98L189.06,138.99L189.32,139L204.83,138.88L205.09,139.15L206.9,138.9L207.16,138.97L211.56,138.96L211.82,139.03L214.15,139.01L214.4,138.96L217.77,138.99L218.02,138.92L220.35,138.94L220.61,138.99L224.49,138.87L224.75,138.83L225.78,138.96L226.04,138.96L231.73,138.89L231.99,139.06L233.8,139L234.06,139.14L235.87,138.88L236.13,138.95L517,138.96" style="vector-effect: non-scaling-stroke; fill: none; stroke: rgb(44, 160, 44); stroke-opacity: 1; stroke-width: 2px; opacity: 1;"/></g><g class="points"/><g class="text"/></g></g></g><g class="overplot"/><path class="xlines-above crisp" d="M0,0" style="fill: none;"/><path class="ylines-above crisp" d="M0,0" style="fill: none;"/><g class="overlines-above"/><g class="xaxislayer-above"><g class="xtick"><text text-anchor="middle" x="0" y="403" transform="translate(60,0)" style="font-family: 'Open Sans', verdana, arial, sans-serif; font-size: 12px; fill: rgb(68, 68, 68); fill-opacity: 1; white-space: pre;">0</text></g><g class="xtick"><text text-anchor="middle" x="0" y="403" transform="translate(189.31,0)" style="font-family: 'Open Sans', verdana, arial, sans-serif; font-size: 12px; fill: rgb(68, 68, 68); fill-opacity: 1; white-space: pre;">500</text></g><g class="xtick"><text text-anchor="middle" x="0" y="403" transform="translate(318.63,0)" style="font-family: 'Open Sans', verdana, arial, sans-serif; font-size: 12px; fill: rgb(68, 68, 68); fill-opacity: 1; white-space: pre;">1000</text></g><g class="xtick"><text text-anchor="middle" x="0" y="403" transform="translate(447.94,0)" style="font-family: 'Open Sans', verdana, arial, sans-serif; font-size: 12px; fill: rgb(68, 68, 68); fill-opacity: 1; white-space: pre;">1500</text></g></g><g class="yaxislayer-above"><g class="ytick"><text text-anchor="end" x="59" y="4.199999999999999" transform="translate(0,373.5)" style="font-family: 'Open Sans', verdana, arial, sans-serif; font-size: 12px; fill: rgb(68, 68, 68); fill-opacity: 1; white-space: pre;">0</text></g><g class="ytick"><text text-anchor="end" x="59" y="4.199999999999999" transform="translate(0,337.12)" style="font-family: 'Open Sans', verdana, arial, sans-serif; font-size: 12px; fill: rgb(68, 68, 68); fill-opacity: 1; white-space: pre;">0.2</text></g><g class="ytick"><text text-anchor="end" x="59" y="4.199999999999999" transform="translate(0,300.74)" style="font-family: 'Open Sans', verdana, arial, sans-serif; font-size: 12px; fill: rgb(68, 68, 68); fill-opacity: 1; white-space: pre;">0.4</text></g><g class="ytick"><text text-anchor="end" x="59" y="4.199999999999999" transform="translate(0,264.36)" style="font-family: 'Open Sans', verdana, arial, sans-serif; font-size: 12px; fill: rgb(68, 68, 68); fill-opacity: 1; white-space: pre;">0.6</text></g><g class="ytick"><text text-anchor="end" x="59" y="4.199999999999999" transform="translate(0,227.99)" style="font-family: 'Open Sans', verdana, arial, sans-serif; font-size: 12px; fill: rgb(68, 68, 68); fill-opacity: 1; white-space: pre;">0.8</text></g><g class="ytick"><text text-anchor="end" x="59" y="4.199999999999999" transform="translate(0,191.61)" style="font-family: 'Open Sans', verdana, arial, sans-serif; font-size: 12px; fill: rgb(68, 68, 68); fill-opacity: 1; white-space: pre;">1</text></g><g class="ytick"><text text-anchor="end" x="59" y="4.199999999999999" transform="translate(0,155.23000000000002)" style="font-family: 'Open Sans', verdana, arial, sans-serif; font-size: 12px; fill: rgb(68, 68, 68); fill-opacity: 1; white-space: pre;">1.2</text></g><g class="ytick"><text text-anchor="end" x="59" y="4.199999999999999" transform="translate(0,118.85)" style="font-family: 'Open Sans', verdana, arial, sans-serif; font-size: 12px; fill: rgb(68, 68, 68); fill-opacity: 1; white-space: pre;">1.4</text></g><g class="ytick"><text text-anchor="end" x="59" y="4.199999999999999" transform="translate(0,82.47)" style="font-family: 'Open Sans', verdana, arial, sans-serif; font-size: 12px; fill: rgb(68, 68, 68); fill-opacity: 1; white-space: pre;">1.6</text></g></g><g class="overaxes-above"/></g></g><g class="polarlayer"/><g class="ternarylayer"/><g class="geolayer"/><g class="funnelarealayer"/><g class="pielayer"/><g class="treemaplayer"/><g class="sunburstlayer"/><g class="glimages"/><defs id="topdefs-e7f795"><g class="clips"/><clipPath id="legende7f795"><rect width="101" height="67" x="0" y="0"/></clipPath></defs><g class="layer-above"><g class="imagelayer"/><g class="shapelayer"/></g><g class="infolayer"><g class="legend" pointer-events="all" transform="translate(587.34, 60)"><rect class="bg" shape-rendering="crispEdges" width="101" height="67" x="0" y="0" style="stroke: rgb(68, 68, 68); stroke-opacity: 1; fill: rgb(255, 255, 255); fill-opacity: 1; stroke-width: 0px;"/><g class="scrollbox" transform="translate(0, 0)" clip-path="url('#legende7f795')"><g class="groups"><g class="traces" transform="translate(0, 14.5)" style="opacity: 1;"><text class="legendtext" text-anchor="start" x="40" y="4.680000000000001" style="font-family: 'Open Sans', verdana, arial, sans-serif; font-size: 12px; fill: rgb(68, 68, 68); fill-opacity: 1; white-space: pre;">train loss</text><g class="layers" style="opacity: 1;"><g class="legendfill"/><g class="legendlines"><path class="js-line" d="M5,0h30" style="fill: none; stroke: rgb(31, 119, 180); stroke-opacity: 1; stroke-width: 2px;"/></g><g class="legendsymbols"><g class="legendpoints"/></g></g><rect class="legendtoggle" pointer-events="all" x="0" y="-9.5" width="95.78125" height="19" style="cursor: pointer; fill: rgb(0, 0, 0); fill-opacity: 0;"/></g><g class="traces" transform="translate(0, 33.5)" style="opacity: 1;"><text class="legendtext" text-anchor="start" x="40" y="4.680000000000001" style="font-family: 'Open Sans', verdana, arial, sans-serif; font-size: 12px; fill: rgb(68, 68, 68); fill-opacity: 1; white-space: pre;">test loss</text><g class="layers" style="opacity: 1;"><g class="legendfill"/><g class="legendlines"><path class="js-line" d="M5,0h30" style="fill: none; stroke: rgb(255, 127, 14); stroke-opacity: 1; stroke-width: 2px;"/></g><g class="legendsymbols"><g class="legendpoints"/></g></g><rect class="legendtoggle" pointer-events="all" x="0" y="-9.5" width="95.78125" height="19" style="cursor: pointer; fill: rgb(0, 0, 0); fill-opacity: 0;"/></g><g class="traces" transform="translate(0, 52.5)" style="opacity: 1;"><text class="legendtext" text-anchor="start" x="40" y="4.680000000000001" style="font-family: 'Open Sans', verdana, arial, sans-serif; font-size: 12px; fill: rgb(68, 68, 68); fill-opacity: 1; white-space: pre;">acc</text><g class="layers" style="opacity: 1;"><g class="legendfill"/><g class="legendlines"><path class="js-line" d="M5,0h30" style="fill: none; stroke: rgb(44, 160, 44); stroke-opacity: 1; stroke-width: 2px;"/></g><g class="legendsymbols"><g class="legendpoints"/></g></g><rect class="legendtoggle" pointer-events="all" x="0" y="-9.5" width="95.78125" height="19" style="cursor: pointer; fill: rgb(0, 0, 0); fill-opacity: 0;"/></g></g></g><rect class="scrollbar" rx="20" ry="3" width="0" height="0" x="0" y="0" style="fill: rgb(128, 139, 164); fill-opacity: 1;"/></g><g class="g-gtitle"><text class="gtitle" x="350" y="30" text-anchor="middle" dy="0em" style="font-family: 'Open Sans', verdana, arial, sans-serif; font-size: 17px; fill: rgb(68, 68, 68); opacity: 1; font-weight: normal; white-space: pre;">TwoCnn_SAMPLE_PER_CLASS_50</text></g><g class="g-xtitle"/><g class="g-ytitle"/></g></svg>