<svg class="main-svg" xmlns="http://www.w3.org/2000/svg" xmlns:xlink="http://www.w3.org/1999/xlink" width="700" height="450" style="" viewBox="0 0 700 450"><rect x="0" y="0" width="700" height="450" style="fill: rgb(255, 255, 255); fill-opacity: 1;"/><defs id="defs-ea5e2a"><g class="clips"><clipPath id="clipea5e2axyplot" class="plotclip"><rect width="517" height="330"/></clipPath><clipPath class="axesclip" id="clipea5e2ax"><rect x="60" y="0" width="517" height="450"/></clipPath><clipPath class="axesclip" id="clipea5e2ay"><rect x="0" y="60" width="700" height="330"/></clipPath><clipPath class="axesclip" id="clipea5e2axy"><rect x="60" y="60" width="517" height="330"/></clipPath></g><g class="gradients"/></defs><g class="bglayer"/><g class="layer-below"><g class="imagelayer"/><g class="shapelayer"/></g><g class="cartesianlayer"><g class="subplot xy"><g class="layer-subplot"><g class="shapelayer"/><g class="imagelayer"/></g><g class="gridlayer"><g class="x"><path class="xgrid crisp" transform="translate(189.31,0)" d="M0,60v330" style="stroke: rgb(238, 238, 238); stroke-opacity: 1; stroke-width: 1px;"/><path class="xgrid crisp" transform="translate(318.63,0)" d="M0,60v330" style="stroke: rgb(238, 238, 238); stroke-opacity: 1; stroke-width: 1px;"/><path class="xgrid crisp" transform="translate(447.94,0)" d="M0,60v330" style="stroke: rgb(238, 238, 238); stroke-opacity: 1; stroke-width: 1px;"/></g><g class="y"><path class="ygrid crisp" transform="translate(0,322.98)" d="M60,0h517" style="stroke: rgb(238, 238, 238); stroke-opacity: 1; stroke-width: 1px;"/><path class="ygrid crisp" transform="translate(0,272.41999999999996)" d="M60,0h517" style="stroke: rgb(238, 238, 238); stroke-opacity: 1; stroke-width: 1px;"/><path class="ygrid crisp" transform="translate(0,221.86)" d="M60,0h517" style="stroke: rgb(238, 238, 238); stroke-opacity: 1; stroke-width: 1px;"/><path class="ygrid crisp" transform="translate(0,171.29000000000002)" d="M60,0h517" style="stroke: rgb(238, 238, 238); stroke-opacity: 1; stroke-width: 1px;"/><path class="ygrid crisp" transform="translate(0,120.72999999999999)" d="M60,0h517" style="stroke: rgb(238, 238, 238); stroke-opacity: 1; stroke-width: 1px;"/><path class="ygrid crisp" transform="translate(0,70.17)" d="M60,0h517" style="stroke: rgb(238, 238, 238); stroke-opacity: 1; stroke-width: 1px;"/></g></g><g class="zerolinelayer"><path class="xzl zl crisp" transform="translate(60,0)" d="M0,60v330" style="stroke: rgb(68, 68, 68); stroke-opacity: 1; stroke-width: 1px;"/><path class="yzl zl crisp" transform="translate(0,373.54)" d="M60,0h517" style="stroke: rgb(68, 68, 68); stroke-opacity: 1; stroke-width: 1px;"/></g><path class="xlines-below"/><path class="ylines-below"/><g class="overlines-below"/><g class="xaxislayer-below"/><g class="yaxislayer-below"/><g class="overaxes-below"/><g class="plot" transform="translate(60, 60)" clip-path="url('#clipea5e2axyplot')"><g class="scatterlayer mlayer"><g class="trace scatter traceda571e" style="stroke-miterlimit: 2; opacity: 1;"><g class="fills"/><g class="errorbars"/><g class="lines"><path class="js-line" d="M0,16.5L1.03,270.7L1.29,280.33L3.1,302.47L3.36,303.67L3.88,304.5L4.14,306.11L5.95,309.57L6.21,310.1L6.72,310.37L6.98,310.8L7.24,310.61L7.5,311.06L7.76,311.52L9.05,311.38L9.31,311.84L17.59,313.06L17.85,312.96L19.4,313.24L19.66,313.22L24.05,313.21L24.31,313.27L27.16,313.37L27.41,313.39L44.74,313.47L45,313.47L517,313.49" style="vector-effect: non-scaling-stroke; fill: none; stroke: rgb(31, 119, 180); stroke-opacity: 1; stroke-width: 2px; opacity: 1;"/></g><g class="points"/><g class="text"/></g><g class="trace scatter trace983772" style="stroke-miterlimit: 2; opacity: 1;"><g class="fills"/><g class="errorbars"/><g class="lines"><path class="js-line" d="M0,148.87L1.03,232.08L1.29,228.12L2.84,250.53L3.1,247.04L4.14,254.75L4.4,249.18L5.43,259.46L5.69,258.59L6.47,260.67L6.72,259.23L6.98,256.89L7.5,257.98L7.76,263.24L8.28,259.27L8.53,262.19L8.79,261.06L9.31,259.75L9.83,263.35L10.09,260.51L11.12,262.15L11.38,261.53L12.16,263.13L12.41,262.13L12.67,263.01L12.93,259.9L13.45,262.83L13.71,262.78L13.97,259.82L15,262.91L15.26,261.27L15.52,261.42L15.78,263.38L16.04,263.42L16.29,261.93L16.55,261.81L16.81,262.87L17.07,264.53L17.33,263.5L17.59,261.43L17.85,261.08L18.1,261.46L18.36,259.6L19.4,263.49L19.66,261.43L20.17,260.24L20.43,262.47L20.95,260.15L21.21,260.49L21.47,260.83L21.98,262.63L22.24,260.81L22.5,261.28L22.76,261.63L23.28,261.21L23.54,260.35L24.05,260.87L24.31,259.57L24.57,260.86L26.38,260.34L26.64,262.16L26.9,260.04L27.41,261.38L27.67,260.91L28.19,259.32L28.45,260.07L28.71,260.12L28.97,261.37L29.48,260.36L29.74,257.58L30.26,260.67L30.52,260.19L30.78,259.14L31.29,259.16L31.55,260.06L31.81,261.34L32.07,260.85L32.33,259.82L32.59,261.23L32.85,259.44L33.1,259.3L33.88,259.89L34.14,259.54L34.4,259.82L34.66,259.34L34.91,258.09L35.17,260.23L35.69,259.26L35.95,259.54L36.73,260.95L36.98,260.02L37.24,258.78L38.02,259.43L38.28,258.08L39.05,259.63L39.31,259.41L40.35,258.12L40.6,259.03L40.86,258.74L41.12,259.6L41.64,258.03L41.9,258.97L42.16,258.62L42.67,258.15L43.19,259.6L43.45,259.09L43.71,259.88L43.97,258.74L44.23,258.55L45,258.16L45.26,259.63L45.78,259.58L46.04,258.07L47.07,259.95L47.33,259.07L47.59,257.34L47.85,259.66L48.11,258.81L48.36,257.85L48.62,258.94L49.14,258.29L49.4,258.71L49.66,258.23L49.92,258.53L50.17,258.89L51.21,258.8L51.47,258.55L52.5,258.64L52.76,257.68L53.79,258.64L54.05,257.25L54.83,258.61L55.09,258.18L55.35,258.02L55.61,259.04L56.9,258.11L57.16,257.99L58.19,258.71L58.45,258.16L59.23,258.82L59.48,258.33L59.74,257.84L60,258.94L60.26,258.76L60.78,259.04L61.04,258.7L61.3,257.98L61.55,259.1L62.07,258.53L62.33,257.33L62.59,258.81L63.11,258.31L63.36,258.17L63.62,258.47L63.88,257.02L64.14,258.69L64.66,258.18L64.92,257.79L65.95,257.5L66.21,257.23L66.47,258.66L66.73,257.78L66.98,256.79L68.02,258.74L68.28,257.78L68.54,259.63L68.8,258.34L69.05,257.56L69.83,258.76L70.09,257.81L70.61,258.36L70.86,257.44L71.9,259.26L72.16,257.9L72.67,258.55L72.93,258.07L73.19,258.05L73.71,258L73.97,257.2L74.74,258.45L75,257.28L76.04,259.02L76.3,258.4L77.59,258.19L77.85,258.96L78.88,258.39L79.14,258.36L79.66,258.79L79.92,257.36L80.18,257.52L80.43,257.77L80.95,258.64L81.21,257.26L82.24,258.84L82.5,258.79L83.28,258.64L83.54,257.52L83.8,257.66L84.05,258.8L85.09,257.85L85.35,258.54L85.86,257.51L86.12,258.6L86.64,257.28L86.9,258.2L87.93,258.44L88.19,257.57L88.45,258.98L88.71,257.84L88.97,257.62L90,259.35L90.26,257.68L90.78,257.43L91.04,258.2L91.55,258.89L91.81,257.92L92.33,258.93L92.59,258.42L92.85,257.64L93.62,258.79L93.88,257.77L94.14,258.53L94.66,258.12L94.92,257.93L95.43,258.93L95.69,257.31L96.47,258.45L96.73,257.52L97.24,258.51L97.5,258.26L97.76,258.53L98.8,256.95L99.06,258.86L99.31,257.55L99.83,257.79L100.09,257.82L100.35,258.59L100.87,258.07L101.12,257.53L102.16,258.51L102.42,258.07L102.93,258.43L103.19,257.87L103.45,256.86L104.23,258.67L104.49,258.49L105.26,257.97L105.52,258.36L105.78,257.64L106.04,259.01L106.3,258.22L106.56,258.27L106.81,258.17L107.07,259.11L107.33,256.9L107.85,257.91L108.11,257.75L109.14,258.22L109.4,257.34L109.66,258.08L110.18,257.71L110.43,257.37L111.21,259.06L111.47,258.46L111.73,258.02L111.99,258.32L112.25,258.94L112.76,257.67L113.28,258.13L113.54,258.42L113.8,257.54L114.31,257.78L114.57,257.66L115.09,258.41L115.35,257.99L115.61,258.01L116.12,257.55L116.38,257.25L117.42,258.72L117.68,258.77L118.45,257.25L118.71,258.65L119.75,258.58L120,257.01L121.04,258.76L121.3,257.38L122.33,258.69L122.59,258.52L123.37,257.16L123.62,257.83L123.88,258.06L124.66,257.45L124.92,257.84L125.18,258.67L125.69,258.9L125.95,257.65L126.21,258.05L126.47,258.89L126.73,258.79L126.99,257.94L127.25,257.14L127.5,257.76L127.76,258.03L128.54,258L128.8,258.14L129.57,258.11L129.83,258.21L130.09,258.66L130.35,258.29L130.61,257.77L131.64,258.37L131.9,257.28L132.16,258.62L132.68,258.03L132.94,257.64L133.97,258.79L134.23,257.02L135.26,258.76L135.52,258.53L135.78,258.38L136.04,257.93L136.3,258.62L136.56,259.11L137.33,257.01L137.59,258.15L138.37,258.38L138.63,257.71L138.88,257.54L139.14,258.23L139.4,258.46L140.44,257.57L140.69,258.42L141.21,257.58L141.47,257.85L141.73,258.11L142.5,258.97L142.76,257.93L143.02,256.99L143.28,257.92L143.54,258.56L144.06,257.29L144.32,258.06L144.57,259.1L144.83,258.1L145.09,257.43L145.87,258.46L146.13,258L146.38,258.19L146.64,257.35L147.42,258.61L147.68,257.67L149.49,258.82L149.75,257.72L150.78,258.81L151.04,258.08L151.82,257.47L152.07,256.62L153.11,258.44L153.37,258.48L154.92,256.69L155.18,257.87L155.44,257.64L155.69,258.14L155.95,258.85L156.73,257.34L156.99,257.57L157.25,258.03L157.76,257.74L158.02,258.02L158.28,258.81L158.54,256.73L159.06,258.34L159.32,257.72L159.83,258.67L160.09,257.22L160.35,259.03L160.87,258.59L161.13,258.48L161.9,257.72L162.16,258.64L162.94,258.37L163.2,259.14L163.97,257.73L164.23,257.91L165.26,258.83L165.52,258.35L165.78,257.93L166.04,259.12L166.3,257.77L166.56,257.71L167.59,258.37L167.85,257.38L168.11,257.38L168.37,258.16L169.14,258.14L169.4,256.67L170.7,258.99L170.95,258.38L171.21,257.98L171.47,258.17L171.73,258.74L172.51,258.28L172.76,257.1L173.54,258.97L173.8,257.91L174.06,258.38L174.57,257.83L174.83,257.8L175.09,257.36L175.35,258.32L175.61,258.33L176.39,257.7L176.64,257.74L176.9,257.55L177.16,258.69L177.68,258.47L177.94,257.09L178.71,258.61L178.97,257.89L179.23,257.96L179.49,257.22L180.01,258.19L180.26,257.59L180.52,257.72L180.78,257.74L181.04,259.12L181.3,257.85L181.82,258.03L182.08,258.88L182.59,257.49L183.11,257.8L183.37,258.47L183.89,257.67L184.14,258.56L184.4,258.59L184.66,257.33L185.44,258.89L185.7,258.56L185.95,257.35L186.21,259.54L186.73,258.42L186.99,258.46L188.28,257.13L188.54,258.41L189.32,257.5L189.58,258.79L189.83,258.86L190.09,257.73L190.35,258.32L190.61,258.19L190.87,257.48L191.13,258.71L191.64,258.23L191.9,258.3L192.16,257.85L192.42,258.98L193.71,257.46L193.97,258L194.23,257.81L194.49,258.7L194.75,257.03L195.27,257.65L195.52,257.33L195.78,258.57L196.3,257.91L196.56,257.88L197.85,258.71L198.11,258.22L198.63,256.94L198.89,258.36L199.14,257.34L199.66,257.62L199.92,257.81L200.44,257.58L200.7,258.55L200.95,258.87L201.21,258.65L201.47,258L201.73,258.38L201.99,258.14L202.25,257.62L203.54,258.81L203.8,257.06L204.58,258.79L204.83,258.64L205.09,258.28L205.35,258.5L205.61,258L205.87,257.21L206.39,258.4L206.64,257.78L206.9,257.76L207.68,257.96L207.94,257.59L208.46,259.08L208.71,258.9L208.97,257.78L209.23,258.87L209.75,258.35L210.01,258.6L210.27,257.49L210.78,257.68L211.04,258.1L211.56,257.7L211.82,258.52L212.08,257.83L212.33,258L212.59,258.66L213.11,258.88L213.63,257.54L213.89,257.78L214.15,258.32L214.4,257.68L214.66,257.27L215.7,258.63L215.96,258.4L216.73,257.74L216.99,258.24L217.25,257.11L218.02,258.21L218.28,257.73L219.06,258.43L219.32,257.38L220.09,258.5L220.35,257.76L221.13,259.34L221.39,258.59L221.65,257.86L222.16,258.58L222.42,257.77L223.46,258.55L223.71,258.08L223.97,258.7L224.23,257.86L224.49,257.44L225.52,258.85L225.78,257.91L226.56,258.83L226.82,257.34L227.59,258.49L227.85,257.51L228.63,259.36L228.89,258.52L229.15,257.48L229.92,258.47L230.18,257.51L231.21,258.07L231.47,258.32L231.99,257.43L232.25,258.87L233.28,257.38L233.54,257.37L234.06,258.85L234.32,257.94L235.09,258.75L235.35,257.63L235.61,258.37L235.87,257.14L236.13,257.77L236.39,257.74L237.16,258.64L237.42,257.61L238.2,257.1L238.46,257.76L239.23,258.26L239.49,257.66L239.75,258.78L240.27,258.5L240.53,258.2L241.04,258L241.3,257.6L242.08,258.3L242.34,257.67L242.85,258.15L243.11,259.37L244.66,257.03L244.92,257.39L245.7,258.22L245.96,257.23L246.99,259.29L247.25,258.6L247.51,257.85L248.03,258.59L248.28,258.86L248.54,257.45L249.06,257.76L249.32,258.13L249.84,258.68L250.09,257.72L251.13,258.3L251.39,257.96L251.65,257.55L251.9,258.45L252.42,258.11L252.68,257.82L253.2,257.89L253.46,258.89L254.49,257.33L254.75,258.48L255.27,257.4L255.53,258.06L255.78,258.25L256.82,257.75L257.08,258.66L257.85,257.24L258.11,258.43L258.89,257.44L259.15,257.64L259.41,258.18L259.92,257.57L260.18,257.88L261.22,258.27L261.47,258.31L262.25,257.37L262.51,258.94L263.54,256.86L263.8,259.21L264.06,257.91L264.32,258.57L264.58,259.19L265.35,257.58L265.61,258.67L266.65,257.92L266.91,258.16L267.68,257.37L267.94,257.15L268.97,258.97L269.23,258.08L269.75,258.14L270.01,259.39L270.78,256.94L271.04,257.69L271.3,257.39L271.82,258.62L272.08,258.5L272.34,257.94L272.6,257.82L272.85,258.46L273.11,257.28L273.89,258.76L274.15,258.05L274.41,258L275.18,258.75L275.44,258.59L275.7,257.58L276.22,257.96L276.47,257.26L277.25,258.39L277.51,257.1L278.29,258.4L278.54,258.26L278.8,257.7L279.58,258.84L279.84,258.02L280.1,258.59L280.61,258.29L280.87,257.73L281.91,258.58L282.16,257.41L282.42,259.25L282.68,258.2L282.94,257.17L283.46,259.27L283.72,259.07L283.97,257.18L284.23,258.18L284.75,258.02L285.01,257.91L286.04,258.53L286.3,257.09L287.6,259.01L287.85,258.46L288.63,257.54L288.89,258.46L289.15,257.67L289.66,258.43L289.92,257.82L290.44,258.64L290.7,257.67L291.22,259.06L291.48,257.89L291.73,257.74L291.99,258.57L292.51,257.97L292.77,257.85L293.03,258.02L293.29,257.31L293.54,258.78L293.8,257.57L294.32,257.94L294.58,257.79L294.84,257.5L295.1,258.14L295.35,258.11L295.87,258.21L296.13,257.14L296.91,258.63L297.17,258.33L297.42,258.34L297.68,258.74L297.94,257.61L298.72,257.89L298.98,257.82L299.75,257.83L300.01,257.55L301.3,257.96L301.56,258.23L301.82,258.24L302.08,257.36L302.34,259.01L302.85,258.45L303.11,258.91L304.15,257.44L304.41,258.23L305.44,257.74L305.7,258.02L306.22,257.61L306.48,258.05L306.73,258.49L307.77,257.25L308.03,257.91L308.29,258.01L309.32,258.42L309.58,258.31L309.84,258.65L310.1,258.4L310.36,257.47L310.87,258.86L311.13,258.29L311.39,258.45L312.17,257.13L312.42,257.79L312.68,258.6L313.2,258.23L313.46,258.48L313.72,259.06L313.98,257.47L314.49,258.65L314.75,257.88L315.01,257.16L315.27,259.04L316.05,258.06L316.3,258.92L317.34,257.81L317.6,257.69L317.86,258.58L318.11,258.35L318.37,257.55L318.63,258.85L318.89,256.98L319.15,258.14L319.41,258.13L319.67,258.45L319.92,257.88L320.18,257.63L320.7,258.2L320.96,257.08L321.99,258.93L322.25,258.48L322.51,258.51L323.55,257.52L323.8,258.2L324.84,258.02L325.1,257.61L326.39,258.44L326.65,257.64L327.68,258.5L327.94,258.18L328.98,258.17L329.24,259.23L330.01,257.19L330.27,257.73L331.3,258.15L331.56,257.65L331.82,257.51L332.08,258.41L332.6,257.32L332.86,257.71L333.11,258.81L333.37,258.06L333.89,258.83L334.15,258.29L334.41,258.31L334.67,257.31L335.18,258.7L335.7,258.39L335.96,258.12L337.25,258.46L337.51,257.46L337.77,258.27L338.03,258L338.29,257.11L339.32,258.36L339.58,258.36L340.61,257.35L340.87,258.48L341.65,258.22L341.91,258.8L342.94,258.13L343.2,258.06L343.72,258.4L343.98,257.67L344.24,258.54L344.75,257.79L345.01,258.22L345.27,258.55L346.3,257.4L346.56,258.68L346.82,257.69L347.34,258.25L347.6,258.23L348.89,257.32L349.15,258.24L349.67,257.81L349.93,257.46L350.44,259.04L350.7,257.02L351.48,258.8L351.74,258.18L352.51,259.19L352.77,257.86L353.03,258.76L353.29,257.53L353.55,257.73L353.8,258.59L354.32,258L354.58,257.88L355.87,257.73L356.13,258.04L357.17,258.18L357.43,257.73L358.72,258.03L358.98,257.32L359.24,257.09L359.49,257.73L359.75,258.15L360.27,256.83L360.53,257.92L360.79,258.01L361.31,258.27L361.56,257.73L362.08,258.29L362.34,257.44L362.86,257.62L363.12,258.47L363.89,257.36L364.15,258.31L364.41,258.39L364.67,257.2L365.18,258.14L365.44,256.91L366.74,258.83L366.99,258.41L367.77,257.86L368.03,258.42L368.81,257.58L369.06,257.83L369.84,257.41L370.1,258.63L370.36,257.28L370.87,257.62L371.13,258.82L371.39,257.36L371.91,257.75L372.17,257.58L373.2,258.83L373.46,257.69L374.24,257.53L374.5,257.12L375.27,258.52L375.53,257.93L376.05,257.54L376.31,258.57L377.08,257.7L377.34,258.64L378.89,257.25L379.15,257.74L379.41,257.93L380.19,258.02L380.44,258.1L380.96,258.75L381.22,257.61L382.25,258.47L382.51,258.88L383.03,257.78L383.55,258.02L383.81,257.69L384.84,258.67L385.1,258.05L385.87,257.34L386.13,258.42L386.91,258.19L387.17,258.83L387.94,257.16L388.2,258.34L388.98,257.89L389.24,257.7L389.5,258.27L390.01,258.03L390.27,257.76L390.53,259.16L391.05,258.59L391.31,257.09L391.56,258.16L392.08,257.18L392.34,257.96L392.6,258.35L392.86,257.61L393.12,257.8L393.38,257.75L394.41,258.35L394.67,258.02L394.93,258.37L395.19,257.31L395.7,258.62L395.96,258.12L396.22,257.36L397,258.31L397.25,257.45L398.55,258.43L398.81,258.41L399.58,257.46L399.84,258.32L400.1,258.82L400.36,258.16L400.62,257.8L400.88,258.8L401.39,257.91L401.65,257.55L401.91,259.07L402.17,258.35L402.43,257.48L403.2,258.69L403.46,258.52L403.72,257.04L403.98,257.87L404.24,258.71L405.27,258.1L405.53,258.03L405.79,259.44L406.05,258.6L406.31,257.96L406.82,258.18L407.08,257.52L408.38,258.11L408.63,257.2L409.67,259.13L409.93,257.93L411.22,258.31L411.48,257.68L412,258.87L412.26,257.21L412.51,258.57L413.03,258.38L413.29,258.46L414.07,257.32L414.32,257.79L414.58,258.59L414.84,257.14L415.36,257.67L415.62,258.03L416.39,257.23L416.65,258.77L416.91,257.54L417.43,258.5L417.69,258.46L418.2,257.67L418.46,258.84L419.24,257.64L419.5,258.24L419.76,258.88L420.01,257.02L420.53,257.64L420.79,257.88L421.31,259.07L421.82,258.74L422.08,258.61L422.34,257.91L422.6,258.19L422.86,258.84L423.89,257.99L424.15,258.67L424.41,257.21L424.93,257.83L425.19,258.82L425.96,258.09L426.22,258.79L426.74,256.78L427,257.56L427.26,257.59L428.03,257.81L428.29,257.17L428.55,258.61L428.81,258.16L429.07,257.17L429.84,258.58L430.1,258.15L430.36,258.01L430.62,258.21L430.88,256.84L431.14,259.17L431.65,257.7L431.91,258L432.43,258.81L432.69,258.29L432.95,257.58L433.46,258.29L433.72,257.42L435.01,258.39L435.27,257.93L435.79,258.73L436.05,258.02L436.31,258.17L436.82,256.91L437.08,258.24L438.12,257.27L438.38,258.37L438.64,257.8L439.15,258.21L439.41,258.4L439.93,257.94L440.19,258.51L440.45,257.28L440.7,258.55L441.22,258.06L441.48,257.95L442.26,257.83L442.51,258.49L444.33,258.01L444.58,258.19L444.84,258.55L445.36,258.15L445.62,257.57L446.65,258.78L446.91,258.06L447.17,258.65L447.43,258.4L447.69,257.31L447.95,258.42L448.46,257.81L448.72,258.05L448.98,257.19L449.24,258.25L449.5,257.62L449.76,258.72L450.27,256.69L450.53,257.78L450.79,258.12L451.31,258.01L451.57,257.6L452.34,258.26L452.6,257.67L453.38,258.26L453.64,257.68L454.67,257.86L454.93,256.67L455.96,258.76L456.22,258.88L456.48,259.03L456.74,258.27L457.52,257.88L457.77,258.74L458.55,257.2L458.81,258.29L459.33,257.49L459.58,258L459.84,258.76L460.1,257.61L460.62,257.88L460.88,258.72L461.39,258.99L461.91,257.39L462.17,257.91L462.95,258.56L463.21,257.43L463.72,257.02L463.98,259.07L464.24,257.79L465.27,257.86L465.53,257.88L465.79,258.98L466.05,257.56L466.31,258.02L466.57,257.99L467.34,258.38L467.6,257.74L467.86,258.49L468.38,257.91L468.64,257.92L468.89,258.56L469.15,257.79L469.41,257.7L470.96,257.97L471.22,257.53L472,258.52L472.26,258.02L473.29,258.05L473.55,256.94L474.33,258.9L474.58,257.85L475.36,258.38L475.62,258.63L476.14,257.79L476.4,259.37L476.91,257.94L477.43,258.19L477.69,258.35L477.95,257.27L478.46,257.65L478.72,258L479.76,258.03L480.02,257.65L480.27,257.46L480.53,258.57L481.05,257.31L481.31,258.62L481.83,257.93L482.09,259.15L482.34,258.05L482.86,258.79L483.12,258.46L483.9,258.02L484.15,258.33L486.22,258.1L486.48,257.23L487.26,258.71L487.52,257.82L488.03,257.69L488.29,258.88L488.55,258.84L488.81,257.37L489.07,258.54L489.59,258.09L489.84,257.63L490.1,257.33L490.36,257.66L490.62,259.24L491.14,257.62L491.65,257.83L491.91,258.11L492.17,258.88L492.43,257.89L492.69,257.88L492.95,257.17L493.21,258.38L493.46,257.49L493.72,257.49L493.98,257.49L494.24,258.82L495.28,257.25L495.53,258.59L496.31,257.87L496.57,258.12L496.83,258.15L497.09,257.22L497.86,258.61L498.12,258.2L498.38,257.71L498.64,256.96L498.9,258.18L499.15,257.97L499.41,258.02L499.67,256.65L500.71,258.48L500.96,258.49L502,258.58L502.26,257.69L503.55,258.49L503.81,257.77L504.07,258.07L504.33,257.04L505.1,258.85L505.36,257.51L506.14,258.3L506.4,258.29L506.91,257.91L507.17,258.65L507.95,257.24L508.21,258.09L508.98,256.98L509.24,257.81L510.02,259.16L510.28,257.84L510.53,258.48L511.05,258.13L511.31,257.41L512.09,258.5L512.34,258.04L513.12,257.62L513.38,258.53L514.16,256.97L514.41,258.45L514.93,257.13L515.19,257.94L515.45,258.65L516.48,258.08L516.74,257.86L517,257.37" style="vector-effect: non-scaling-stroke; fill: none; stroke: rgb(255, 127, 14); stroke-opacity: 1; stroke-width: 2px; opacity: 1;"/></g><g class="points"/><g class="text"/></g><g class="trace scatter trace4d707d" style="stroke-miterlimit: 2; opacity: 1;"><g class="fills"/><g class="errorbars"/><g class="lines"><path class="js-line" d="M0,118.15L1.03,89.03L1.29,90.91L2.33,82.36L2.59,82.53L2.84,80.76L3.1,83.18L3.36,80.38L3.62,80.03L3.88,82.65L4.14,79.88L4.4,82.59L4.66,79.09L4.91,81.25L5.17,78.45L5.43,77.41L5.69,78.09L5.95,77.96L6.21,77.31L6.47,77.09L6.72,77.92L6.98,78.62L7.24,77.44L7.5,77.94L7.76,76.28L8.28,77.68L8.53,76.49L8.79,76.96L9.31,77.27L9.83,75.95L10.09,76.9L11.64,76.15L11.9,76.13L12.67,75.76L12.93,76.65L13.71,75.66L13.97,76.49L15,75.3L15.26,75.79L16.81,75.34L17.07,75L17.59,75.62L17.85,75.78L19.4,74.88L19.66,75.45L19.91,75.49L21.21,75.79L21.47,75.48L22.76,75.19L23.02,75.36L24.05,75.27L24.31,75.58L25.09,75.08L25.35,75.26L26.64,74.81L26.9,75.23L29.48,74.98L29.74,75.71L30.78,75.08L31.04,75.22L34.4,74.84L34.66,75.07L35.69,74.98L35.95,74.95L47.33,74.78L47.59,75.01L48.62,74.77L48.88,74.85L53.54,74.83L53.79,74.75L54.57,74.83L54.83,74.8L68.28,74.74L68.54,74.62L71.12,74.8L71.38,74.66L72.67,74.78L72.93,74.78L76.04,74.75L76.3,74.77L81.47,74.84L81.73,74.98L83.28,74.7L83.54,74.85L89.23,74.77L89.49,74.74L103.97,74.75L104.23,74.67L109.14,74.74L109.4,74.83L115.61,74.79L115.87,74.78L119.49,74.72L119.75,74.66L120.78,74.8L121.04,74.63L122.07,74.72L122.33,74.7L131.13,74.77L131.38,74.79L140.18,74.84L140.44,74.88L141.99,74.64L142.25,74.82L143.8,74.75L144.06,75L145.09,74.86L145.35,74.76L148.97,74.79L149.23,74.73L157.51,74.79L157.76,74.92L159.06,74.72L159.32,74.91L161.13,74.72L161.38,74.73L162.94,74.74L163.2,74.67L165.01,74.72L165.26,74.64L167.33,74.78L167.59,74.76L169.4,74.97L169.66,74.86L173.54,74.63L173.8,74.8L176.13,74.83L176.39,74.88L177.68,74.65L177.94,74.83L180.01,74.72L180.26,74.86L184.4,74.7L184.66,74.93L188.02,74.81L188.28,74.9L189.83,74.68L190.09,74.89L191.64,74.75L191.9,74.71L196.04,74.82L196.3,74.75L212.85,74.91L213.11,74.66L214.66,74.87L214.92,74.74L216.73,74.84L216.99,74.77L218.8,74.89L219.06,74.67L220.35,74.87L220.61,74.77L235.61,74.72L235.87,74.89L238.2,74.86L238.46,74.8L247.25,74.73L247.51,74.83L249.06,74.87L249.32,74.77L253.72,74.8L253.97,74.81L256.82,74.76L257.08,74.63L258.37,74.79L258.63,74.81L261.22,74.79L261.47,74.77L265.87,74.77L266.13,74.68L274.41,74.72L274.66,74.72L289.92,74.82L290.18,74.65L293.29,74.82L293.54,74.66L294.84,74.9L295.1,74.72L297.42,74.73L297.68,74.67L299.49,74.84L299.75,74.81L304.41,74.77L304.67,74.74L306.22,74.86L306.48,74.67L308.54,74.78L308.8,74.79L313.72,74.62L313.98,74.91L316.82,74.67L317.08,74.68L318.37,74.83L318.63,74.65L319.92,74.79L320.18,74.77L517,74.95" style="vector-effect: non-scaling-stroke; fill: none; stroke: rgb(44, 160, 44); stroke-opacity: 1; stroke-width: 2px; opacity: 1;"/></g><g class="points"/><g class="text"/></g></g></g><g class="overplot"/><path class="xlines-above crisp" d="M0,0" style="fill: none;"/><path class="ylines-above crisp" d="M0,0" style="fill: none;"/><g class="overlines-above"/><g class="xaxislayer-above"><g class="xtick"><text text-anchor="middle" x="0" y="403" transform="translate(60,0)" style="font-family: 'Open Sans', verdana, arial, sans-serif; font-size: 12px; fill: rgb(68, 68, 68); fill-opacity: 1; white-space: pre;">0</text></g><g class="xtick"><text text-anchor="middle" x="0" y="403" transform="translate(189.31,0)" style="font-family: 'Open Sans', verdana, arial, sans-serif; font-size: 12px; fill: rgb(68, 68, 68); fill-opacity: 1; white-space: pre;">500</text></g><g class="xtick"><text text-anchor="middle" x="0" y="403" transform="translate(318.63,0)" style="font-family: 'Open Sans', verdana, arial, sans-serif; font-size: 12px; fill: rgb(68, 68, 68); fill-opacity: 1; white-space: pre;">1000</text></g><g class="xtick"><text text-anchor="middle" x="0" y="403" transform="translate(447.94,0)" style="font-family: 'Open Sans', verdana, arial, sans-serif; font-size: 12px; fill: rgb(68, 68, 68); fill-opacity: 1; white-space: pre;">1500</text></g></g><g class="yaxislayer-above"><g class="ytick"><text text-anchor="end" x="59" y="4.199999999999999" transform="translate(0,373.54)" style="font-family: 'Open Sans', verdana, arial, sans-serif; font-size: 12px; fill: rgb(68, 68, 68); fill-opacity: 1; white-space: pre;">0</text></g><g class="ytick"><text text-anchor="end" x="59" y="4.199999999999999" transform="translate(0,322.98)" style="font-family: 'Open Sans', verdana, arial, sans-serif; font-size: 12px; fill: rgb(68, 68, 68); fill-opacity: 1; white-space: pre;">0.2</text></g><g class="ytick"><text text-anchor="end" x="59" y="4.199999999999999" transform="translate(0,272.41999999999996)" style="font-family: 'Open Sans', verdana, arial, sans-serif; font-size: 12px; fill: rgb(68, 68, 68); fill-opacity: 1; white-space: pre;">0.4</text></g><g class="ytick"><text text-anchor="end" x="59" y="4.199999999999999" transform="translate(0,221.86)" style="font-family: 'Open Sans', verdana, arial, sans-serif; font-size: 12px; fill: rgb(68, 68, 68); fill-opacity: 1; white-space: pre;">0.6</text></g><g class="ytick"><text text-anchor="end" x="59" y="4.199999999999999" transform="translate(0,171.29000000000002)" style="font-family: 'Open Sans', verdana, arial, sans-serif; font-size: 12px; fill: rgb(68, 68, 68); fill-opacity: 1; white-space: pre;">0.8</text></g><g class="ytick"><text text-anchor="end" x="59" y="4.199999999999999" transform="translate(0,120.72999999999999)" style="font-family: 'Open Sans', verdana, arial, sans-serif; font-size: 12px; fill: rgb(68, 68, 68); fill-opacity: 1; white-space: pre;">1</text></g><g class="ytick"><text text-anchor="end" x="59" y="4.199999999999999" transform="translate(0,70.17)" style="font-family: 'Open Sans', verdana, arial, sans-serif; font-size: 12px; fill: rgb(68, 68, 68); fill-opacity: 1; white-space: pre;">1.2</text></g></g><g class="overaxes-above"/></g></g><g class="polarlayer"/><g class="ternarylayer"/><g class="geolayer"/><g class="funnelarealayer"/><g class="pielayer"/><g class="treemaplayer"/><g class="sunburstlayer"/><g class="glimages"/><defs id="topdefs-ea5e2a"><g class="clips"/><clipPath id="legendea5e2a"><rect width="101" height="67" x="0" y="0"/></clipPath></defs><g class="layer-above"><g class="imagelayer"/><g class="shapelayer"/></g><g class="infolayer"><g class="legend" pointer-events="all" transform="translate(587.34, 60)"><rect class="bg" shape-rendering="crispEdges" width="101" height="67" x="0" y="0" style="stroke: rgb(68, 68, 68); stroke-opacity: 1; fill: rgb(255, 255, 255); fill-opacity: 1; stroke-width: 0px;"/><g class="scrollbox" transform="translate(0, 0)" clip-path="url('#legendea5e2a')"><g class="groups"><g class="traces" transform="translate(0, 14.5)" style="opacity: 1;"><text class="legendtext" text-anchor="start" x="40" y="4.680000000000001" style="font-family: 'Open Sans', verdana, arial, sans-serif; font-size: 12px; fill: rgb(68, 68, 68); fill-opacity: 1; white-space: pre;">train loss</text><g class="layers" style="opacity: 1;"><g class="legendfill"/><g class="legendlines"><path class="js-line" d="M5,0h30" style="fill: none; stroke: rgb(31, 119, 180); stroke-opacity: 1; stroke-width: 2px;"/></g><g class="legendsymbols"><g class="legendpoints"/></g></g><rect class="legendtoggle" pointer-events="all" x="0" y="-9.5" width="95.78125" height="19" style="cursor: pointer; fill: rgb(0, 0, 0); fill-opacity: 0;"/></g><g class="traces" transform="translate(0, 33.5)" style="opacity: 1;"><text class="legendtext" text-anchor="start" x="40" y="4.680000000000001" style="font-family: 'Open Sans', verdana, arial, sans-serif; font-size: 12px; fill: rgb(68, 68, 68); fill-opacity: 1; white-space: pre;">test loss</text><g class="layers" style="opacity: 1;"><g class="legendfill"/><g class="legendlines"><path class="js-line" d="M5,0h30" style="fill: none; stroke: rgb(255, 127, 14); stroke-opacity: 1; stroke-width: 2px;"/></g><g class="legendsymbols"><g class="legendpoints"/></g></g><rect class="legendtoggle" pointer-events="all" x="0" y="-9.5" width="95.78125" height="19" style="cursor: pointer; fill: rgb(0, 0, 0); fill-opacity: 0;"/></g><g class="traces" transform="translate(0, 52.5)" style="opacity: 1;"><text class="legendtext" text-anchor="start" x="40" y="4.680000000000001" style="font-family: 'Open Sans', verdana, arial, sans-serif; font-size: 12px; fill: rgb(68, 68, 68); fill-opacity: 1; white-space: pre;">acc</text><g class="layers" style="opacity: 1;"><g class="legendfill"/><g class="legendlines"><path class="js-line" d="M5,0h30" style="fill: none; stroke: rgb(44, 160, 44); stroke-opacity: 1; stroke-width: 2px;"/></g><g class="legendsymbols"><g class="legendpoints"/></g></g><rect class="legendtoggle" pointer-events="all" x="0" y="-9.5" width="95.78125" height="19" style="cursor: pointer; fill: rgb(0, 0, 0); fill-opacity: 0;"/></g></g></g><rect class="scrollbar" rx="20" ry="3" width="0" height="0" x="0" y="0" style="fill: rgb(128, 139, 164); fill-opacity: 1;"/></g><g class="g-gtitle"><text class="gtitle" x="350" y="30" text-anchor="middle" dy="0em" style="font-family: 'Open Sans', verdana, arial, sans-serif; font-size: 17px; fill: rgb(68, 68, 68); opacity: 1; font-weight: normal; white-space: pre;">SAMPLE_PER_CLASS_100</text></g><g class="g-xtitle"/><g class="g-ytitle"/></g></svg>