<svg class="main-svg" xmlns="http://www.w3.org/2000/svg" xmlns:xlink="http://www.w3.org/1999/xlink" width="700" height="450" style="" viewBox="0 0 700 450"><rect x="0" y="0" width="700" height="450" style="fill: rgb(255, 255, 255); fill-opacity: 1;"/><defs id="defs-774d89"><g class="clips"><clipPath id="clip774d89xyplot" class="plotclip"><rect width="517" height="330"/></clipPath><clipPath class="axesclip" id="clip774d89x"><rect x="60" y="0" width="517" height="450"/></clipPath><clipPath class="axesclip" id="clip774d89y"><rect x="0" y="60" width="700" height="330"/></clipPath><clipPath class="axesclip" id="clip774d89xy"><rect x="60" y="60" width="517" height="330"/></clipPath></g><g class="gradients"/></defs><g class="bglayer"/><g class="layer-below"><g class="imagelayer"/><g class="shapelayer"/></g><g class="cartesianlayer"><g class="subplot xy"><g class="layer-subplot"><g class="shapelayer"/><g class="imagelayer"/></g><g class="gridlayer"><g class="x"><path class="xgrid crisp" transform="translate(189.31,0)" d="M0,60v330" style="stroke: rgb(238, 238, 238); stroke-opacity: 1; stroke-width: 1px;"/><path class="xgrid crisp" transform="translate(318.63,0)" d="M0,60v330" style="stroke: rgb(238, 238, 238); stroke-opacity: 1; stroke-width: 1px;"/><path class="xgrid crisp" transform="translate(447.94,0)" d="M0,60v330" style="stroke: rgb(238, 238, 238); stroke-opacity: 1; stroke-width: 1px;"/></g><g class="y"><path class="ygrid crisp" transform="translate(0,336.69)" d="M60,0h517" style="stroke: rgb(238, 238, 238); stroke-opacity: 1; stroke-width: 1px;"/><path class="ygrid crisp" transform="translate(0,299.66999999999996)" d="M60,0h517" style="stroke: rgb(238, 238, 238); stroke-opacity: 1; stroke-width: 1px;"/><path class="ygrid crisp" transform="translate(0,262.65999999999997)" d="M60,0h517" style="stroke: rgb(238, 238, 238); stroke-opacity: 1; stroke-width: 1px;"/><path class="ygrid crisp" transform="translate(0,225.64)" d="M60,0h517" style="stroke: rgb(238, 238, 238); stroke-opacity: 1; stroke-width: 1px;"/><path class="ygrid crisp" transform="translate(0,188.63)" d="M60,0h517" style="stroke: rgb(238, 238, 238); stroke-opacity: 1; stroke-width: 1px;"/><path class="ygrid crisp" transform="translate(0,151.61)" d="M60,0h517" style="stroke: rgb(238, 238, 238); stroke-opacity: 1; stroke-width: 1px;"/><path class="ygrid crisp" transform="translate(0,114.59)" d="M60,0h517" style="stroke: rgb(238, 238, 238); stroke-opacity: 1; stroke-width: 1px;"/><path class="ygrid crisp" transform="translate(0,77.58)" d="M60,0h517" style="stroke: rgb(238, 238, 238); stroke-opacity: 1; stroke-width: 1px;"/></g></g><g class="zerolinelayer"><path class="xzl zl crisp" transform="translate(60,0)" d="M0,60v330" style="stroke: rgb(68, 68, 68); stroke-opacity: 1; stroke-width: 1px;"/><path class="yzl zl crisp" transform="translate(0,373.71)" d="M60,0h517" style="stroke: rgb(68, 68, 68); stroke-opacity: 1; stroke-width: 1px;"/></g><path class="xlines-below"/><path class="ylines-below"/><g class="overlines-below"/><g class="xaxislayer-below"/><g class="yaxislayer-below"/><g class="overaxes-below"/><g class="plot" transform="translate(60, 60)" clip-path="url('#clip774d89xyplot')"><g class="scatterlayer mlayer"><g class="trace scatter traceb26692" style="stroke-miterlimit: 2; opacity: 1;"><g class="fills"/><g class="errorbars"/><g class="lines"><path class="js-line" d="M0,16.5L1.03,271.45L1.29,278.42L2.84,300.87L3.1,301.28L4.66,307.02L4.91,307.33L6.72,309.25L6.98,309.76L8.53,310.86L8.79,310.97L9.83,311.33L10.09,311.43L11.38,311.9L11.64,311.91L13.71,312.33L13.97,312.25L18.62,312.67L18.88,312.68L21.47,312.98L21.72,313.03L33.88,313.31L34.14,313.33L42.93,313.4L43.19,313.4L517,313.45" style="vector-effect: non-scaling-stroke; fill: none; stroke: rgb(31, 119, 180); stroke-opacity: 1; stroke-width: 2px; opacity: 1;"/></g><g class="points"/><g class="text"/></g><g class="trace scatter traceae5a47" style="stroke-miterlimit: 2; opacity: 1;"><g class="fills"/><g class="errorbars"/><g class="lines"><path class="js-line" d="M0,143.46L1.03,225.91L1.29,229.12L2.33,246L2.59,244.19L3.62,250.62L3.88,248.86L4.14,247.84L4.4,248.72L4.66,249.02L4.91,249.35L5.17,252.53L5.43,251.23L5.69,254.79L6.72,251.29L6.98,253.53L7.24,253.81L7.5,252.81L8.28,254.9L8.53,253.31L9.05,255.59L9.31,255L9.57,254.75L10.35,252.54L10.6,254.8L10.86,253.92L11.12,255.4L11.38,255.59L11.64,253.33L12.16,255.21L12.41,255.79L12.93,255.57L13.19,254.71L13.45,255.68L13.71,255.2L13.97,254.29L14.74,256.62L15,254.69L15.26,254.34L15.52,255.25L15.78,254.43L16.29,255.04L16.55,255.81L16.81,255.93L17.07,255.09L17.33,253.82L17.59,256.65L18.36,253.65L18.62,255.34L18.88,254.91L19.91,256.07L20.17,253.93L21.21,256.12L21.47,254.93L22.5,255.78L22.76,254.7L23.02,255.48L23.28,255.28L23.54,254.52L23.79,255.31L24.31,254.73L24.57,254.83L25.35,255.31L25.6,254.35L26.64,255.69L26.9,255.47L27.16,255.85L27.67,253.95L27.93,254.98L28.45,254.66L28.71,255.12L28.97,255.15L29.48,254.67L29.74,254.49L30.26,255.25L30.52,254.05L31.29,256.06L31.55,254.57L32.85,255.07L33.1,252.35L33.88,255.67L34.14,254.46L34.4,254.42L34.66,254.74L34.91,254.34L35.17,253.99L35.95,255.33L36.21,254.82L36.47,254.99L37.24,254.77L37.5,255.26L37.76,253.97L38.28,254.43L38.54,254.21L38.79,255.04L39.31,254.38L39.57,254.57L39.83,253.49L40.09,254.62L40.35,254.71L42.42,254.07L42.67,254.69L43.71,253.86L43.97,254.58L44.74,254.62L45,254.15L45.52,253.48L45.78,254.4L46.55,253.64L46.81,254.08L47.59,254.57L47.85,253.57L48.36,255.25L48.62,255.06L48.88,254.7L49.66,253.73L49.92,253.92L50.17,253.92L50.43,254.68L51.21,253.33L51.47,254.56L52.24,254.16L52.5,253.89L52.76,253.6L53.02,254.49L54.31,253.54L54.57,253.86L55.35,253.25L55.61,253.96L55.86,254.23L57.42,254.89L57.67,253.86L57.93,254.41L58.19,253.6L58.45,253.63L59.23,254.32L59.48,253.32L60.52,253.88L60.78,253.96L61.55,252.92L61.81,254.3L62.07,253.54L62.59,253.72L62.85,253.84L63.88,253.88L64.14,254.17L64.4,253.72L64.92,254.11L65.17,254.59L66.21,253.78L66.47,253.99L67.24,254.82L67.5,254.03L67.76,254.13L68.02,253.66L68.54,254.24L68.8,254.12L69.31,254.08L69.57,252.97L70.61,253.95L70.86,253.98L71.12,254.36L71.64,253.85L71.9,254.04L72.67,254.72L72.93,253.58L74.49,253.54L74.74,253.41L75.52,254.13L75.78,253.95L76.04,254.35L76.81,253.9L77.07,254.2L77.33,253.47L77.59,253.59L77.85,254.36L78.36,253.39L78.62,254.28L78.88,253.81L79.66,254.36L79.92,253.51L80.43,254.54L80.69,253.63L81.21,253.99L81.47,253.41L82.76,254.3L83.02,253.82L83.8,254.78L84.05,253.73L84.31,254.31L84.83,253.72L85.09,253.58L85.86,255.04L86.12,253.81L86.38,253.14L86.64,253.38L86.9,254.02L87.16,254.28L87.42,253.69L87.68,253.59L88.45,253.59L88.71,253.14L89.23,254.17L89.49,253.64L89.74,253.79L91.3,254.04L91.55,253.2L92.85,254.05L93.11,253.89L93.88,253.23L94.14,253.78L95.18,253.41L95.43,254.03L95.69,253.45L95.95,253.99L96.21,254.28L96.99,253.62L97.24,254.13L98.28,253.79L98.54,254L98.8,254.47L99.06,253.68L99.31,254.04L99.57,253.89L99.83,253.29L100.35,253.97L100.61,254.1L101.64,253.13L101.9,253.53L102.42,254.08L102.68,253.62L102.93,253.74L104.23,253.74L104.49,254.27L105.78,253.48L106.04,254.18L106.81,253.43L107.07,253.86L107.33,253.89L108.11,254.28L108.37,253.58L108.88,253.92L109.14,253.32L109.66,254.22L109.92,253.07L110.95,254.17L111.21,253.46L112.25,253.31L112.5,254.07L113.54,253.03L113.8,253.25L115.09,253.95L115.35,253.11L116.12,253.8L116.38,253.51L117.16,253.82L117.42,253.77L118.45,253.62L118.71,253.63L118.97,253.46L119.23,254.24L119.49,253.3L120,253.83L120.26,253.68L120.52,254.36L120.78,253.21L121.04,253.87L121.3,253.88L123.88,253.96L124.14,254.24L124.66,253.52L124.92,253.65L125.18,253.68L125.95,254L126.21,253.51L127.5,254.34L127.76,253.76L128.54,254.02L128.8,254.06L129.57,253.53L129.83,253.8L130.09,252.74L130.35,253.86L130.61,253.77L130.87,254.14L131.13,253.47L131.38,253.1L132.42,254.27L132.68,253.51L132.94,253.9L133.19,252.81L133.71,254.36L134.23,253.65L134.49,254.3L134.75,253.5L135,254.02L135.26,254.43L136.04,253.1L136.3,254.32L136.81,253.36L137.07,253.61L137.33,253.9L140.18,253.82L140.44,254.34L141.47,253.22L141.73,253.3L142.25,254.16L142.5,253.51L142.76,253.54L143.02,253.52L143.28,254.27L144.06,253.57L144.32,254.29L145.61,253.62L145.87,253.76L147.16,253.88L147.42,253.21L148.45,253.92L148.71,253.68L148.97,253.61L150.01,253.81L150.26,253.15L151.3,253.74L151.56,253.69L152.07,253.1L152.33,253.28L152.59,253.89L152.85,254.53L153.11,254.25L153.37,253.55L154.4,253.66L154.66,253.55L154.92,253.78L155.18,253.09L155.44,254.41L156.73,253.22L156.99,254.35L157.51,253.49L157.76,253.97L158.02,254.34L158.8,253.51L159.06,254.13L159.32,254.06L159.83,253.39L160.09,253.92L160.35,254.36L161.64,254.03L161.9,254.46L162.94,253.49L163.2,253.58L163.71,254.53L163.97,254.25L164.23,253.49L165.52,253.94L165.78,253.57L166.04,254.52L166.56,254.32L166.82,253.79L168.63,253.69L168.88,253.21L169.14,253.93L169.66,253.6L169.92,253.4L171.21,253.15L171.47,254.45L172.51,253.41L172.76,253.75L173.8,254.32L174.06,253.54L174.83,253.93L175.09,253.45L176.13,253.5L176.39,253.41L177.16,254.17L177.42,253.97L177.68,253.58L177.94,254.17L178.2,254.17L178.45,253.65L178.71,254.2L178.97,254.3L179.23,254.43L179.49,253.05L180.78,254.31L181.04,253.78L181.56,254.31L181.82,253.73L182.08,253.74L183.63,253.56L183.89,253.4L184.14,253.18L184.4,254.13L185.95,253.38L186.21,254.31L186.73,253.98L186.99,254.37L187.25,254.22L188.28,253.6L188.54,253.57L189.58,254.01L189.83,254.05L190.09,253.42L190.35,253.86L190.61,254.16L191.64,253.01L191.9,253.29L192.16,253.89L193.45,253.57L193.71,253.92L195.27,253.41L195.52,254.18L198.11,253.83L198.37,254.67L199.14,252.98L199.4,253.82L200.95,253.67L201.21,253.96L201.73,252.88L201.99,253.89L202.25,253.63L202.51,254.06L202.77,253.72L203.02,253L203.54,254.18L203.8,253.62L204.06,253.87L204.83,254.26L205.09,253.26L205.35,254.07L205.61,253.67L205.87,253.09L206.13,253.82L206.39,253.6L206.64,253.01L207.16,254.05L207.68,253.73L207.94,253.83L209.75,253.91L210.01,253.32L210.27,253.49L210.52,253L210.78,254.09L211.04,252.99L211.56,253.65L211.82,253.38L213.11,254.19L213.37,253.4L215.44,253.73L215.7,253.58L216.21,253.37L216.47,254.23L216.73,253.33L217.25,254.12L217.51,254.06L219.06,253.11L219.32,253.91L219.58,253.28L219.83,253.78L220.09,254.19L221.13,253.84L221.39,253.66L223.2,254.21L223.46,253.68L224.75,253.34L225.01,253.85L225.78,253.91L226.04,253.55L227.08,254.56L227.34,253.9L228.37,253.29L228.63,253.58L228.89,253.24L229.15,254.17L230.18,253.59L230.44,253.23L231.99,254.11L232.25,254.02L233.54,254.11L233.8,254.41L234.84,253.22L235.09,254.18L235.35,252.79L235.61,254.35L235.87,254.24L236.65,253.91L236.9,254.15L238.2,254.01L238.46,254.1L243.37,253.54L243.63,253.18L243.89,254.42L244.4,253.95L244.66,254.09L245.44,253.6L245.7,253.85L245.96,253.7L246.73,253.98L246.99,254.04L247.25,253.34L247.77,253.59L248.03,254.11L248.8,253.66L249.06,253.97L249.84,253.61L250.09,254.31L250.87,253.16L251.13,253.76L253.72,254.45L253.97,253.55L254.49,252.9L254.75,254.39L255.78,252.89L256.04,254.24L256.56,253.57L256.82,254.27L257.08,253.7L258.11,254.39L258.37,253.14L258.63,254.63L259.15,253.76L259.41,254.03L259.92,253.86L260.18,254.31L261.22,253.92L261.47,254.02L262.51,253.35L262.77,254.16L264.58,253.28L264.84,254L265.87,253.44L266.13,254.43L267.94,253.43L268.2,254L268.97,253.2L269.23,253.88L270.01,253.63L270.27,253.98L271.56,253.5L271.82,253.72L272.08,253.1L272.34,253.53L272.6,253.95L272.85,254.29L273.11,254.04L273.37,253.59L273.63,254.29L273.89,253.84L274.15,253.36L275.18,253.89L275.44,253.75L275.7,253.44L275.96,254.28L276.22,254.06L277.51,253.29L277.77,253.79L278.8,253.6L279.06,254.14L279.58,253.49L280.1,253.85L280.35,253.8L281.39,253.95L281.65,254.19L282.42,253.77L282.68,254.3L283.72,252.65L283.97,253.74L285.01,253.77L285.27,253.72L285.53,253.01L285.79,254.31L286.04,254.38L287.08,253.4L287.34,253.8L288.37,254.12L288.63,253.4L289.92,254.23L290.18,254.01L291.22,253L291.48,253.74L292.25,254.01L292.51,253.49L293.54,254.1L293.8,253.31L294.58,254.05L294.84,253.3L296.65,253.66L296.91,253.37L298.98,253.71L299.23,253.56L299.49,252.85L299.75,253.2L300.01,254.25L301.3,253.66L301.56,253.84L301.82,253.38L302.08,254.06L302.34,254.13L303.63,253.5L303.89,253.84L304.41,254.46L304.67,253.7L305.7,254.32L305.96,253.48L306.73,253.7L306.99,253.32L308.03,253.35L308.29,253.81L308.54,253.47L308.8,254.36L309.06,254.4L309.32,253.3L309.84,254.21L310.1,253.69L311.91,253.4L312.17,254.28L312.68,252.82L312.94,253.73L313.2,254.14L313.46,253.42L313.72,254L313.98,254.34L314.49,253.24L314.75,253.59L315.01,253.88L315.27,253.78L315.53,252.8L316.56,254.2L316.82,254.17L317.86,253.01L318.11,253.48L318.37,254.09L319.41,253L319.67,253.74L320.18,253.2L320.7,254.51L320.96,253.59L321.48,254.5L321.73,253.11L322.51,254.1L322.77,253.5L323.55,253.21L323.8,254.19L324.84,253.24L325.1,253.83L325.36,254.33L325.61,253.73L325.87,253.56L326.65,253.62L326.91,254.19L327.42,253.01L327.68,253.45L327.94,253.17L328.72,254.49L328.98,253.86L329.24,253.4L329.75,253.89L330.01,253.04L330.27,254.03L330.79,253.46L331.05,252.82L332.34,254.45L332.6,254.01L332.86,253.25L333.11,253.69L333.37,254.3L334.67,253.83L334.92,254.02L336.22,253.83L336.48,254.29L337.51,253.46L337.77,254.29L338.55,253.85L338.8,254.17L339.06,254.26L339.32,253.49L340.36,254.4L340.61,253.67L340.87,253.35L341.13,253.64L341.39,254.03L342.17,253.37L342.43,254.06L343.46,253.09L343.72,254L343.98,254.19L344.24,253.59L344.49,253.51L345.27,253.73L345.53,252.89L345.79,254.19L346.3,253.7L346.56,253.51L347.08,254.37L347.34,253.64L347.6,253.42L348.12,254.29L348.37,253.16L349.41,253.95L349.67,253.56L349.93,253.61L350.96,254.46L351.22,253.81L351.48,254.26L351.99,253.77L352.25,254.02L352.51,253.16L353.03,253.45L353.29,253.59L353.55,253.35L353.8,254.21L354.06,254.34L354.32,253.39L355.36,253.76L355.62,253.65L356.65,253.83L356.91,254.06L357.43,253.41L357.68,253.98L357.94,253.81L358.98,253.28L359.24,253.09L360.01,254.13L360.27,253.58L360.53,253.8L363.12,253.98L363.37,253.36L365.18,254.22L365.44,253.49L366.48,253.81L366.74,253.68L367.51,253.54L367.77,254.68L369.06,253.46L369.32,253.6L370.36,253.73L370.62,254.07L371.65,253.52L371.91,253.9L372.94,253.75L373.2,254.09L374.5,253.61L374.75,253.92L375.27,253.39L375.53,254.14L376.31,254.11L376.56,253.19L377.6,254.05L377.86,253.27L378.12,254.61L378.63,253.75L378.89,253.73L380.19,253.97L380.44,253.38L380.96,253.99L381.22,253.62L381.48,253.83L382.51,253.31L382.77,253.83L383.55,253.94L383.81,253.34L384.58,254.1L384.84,253.81L385.62,254.45L385.87,253.55L386.65,253.85L386.91,253.66L387.17,254.22L387.43,253.75L387.69,253.36L387.94,252.95L388.2,253.84L388.46,253.43L388.72,254.16L389.75,253.43L390.01,254.3L391.31,254.04L391.56,253.21L391.82,253.9L392.34,253.41L392.6,253.33L393.63,253.73L393.89,253.83L396.48,253.56L396.74,252.92L397.51,254.28L397.77,253.7L398.03,253.59L399.58,254.05L399.84,253.3L400.88,253.81L401.13,253.53L402.43,254.42L402.69,253.66L402.94,254.27L403.46,253.62L403.72,253.4L404.75,253.74L405.01,253.52L405.27,254.05L405.79,253.42L406.05,253.62L406.57,254.3L406.82,253.28L407.86,254.26L408.12,253.95L408.38,253.99L408.63,252.91L409.67,254.52L409.93,253.7L410.19,253.11L410.7,253.64L410.96,254.05L412,253.47L412.26,252.96L413.03,254.34L413.29,253.45L413.81,253.33L414.07,254.1L414.84,253.22L415.1,253.78L415.36,254.13L415.62,253.65L415.88,253.3L416.65,254.32L416.91,253.56L417.17,253.02L417.43,253.82L417.69,254.22L418.46,253.72L418.72,254.12L419.76,253L420.01,253.77L421.31,253.19L421.57,253.88L422.86,253.6L423.12,253.91L425.19,253.52L425.45,253.87L426.48,253.67L426.74,254.29L427.77,253.1L428.03,254.02L428.55,253.92L428.81,254.4L429.84,253.39L430.1,254.01L430.88,253.47L431.14,253.49L431.39,253.25L431.65,254.49L432.69,253.68L432.95,253.6L433.46,253.12L433.72,254.18L433.98,253.82L434.76,253.57L435.01,253.05L436.05,254.08L436.31,253.27L437.34,254.13L437.6,253.2L438.64,254.39L438.89,253.61L439.41,253.93L439.67,253.75L439.93,253.5L442.51,253.52L442.77,254.17L443.55,253.37L443.81,254.2L444.33,253.75L444.58,254.14L444.84,254.11L446.39,253.52L446.65,254.15L447.95,253.52L448.2,253.76L450.53,253.99L450.79,253.48L451.31,254.12L451.57,253.66L451.83,253.64L452.34,253.33L452.6,254.17L452.86,254.11L454.41,253.77L454.67,253.36L455.19,253.97L455.45,253.1L455.96,254.04L456.48,253.83L456.74,253.39L457.26,254.11L457.52,253.34L457.77,253.57L458.55,254L458.81,253.12L459.07,254.11L459.58,253.33L459.84,253.79L460.62,253.88L460.88,254.19L461.14,253.09L461.65,253.83L461.91,253.84L462.95,253.91L463.21,253.88L463.46,253.17L463.98,253.56L464.24,253.44L464.5,254.22L465.02,253.71L465.27,254.08L466.31,253.5L466.57,253.32L467.86,254.46L468.12,253.39L469.41,254.63L469.67,253.53L470.19,252.94L470.45,253.84L471.48,253.53L471.74,253.33L472.77,254.07L473.03,253.47L474.07,253.97L474.33,253.46L474.58,254.11L475.1,253.73L475.36,252.81L475.62,254.08L476.14,253.58L476.4,253.86L476.91,253.08L477.43,253.62L477.69,254.14L478.98,252.63L479.24,253.54L479.5,252.7L479.76,253.27L480.02,253.86L480.27,253.38L480.79,253.74L481.05,254.22L481.57,252.99L481.83,254.35L483.12,253.33L483.38,254.21L484.93,253.51L485.19,254.09L485.45,254.46L485.71,253.52L487.77,253.95L488.03,253.29L488.55,254.08L488.81,253.14L489.33,253.78L489.59,253.61L489.84,253.68L491.4,254.16L491.65,254.16L492.95,253.59L493.21,254.39L493.98,253.51L494.24,254.49L494.76,253.42L495.02,253.56L495.28,253.86L496.31,253.4L496.57,253.26L497.34,254.28L497.6,253.82L499.15,253.72L499.41,254.35L499.93,253.29L500.45,253.49L500.71,253.71L504.59,253.9L504.84,253.35L505.1,254.08L505.62,253.31L505.88,253.67L507.43,253.43L507.69,253.95L508.21,253.22L508.47,254.03L510.28,253.56L510.53,253.72L511.57,253.5L511.83,254.11L513.38,253.1L513.64,253.55L513.9,253.85L514.16,253.49L514.41,253.14L515.19,254.04L515.45,253.55L516.22,254.15L516.48,254.05L517,253.38" style="vector-effect: non-scaling-stroke; fill: none; stroke: rgb(255, 127, 14); stroke-opacity: 1; stroke-width: 2px; opacity: 1;"/></g><g class="points"/><g class="text"/></g><g class="trace scatter trace944b33" style="stroke-miterlimit: 2; opacity: 1;"><g class="fills"/><g class="errorbars"/><g class="lines"><path class="js-line" d="M0,188.57L0.78,160.19L1.03,161.12L1.29,159.14L2.33,152.09L2.59,153.59L3.62,150.89L3.88,151.96L4.66,151.6L4.91,151.33L5.69,149.21L5.95,149.84L6.21,150.58L7.24,149.15L7.5,149.72L8.28,148.52L8.53,149.18L9.05,148.24L9.31,148.64L9.57,148.6L10.35,149.28L10.6,148.38L10.86,148.61L11.12,148.17L11.38,148.05L11.64,148.82L12.16,148.02L12.41,147.77L14.48,147.77L14.74,147.42L15.78,147.94L16.04,147.71L17.33,148.16L17.59,147.35L18.88,147.54L19.14,147.29L20.43,147.53L20.69,147.36L21.72,147.37L21.98,147.37L24.05,147.26L24.31,147.36L26.9,147.1L27.16,146.92L28.45,147.26L28.71,147.1L32.85,146.96L33.1,147.83L33.88,146.71L34.14,147.08L34.4,147.04L37.5,146.72L37.76,146.98L38.79,146.73L39.05,147.01L40.86,146.76L41.12,146.71L42.42,146.91L42.67,146.84L44.74,146.73L45,146.88L46.55,146.96L46.81,146.81L49.4,146.97L49.66,146.93L58.97,146.61L59.23,146.77L60.52,146.76L60.78,146.69L61.81,146.82L62.07,146.77L64.66,146.83L64.92,146.79L65.95,146.58L66.21,146.88L67.76,146.68L68.02,146.74L70.09,146.76L70.35,146.86L72.16,146.56L72.42,146.72L73.45,146.7L73.71,146.69L76.81,146.75L77.07,146.57L78.36,146.78L78.62,146.68L80.18,146.76L80.43,146.6L81.73,146.83L81.99,146.81L84.05,146.81L84.31,146.67L87.42,146.81L87.68,146.82L96.21,146.63L96.47,146.78L97.76,146.67L98.02,146.74L102.16,146.72L102.42,146.63L103.97,146.82L104.23,146.78L105.26,146.73L105.52,146.77L107.33,146.69L107.59,146.72L517,146.84" style="vector-effect: non-scaling-stroke; fill: none; stroke: rgb(44, 160, 44); stroke-opacity: 1; stroke-width: 2px; opacity: 1;"/></g><g class="points"/><g class="text"/></g></g></g><g class="overplot"/><path class="xlines-above crisp" d="M0,0" style="fill: none;"/><path class="ylines-above crisp" d="M0,0" style="fill: none;"/><g class="overlines-above"/><g class="xaxislayer-above"><g class="xtick"><text text-anchor="middle" x="0" y="403" transform="translate(60,0)" style="font-family: 'Open Sans', verdana, arial, sans-serif; font-size: 12px; fill: rgb(68, 68, 68); fill-opacity: 1; white-space: pre;">0</text></g><g class="xtick"><text text-anchor="middle" x="0" y="403" transform="translate(189.31,0)" style="font-family: 'Open Sans', verdana, arial, sans-serif; font-size: 12px; fill: rgb(68, 68, 68); fill-opacity: 1; white-space: pre;">500</text></g><g class="xtick"><text text-anchor="middle" x="0" y="403" transform="translate(318.63,0)" style="font-family: 'Open Sans', verdana, arial, sans-serif; font-size: 12px; fill: rgb(68, 68, 68); fill-opacity: 1; white-space: pre;">1000</text></g><g class="xtick"><text text-anchor="middle" x="0" y="403" transform="translate(447.94,0)" style="font-family: 'Open Sans', verdana, arial, sans-serif; font-size: 12px; fill: rgb(68, 68, 68); fill-opacity: 1; white-space: pre;">1500</text></g></g><g class="yaxislayer-above"><g class="ytick"><text text-anchor="end" x="59" y="4.199999999999999" transform="translate(0,373.71)" style="font-family: 'Open Sans', verdana, arial, sans-serif; font-size: 12px; fill: rgb(68, 68, 68); fill-opacity: 1; white-space: pre;">0</text></g><g class="ytick"><text text-anchor="end" x="59" y="4.199999999999999" transform="translate(0,336.69)" style="font-family: 'Open Sans', verdana, arial, sans-serif; font-size: 12px; fill: rgb(68, 68, 68); fill-opacity: 1; white-space: pre;">0.2</text></g><g class="ytick"><text text-anchor="end" x="59" y="4.199999999999999" transform="translate(0,299.66999999999996)" style="font-family: 'Open Sans', verdana, arial, sans-serif; font-size: 12px; fill: rgb(68, 68, 68); fill-opacity: 1; white-space: pre;">0.4</text></g><g class="ytick"><text text-anchor="end" x="59" y="4.199999999999999" transform="translate(0,262.65999999999997)" style="font-family: 'Open Sans', verdana, arial, sans-serif; font-size: 12px; fill: rgb(68, 68, 68); fill-opacity: 1; white-space: pre;">0.6</text></g><g class="ytick"><text text-anchor="end" x="59" y="4.199999999999999" transform="translate(0,225.64)" style="font-family: 'Open Sans', verdana, arial, sans-serif; font-size: 12px; fill: rgb(68, 68, 68); fill-opacity: 1; white-space: pre;">0.8</text></g><g class="ytick"><text text-anchor="end" x="59" y="4.199999999999999" transform="translate(0,188.63)" style="font-family: 'Open Sans', verdana, arial, sans-serif; font-size: 12px; fill: rgb(68, 68, 68); fill-opacity: 1; white-space: pre;">1</text></g><g class="ytick"><text text-anchor="end" x="59" y="4.199999999999999" transform="translate(0,151.61)" style="font-family: 'Open Sans', verdana, arial, sans-serif; font-size: 12px; fill: rgb(68, 68, 68); fill-opacity: 1; white-space: pre;">1.2</text></g><g class="ytick"><text text-anchor="end" x="59" y="4.199999999999999" transform="translate(0,114.59)" style="font-family: 'Open Sans', verdana, arial, sans-serif; font-size: 12px; fill: rgb(68, 68, 68); fill-opacity: 1; white-space: pre;">1.4</text></g><g class="ytick"><text text-anchor="end" x="59" y="4.199999999999999" transform="translate(0,77.58)" style="font-family: 'Open Sans', verdana, arial, sans-serif; font-size: 12px; fill: rgb(68, 68, 68); fill-opacity: 1; white-space: pre;">1.6</text></g></g><g class="overaxes-above"/></g></g><g class="polarlayer"/><g class="ternarylayer"/><g class="geolayer"/><g class="funnelarealayer"/><g class="pielayer"/><g class="treemaplayer"/><g class="sunburstlayer"/><g class="glimages"/><defs id="topdefs-774d89"><g class="clips"/><clipPath id="legend774d89"><rect width="101" height="67" x="0" y="0"/></clipPath></defs><g class="layer-above"><g class="imagelayer"/><g class="shapelayer"/></g><g class="infolayer"><g class="legend" pointer-events="all" transform="translate(587.34, 60)"><rect class="bg" shape-rendering="crispEdges" width="101" height="67" x="0" y="0" style="stroke: rgb(68, 68, 68); stroke-opacity: 1; fill: rgb(255, 255, 255); fill-opacity: 1; stroke-width: 0px;"/><g class="scrollbox" transform="translate(0, 0)" clip-path="url('#legend774d89')"><g class="groups"><g class="traces" transform="translate(0, 14.5)" style="opacity: 1;"><text class="legendtext" text-anchor="start" x="40" y="4.680000000000001" style="font-family: 'Open Sans', verdana, arial, sans-serif; font-size: 12px; fill: rgb(68, 68, 68); fill-opacity: 1; white-space: pre;">train loss</text><g class="layers" style="opacity: 1;"><g class="legendfill"/><g class="legendlines"><path class="js-line" d="M5,0h30" style="fill: none; stroke: rgb(31, 119, 180); stroke-opacity: 1; stroke-width: 2px;"/></g><g class="legendsymbols"><g class="legendpoints"/></g></g><rect class="legendtoggle" pointer-events="all" x="0" y="-9.5" width="95.78125" height="19" style="cursor: pointer; fill: rgb(0, 0, 0); fill-opacity: 0;"/></g><g class="traces" transform="translate(0, 33.5)" style="opacity: 1;"><text class="legendtext" text-anchor="start" x="40" y="4.680000000000001" style="font-family: 'Open Sans', verdana, arial, sans-serif; font-size: 12px; fill: rgb(68, 68, 68); fill-opacity: 1; white-space: pre;">test loss</text><g class="layers" style="opacity: 1;"><g class="legendfill"/><g class="legendlines"><path class="js-line" d="M5,0h30" style="fill: none; stroke: rgb(255, 127, 14); stroke-opacity: 1; stroke-width: 2px;"/></g><g class="legendsymbols"><g class="legendpoints"/></g></g><rect class="legendtoggle" pointer-events="all" x="0" y="-9.5" width="95.78125" height="19" style="cursor: pointer; fill: rgb(0, 0, 0); fill-opacity: 0;"/></g><g class="traces" transform="translate(0, 52.5)" style="opacity: 1;"><text class="legendtext" text-anchor="start" x="40" y="4.680000000000001" style="font-family: 'Open Sans', verdana, arial, sans-serif; font-size: 12px; fill: rgb(68, 68, 68); fill-opacity: 1; white-space: pre;">acc</text><g class="layers" style="opacity: 1;"><g class="legendfill"/><g class="legendlines"><path class="js-line" d="M5,0h30" style="fill: none; stroke: rgb(44, 160, 44); stroke-opacity: 1; stroke-width: 2px;"/></g><g class="legendsymbols"><g class="legendpoints"/></g></g><rect class="legendtoggle" pointer-events="all" x="0" y="-9.5" width="95.78125" height="19" style="cursor: pointer; fill: rgb(0, 0, 0); fill-opacity: 0;"/></g></g></g><rect class="scrollbar" rx="20" ry="3" width="0" height="0" x="0" y="0" style="fill: rgb(128, 139, 164); fill-opacity: 1;"/></g><g class="g-gtitle"><text class="gtitle" x="350" y="30" text-anchor="middle" dy="0em" style="font-family: 'Open Sans', verdana, arial, sans-serif; font-size: 17px; fill: rgb(68, 68, 68); opacity: 1; font-weight: normal; white-space: pre;">SAMPLE_PER_CLASS_50</text></g><g class="g-xtitle"/><g class="g-ytitle"/></g></svg>