<svg class="main-svg" xmlns="http://www.w3.org/2000/svg" xmlns:xlink="http://www.w3.org/1999/xlink" width="700" height="450" style="" viewBox="0 0 700 450"><rect x="0" y="0" width="700" height="450" style="fill: rgb(255, 255, 255); fill-opacity: 1;"/><defs id="defs-b84ad7"><g class="clips"><clipPath id="clipb84ad7xyplot" class="plotclip"><rect width="517" height="330"/></clipPath><clipPath class="axesclip" id="clipb84ad7x"><rect x="60" y="0" width="517" height="450"/></clipPath><clipPath class="axesclip" id="clipb84ad7y"><rect x="0" y="60" width="700" height="330"/></clipPath><clipPath class="axesclip" id="clipb84ad7xy"><rect x="60" y="60" width="517" height="330"/></clipPath></g><g class="gradients"/></defs><g class="bglayer"/><g class="layer-below"><g class="imagelayer"/><g class="shapelayer"/></g><g class="cartesianlayer"><g class="subplot xy"><g class="layer-subplot"><g class="shapelayer"/><g class="imagelayer"/></g><g class="gridlayer"><g class="x"><path class="xgrid crisp" transform="translate(189.31,0)" d="M0,60v330" style="stroke: rgb(238, 238, 238); stroke-opacity: 1; stroke-width: 1px;"/><path class="xgrid crisp" transform="translate(318.63,0)" d="M0,60v330" style="stroke: rgb(238, 238, 238); stroke-opacity: 1; stroke-width: 1px;"/><path class="xgrid crisp" transform="translate(447.94,0)" d="M0,60v330" style="stroke: rgb(238, 238, 238); stroke-opacity: 1; stroke-width: 1px;"/></g><g class="y"><path class="ygrid crisp" transform="translate(0,319.23)" d="M60,0h517" style="stroke: rgb(238, 238, 238); stroke-opacity: 1; stroke-width: 1px;"/><path class="ygrid crisp" transform="translate(0,264.23)" d="M60,0h517" style="stroke: rgb(238, 238, 238); stroke-opacity: 1; stroke-width: 1px;"/><path class="ygrid crisp" transform="translate(0,209.24)" d="M60,0h517" style="stroke: rgb(238, 238, 238); stroke-opacity: 1; stroke-width: 1px;"/><path class="ygrid crisp" transform="translate(0,154.24)" d="M60,0h517" style="stroke: rgb(238, 238, 238); stroke-opacity: 1; stroke-width: 1px;"/><path class="ygrid crisp" transform="translate(0,99.24000000000001)" d="M60,0h517" style="stroke: rgb(238, 238, 238); stroke-opacity: 1; stroke-width: 1px;"/></g></g><g class="zerolinelayer"><path class="xzl zl crisp" transform="translate(60,0)" d="M0,60v330" style="stroke: rgb(68, 68, 68); stroke-opacity: 1; stroke-width: 1px;"/><path class="yzl zl crisp" transform="translate(0,374.23)" d="M60,0h517" style="stroke: rgb(68, 68, 68); stroke-opacity: 1; stroke-width: 1px;"/></g><path class="xlines-below"/><path class="ylines-below"/><g class="overlines-below"/><g class="xaxislayer-below"/><g class="yaxislayer-below"/><g class="overaxes-below"/><g class="plot" transform="translate(60, 60)" clip-path="url('#clipb84ad7xyplot')"><g class="scatterlayer mlayer"><g class="trace scatter traced23a58" style="stroke-miterlimit: 2; opacity: 1;"><g class="fills"/><g class="errorbars"/><g class="lines"><path class="js-line" d="M0,16.5L1.03,269.2L1.29,278.76L2.59,299.67L2.84,300.43L4.91,307.47L5.17,307.35L6.21,308.87L6.47,309.21L6.72,308.92L6.98,309.65L7.24,309.77L8.02,310.69L8.28,310.38L8.53,310.74L10.6,311.54L10.86,311.67L23.28,312.89L23.54,312.65L25.6,312.97L25.86,313.02L27.93,312.92L28.19,313.16L30.78,313.09L31.04,313.18L517,313.36" style="vector-effect: non-scaling-stroke; fill: none; stroke: rgb(31, 119, 180); stroke-opacity: 1; stroke-width: 2px; opacity: 1;"/></g><g class="points"/><g class="text"/></g><g class="trace scatter traceedcb91" style="stroke-miterlimit: 2; opacity: 1;"><g class="fills"/><g class="errorbars"/><g class="lines"><path class="js-line" d="M0,89.34L1.03,215.57L1.29,220.39L3.1,234.04L3.36,234.88L3.88,238.84L4.4,238.33L4.66,238.83L5.43,241.18L5.69,240.75L5.95,240.66L6.72,242.25L6.98,241.63L7.24,241.61L8.28,243.13L8.53,242.16L8.79,242.14L9.05,243.28L9.57,244.12L9.83,244.02L10.09,242.91L10.86,244.53L11.12,243.62L11.64,243.84L11.9,244.05L12.41,243.54L12.67,243.18L13.97,244.9L14.22,244.58L15,244.98L15.26,244.94L16.29,244.93L16.55,245.51L17.59,244.52L17.85,245.21L18.88,245.14L19.14,244.81L20.69,244.71L20.95,245.01L21.72,245.92L21.98,245.76L22.24,245.57L22.76,245.25L23.02,245.08L27.41,245.61L27.67,245.95L29.48,245.73L29.74,245.57L31.04,245.7L31.29,245.55L42.42,245.67L42.67,245.92L43.97,246.19L44.23,245.96L53.54,245.89L53.79,246.02L55.09,245.65L55.35,245.69L58.45,245.68L58.71,245.93L67.24,245.68L67.5,246.1L69.31,245.91L69.57,245.9L70.86,245.77L71.12,245.86L72.42,245.83L72.67,246.03L74.49,245.83L74.74,245.85L78.62,245.74L78.88,245.88L80.43,246.07L80.69,245.85L81.73,245.91L81.99,245.88L85.61,245.47L85.86,245.85L87.93,246L88.19,245.87L92.59,246.08L92.85,245.99L95.95,246.04L96.21,245.86L102.68,246.12L102.93,245.91L105.26,245.88L105.52,246.02L107.59,245.79L107.85,246.03L110.69,245.92L110.95,246.09L113.54,245.9L113.8,246.11L115.61,245.86L115.87,245.72L123.88,246L124.14,246.01L125.18,245.86L125.44,245.92L126.21,245.6L126.47,245.9L126.73,245.93L128.02,245.86L128.28,246.01L130.09,246.03L130.35,245.86L145.61,246.04L145.87,245.77L147.68,246.15L147.94,246.04L149.75,245.87L150.01,245.78L161.9,245.8L162.16,245.78L163.2,245.89L163.45,246.02L166.3,245.91L166.56,245.72L168.11,245.94L168.37,246.04L169.92,245.77L170.18,245.66L172.25,245.93L172.51,245.8L420.53,246.03L420.79,246.33L422.08,245.85L422.34,245.94L424.93,245.89L425.19,246.13L427.77,245.63L428.03,245.94L431.14,246.03L431.39,245.79L432.95,245.95L433.2,246.07L517,245.64" style="vector-effect: non-scaling-stroke; fill: none; stroke: rgb(255, 127, 14); stroke-opacity: 1; stroke-width: 2px; opacity: 1;"/></g><g class="points"/><g class="text"/></g><g class="trace scatter tracedcdba9" style="stroke-miterlimit: 2; opacity: 1;"><g class="fills"/><g class="errorbars"/><g class="lines"><path class="js-line" d="M0,280.29L1.03,237.55L1.29,236.57L2.84,232.47L3.1,232.49L3.62,231.54L3.88,230.82L4.14,231.51L4.66,231.07L4.91,230.65L6.72,229.91L6.98,230.23L8.79,230L9.05,229.68L9.83,229.45L10.09,229.74L10.86,229.35L11.12,229.68L11.38,229.6L13.97,229.01L14.22,229.13L17.07,228.97L17.33,229.07L25.6,228.65L25.86,228.67L32.33,228.43L32.59,228.39L35.43,228.45L35.69,228.4L41.64,228.35L41.9,228.3L43.71,228.28L43.97,228.25L46.55,228.21L46.81,228.19L48.88,228.29L49.14,228.34L51.47,228.23L51.73,228.27L58.19,228.31L58.45,228.29L61.81,228.24L62.07,228.33L71.12,228.29L71.38,228.38L74.74,228.29L75,228.33L79.4,228.22L79.66,228.28L96.99,228.27L97.24,228.25L99.57,228.27L99.83,228.2L103.97,228.24L104.23,228.25L122.07,228.24L122.33,228.2L125.69,228.34L125.95,228.3L129.57,228.26L129.83,228.25L517,228.38" style="vector-effect: non-scaling-stroke; fill: none; stroke: rgb(44, 160, 44); stroke-opacity: 1; stroke-width: 2px; opacity: 1;"/></g><g class="points"/><g class="text"/></g></g></g><g class="overplot"/><path class="xlines-above crisp" d="M0,0" style="fill: none;"/><path class="ylines-above crisp" d="M0,0" style="fill: none;"/><g class="overlines-above"/><g class="xaxislayer-above"><g class="xtick"><text text-anchor="middle" x="0" y="403" transform="translate(60,0)" style="font-family: 'Open Sans', verdana, arial, sans-serif; font-size: 12px; fill: rgb(68, 68, 68); fill-opacity: 1; white-space: pre;">0</text></g><g class="xtick"><text text-anchor="middle" x="0" y="403" transform="translate(189.31,0)" style="font-family: 'Open Sans', verdana, arial, sans-serif; font-size: 12px; fill: rgb(68, 68, 68); fill-opacity: 1; white-space: pre;">500</text></g><g class="xtick"><text text-anchor="middle" x="0" y="403" transform="translate(318.63,0)" style="font-family: 'Open Sans', verdana, arial, sans-serif; font-size: 12px; fill: rgb(68, 68, 68); fill-opacity: 1; white-space: pre;">1000</text></g><g class="xtick"><text text-anchor="middle" x="0" y="403" transform="translate(447.94,0)" style="font-family: 'Open Sans', verdana, arial, sans-serif; font-size: 12px; fill: rgb(68, 68, 68); fill-opacity: 1; white-space: pre;">1500</text></g></g><g class="yaxislayer-above"><g class="ytick"><text text-anchor="end" x="59" y="4.199999999999999" transform="translate(0,374.23)" style="font-family: 'Open Sans', verdana, arial, sans-serif; font-size: 12px; fill: rgb(68, 68, 68); fill-opacity: 1; white-space: pre;">0</text></g><g class="ytick"><text text-anchor="end" x="59" y="4.199999999999999" transform="translate(0,319.23)" style="font-family: 'Open Sans', verdana, arial, sans-serif; font-size: 12px; fill: rgb(68, 68, 68); fill-opacity: 1; white-space: pre;">0.5</text></g><g class="ytick"><text text-anchor="end" x="59" y="4.199999999999999" transform="translate(0,264.23)" style="font-family: 'Open Sans', verdana, arial, sans-serif; font-size: 12px; fill: rgb(68, 68, 68); fill-opacity: 1; white-space: pre;">1</text></g><g class="ytick"><text text-anchor="end" x="59" y="4.199999999999999" transform="translate(0,209.24)" style="font-family: 'Open Sans', verdana, arial, sans-serif; font-size: 12px; fill: rgb(68, 68, 68); fill-opacity: 1; white-space: pre;">1.5</text></g><g class="ytick"><text text-anchor="end" x="59" y="4.199999999999999" transform="translate(0,154.24)" style="font-family: 'Open Sans', verdana, arial, sans-serif; font-size: 12px; fill: rgb(68, 68, 68); fill-opacity: 1; white-space: pre;">2</text></g><g class="ytick"><text text-anchor="end" x="59" y="4.199999999999999" transform="translate(0,99.24000000000001)" style="font-family: 'Open Sans', verdana, arial, sans-serif; font-size: 12px; fill: rgb(68, 68, 68); fill-opacity: 1; white-space: pre;">2.5</text></g></g><g class="overaxes-above"/></g></g><g class="polarlayer"/><g class="ternarylayer"/><g class="geolayer"/><g class="funnelarealayer"/><g class="pielayer"/><g class="treemaplayer"/><g class="sunburstlayer"/><g class="glimages"/><defs id="topdefs-b84ad7"><g class="clips"/><clipPath id="legendb84ad7"><rect width="101" height="67" x="0" y="0"/></clipPath></defs><g class="layer-above"><g class="imagelayer"/><g class="shapelayer"/></g><g class="infolayer"><g class="legend" pointer-events="all" transform="translate(587.34, 60)"><rect class="bg" shape-rendering="crispEdges" width="101" height="67" x="0" y="0" style="stroke: rgb(68, 68, 68); stroke-opacity: 1; fill: rgb(255, 255, 255); fill-opacity: 1; stroke-width: 0px;"/><g class="scrollbox" transform="translate(0, 0)" clip-path="url('#legendb84ad7')"><g class="groups"><g class="traces" transform="translate(0, 14.5)" style="opacity: 1;"><text class="legendtext" text-anchor="start" x="40" y="4.680000000000001" style="font-family: 'Open Sans', verdana, arial, sans-serif; font-size: 12px; fill: rgb(68, 68, 68); fill-opacity: 1; white-space: pre;">train loss</text><g class="layers" style="opacity: 1;"><g class="legendfill"/><g class="legendlines"><path class="js-line" d="M5,0h30" style="fill: none; stroke: rgb(31, 119, 180); stroke-opacity: 1; stroke-width: 2px;"/></g><g class="legendsymbols"><g class="legendpoints"/></g></g><rect class="legendtoggle" pointer-events="all" x="0" y="-9.5" width="95.78125" height="19" style="cursor: pointer; fill: rgb(0, 0, 0); fill-opacity: 0;"/></g><g class="traces" transform="translate(0, 33.5)" style="opacity: 1;"><text class="legendtext" text-anchor="start" x="40" y="4.680000000000001" style="font-family: 'Open Sans', verdana, arial, sans-serif; font-size: 12px; fill: rgb(68, 68, 68); fill-opacity: 1; white-space: pre;">test loss</text><g class="layers" style="opacity: 1;"><g class="legendfill"/><g class="legendlines"><path class="js-line" d="M5,0h30" style="fill: none; stroke: rgb(255, 127, 14); stroke-opacity: 1; stroke-width: 2px;"/></g><g class="legendsymbols"><g class="legendpoints"/></g></g><rect class="legendtoggle" pointer-events="all" x="0" y="-9.5" width="95.78125" height="19" style="cursor: pointer; fill: rgb(0, 0, 0); fill-opacity: 0;"/></g><g class="traces" transform="translate(0, 52.5)" style="opacity: 1;"><text class="legendtext" text-anchor="start" x="40" y="4.680000000000001" style="font-family: 'Open Sans', verdana, arial, sans-serif; font-size: 12px; fill: rgb(68, 68, 68); fill-opacity: 1; white-space: pre;">acc</text><g class="layers" style="opacity: 1;"><g class="legendfill"/><g class="legendlines"><path class="js-line" d="M5,0h30" style="fill: none; stroke: rgb(44, 160, 44); stroke-opacity: 1; stroke-width: 2px;"/></g><g class="legendsymbols"><g class="legendpoints"/></g></g><rect class="legendtoggle" pointer-events="all" x="0" y="-9.5" width="95.78125" height="19" style="cursor: pointer; fill: rgb(0, 0, 0); fill-opacity: 0;"/></g></g></g><rect class="scrollbar" rx="20" ry="3" width="0" height="0" x="0" y="0" style="fill: rgb(128, 139, 164); fill-opacity: 1;"/></g><g class="g-gtitle"><text class="gtitle" x="350" y="30" text-anchor="middle" dy="0em" style="font-family: 'Open Sans', verdana, arial, sans-serif; font-size: 17px; fill: rgb(68, 68, 68); opacity: 1; font-weight: normal; white-space: pre;">SAMPLE_PER_CLASS_10</text></g><g class="g-xtitle"/><g class="g-ytitle"/></g></svg>