<svg class="main-svg" xmlns="http://www.w3.org/2000/svg" xmlns:xlink="http://www.w3.org/1999/xlink" width="700" height="450" style="" viewBox="0 0 700 450"><rect x="0" y="0" width="700" height="450" style="fill: rgb(255, 255, 255); fill-opacity: 1;"/><defs id="defs-a00f2e"><g class="clips"><clipPath id="clipa00f2exyplot" class="plotclip"><rect width="517" height="330"/></clipPath><clipPath class="axesclip" id="clipa00f2ex"><rect x="60" y="0" width="517" height="450"/></clipPath><clipPath class="axesclip" id="clipa00f2ey"><rect x="0" y="60" width="700" height="330"/></clipPath><clipPath class="axesclip" id="clipa00f2exy"><rect x="60" y="60" width="517" height="330"/></clipPath></g><g class="gradients"/></defs><g class="bglayer"/><g class="layer-below"><g class="imagelayer"/><g class="shapelayer"/></g><g class="cartesianlayer"><g class="subplot xy"><g class="layer-subplot"><g class="shapelayer"/><g class="imagelayer"/></g><g class="gridlayer"><g class="x"><path class="xgrid crisp" transform="translate(189.31,0)" d="M0,60v330" style="stroke: rgb(238, 238, 238); stroke-opacity: 1; stroke-width: 1px;"/><path class="xgrid crisp" transform="translate(318.63,0)" d="M0,60v330" style="stroke: rgb(238, 238, 238); stroke-opacity: 1; stroke-width: 1px;"/><path class="xgrid crisp" transform="translate(447.94,0)" d="M0,60v330" style="stroke: rgb(238, 238, 238); stroke-opacity: 1; stroke-width: 1px;"/></g><g class="y"><path class="ygrid crisp" transform="translate(0,331.53)" d="M60,0h517" style="stroke: rgb(238, 238, 238); stroke-opacity: 1; stroke-width: 1px;"/><path class="ygrid crisp" transform="translate(0,288.15999999999997)" d="M60,0h517" style="stroke: rgb(238, 238, 238); stroke-opacity: 1; stroke-width: 1px;"/><path class="ygrid crisp" transform="translate(0,244.79)" d="M60,0h517" style="stroke: rgb(238, 238, 238); stroke-opacity: 1; stroke-width: 1px;"/><path class="ygrid crisp" transform="translate(0,201.42)" d="M60,0h517" style="stroke: rgb(238, 238, 238); stroke-opacity: 1; stroke-width: 1px;"/><path class="ygrid crisp" transform="translate(0,158.05)" d="M60,0h517" style="stroke: rgb(238, 238, 238); stroke-opacity: 1; stroke-width: 1px;"/><path class="ygrid crisp" transform="translate(0,114.68)" d="M60,0h517" style="stroke: rgb(238, 238, 238); stroke-opacity: 1; stroke-width: 1px;"/><path class="ygrid crisp" transform="translate(0,71.32)" d="M60,0h517" style="stroke: rgb(238, 238, 238); stroke-opacity: 1; stroke-width: 1px;"/></g></g><g class="zerolinelayer"><path class="xzl zl crisp" transform="translate(60,0)" d="M0,60v330" style="stroke: rgb(68, 68, 68); stroke-opacity: 1; stroke-width: 1px;"/><path class="yzl zl crisp" transform="translate(0,374.9)" d="M60,0h517" style="stroke: rgb(68, 68, 68); stroke-opacity: 1; stroke-width: 1px;"/></g><path class="xlines-below"/><path class="ylines-below"/><g class="overlines-below"/><g class="xaxislayer-below"/><g class="yaxislayer-below"/><g class="overaxes-below"/><g class="plot" transform="translate(60, 60)" clip-path="url('#clipa00f2exyplot')"><g class="scatterlayer mlayer"><g class="trace scatter traced9cfc0" style="stroke-miterlimit: 2; opacity: 1;"><g class="fills"/><g class="errorbars"/><g class="lines"><path class="js-line" d="M0,16.5L1.03,264.11L1.29,272.23L2.59,289.87L2.84,292.24L4.14,300.11L4.4,300.32L5.17,302.28L5.43,303.58L5.95,303.86L6.21,304.3L6.47,304.3L6.72,303.47L7.76,307.14L8.02,306.72L8.28,306.58L8.53,307.38L8.79,308.32L9.31,308.07L9.57,308.29L10.09,306.99L10.35,308.78L11.9,310.02L12.16,309.17L12.93,310.39L13.19,310.24L13.45,310.62L13.71,309.82L13.97,310.65L14.22,310.78L14.48,311.19L14.74,310.05L15,308.7L15.26,310.78L15.52,310.8L16.04,309.48L16.29,311.51L17.33,310.85L17.59,310.6L18.36,311.04L18.62,310.19L19.4,311.63L19.66,310.99L19.91,310.72L21.21,311.88L21.47,311.19L22.5,312.42L22.76,311.71L23.28,312.34L23.54,310.96L24.05,312.39L24.31,312.25L24.57,311.39L25.6,312.38L25.86,312.28L27.41,311.8L27.67,312.61L28.19,312.14L28.45,312.33L28.71,312.88L28.97,312.05L29.48,312.35L29.74,312.48L30.78,312.19L31.04,311.9L31.29,311.56L31.55,312.25L31.81,312.85L32.85,312.08L33.1,312.86L34.4,312.45L34.66,312.61L35.43,311.69L35.69,312.51L36.47,312.31L36.73,312.72L36.98,313.13L37.24,311.38L37.5,312.94L38.02,312.76L38.28,312.66L40.09,312.48L40.35,312.54L41.12,313.23L41.38,312.72L43.97,312.42L44.23,313.11L45,312L45.26,313.13L46.81,312.64L47.07,312.98L47.33,312.58L47.59,312.8L47.85,313.16L49.4,311.89L49.66,312.84L52.5,312.87L52.76,312.41L54.57,312.9L54.83,312.98L55.61,312.66L55.86,313.12L56.12,312.5L56.64,312.85L56.9,312.92L58.45,312.89L58.71,311.56L59.48,313.05L59.74,312.91L61.81,312.6L62.07,312.86L63.36,312.9L63.62,312.42L64.4,313.13L64.66,312.7L65.17,312.85L65.43,312.02L66.47,312.93L66.73,313.18L66.98,313.5L67.5,312.97L67.76,313.14L69.57,312.79L69.83,313.29L71.38,312.82L71.64,312.6L75.26,313.04L75.52,312.49L75.78,312.88L76.04,312.56L76.3,312.22L76.81,313.06L77.07,312.71L77.33,312.43L77.59,312.08L77.85,313.11L78.62,312.76L78.88,313.03L80.69,312.42L80.95,313.39L81.73,312.74L81.99,313.1L82.5,312.63L82.76,313.42L83.28,312.63L83.54,312.85L83.8,313.28L84.83,313.08L85.09,313.05L85.61,312.17L85.86,313.11L86.9,312.5L87.16,313.02L87.42,313.16L88.45,312.52L88.71,312.92L89.74,313.28L90,312.66L90.78,313.27L91.04,312.94L92.59,312.9L92.85,313.16L93.37,312.73L93.62,312.22L94.66,313.27L94.92,312.93L95.69,312.92L95.95,312.64L98.02,313.14L98.28,312.36L99.31,313.31L99.57,312.62L100.09,313.11L100.35,312.18L100.87,312.91L101.12,313.24L102.42,312.59L102.68,313.03L103.19,313.28L103.45,312.54L103.71,313.31L104.23,312.84L104.49,313.15L105.52,312.78L105.78,313.24L106.56,312.75L106.81,312.92L107.07,312.94L109.66,312.81L109.92,312.11L110.95,313.3L111.21,313.1L111.47,313.01L112.25,312.56L112.5,313.05L113.8,312.94L114.06,312.58L117.16,313.05L117.42,312.64L119.23,312.89L119.49,312.59L120.26,312.99L120.52,312.28L121.3,312.94L121.56,312.74L121.81,312.16L122.07,312.17L122.33,313.14L122.59,312.63L123.11,313L123.37,313.07L123.62,312.49L124.14,313L124.4,313.24L125.95,312.58L126.21,313.22L127.5,312.79L127.76,312.76L128.8,313.11L129.06,312.65L129.31,312.46L129.57,312.97L129.83,313.4L130.87,311.84L131.13,312.78L131.38,312.55L131.64,312.95L131.9,313.11L132.94,313.26L133.19,312.35L134.23,313.36L134.49,313.2L134.75,312.71L135.26,313.2L135.52,313.01L137.59,312.93L137.85,313.17L139.14,312.77L139.4,312.77L140.44,312.34L140.69,313.21L141.47,312.48L141.73,312.98L141.99,312.79L144.57,312.85L144.83,313.23L145.87,312.66L146.13,313.01L148.45,312.51L148.71,313.12L150.52,312.28L150.78,312.89L151.82,312.76L152.07,312.78L152.33,313.34L152.59,313.11L152.85,312.64L153.11,312.28L153.63,312.8L153.88,312.99L155.44,313L155.69,311.91L156.21,313.23L156.47,312.98L156.73,312.84L157.51,312.52L157.76,313.15L159.06,312.75L159.32,312.86L160.61,313.18L160.87,312.84L161.13,312.48L161.64,313.01L161.9,312.83L162.16,312.49L162.42,312.78L162.68,313.27L162.94,312.29L163.45,312.81L163.71,313.08L165.26,312.6L165.52,313.11L166.82,313.05L167.07,313.31L167.33,312.61L167.85,313.14L168.11,313.09L169.92,312.77L170.18,313.22L170.95,312.78L171.21,313.07L171.47,313.1L172.51,312.84L172.76,313.4L173.54,311.94L173.8,312.94L174.32,312.48L174.57,312.92L174.83,312.86L175.87,312.52L176.13,313L176.39,312.96L176.64,311.91L177.68,312.96L177.94,312.61L178.2,313.06L178.45,312.51L178.71,312.42L179.23,313.11L179.49,312.97L179.75,312.66L180.78,312.79L181.04,313.11L182.85,312.45L183.11,312.92L183.37,311.49L183.63,313.22L183.89,313.31L184.4,312.31L184.66,313.3L185.95,312.27L186.21,313.15L186.99,312.79L187.25,312.72L187.76,313.09L188.02,312.7L188.28,312.44L189.32,312.9L189.58,311.82L189.83,313.36L190.35,313.1L190.61,313.27L192.16,312.97L192.42,313.05L192.68,312.54L193.2,313.12L193.45,312.71L194.23,313.31L194.49,312.66L195.52,313.23L195.78,311.5L196.56,313.02L196.82,312.73L198.11,312.76L198.37,313.05L198.63,313.32L198.89,312.14L199.92,313.13L200.18,313.08L200.44,312.4L200.7,313.28L200.95,312.86L201.21,312.7L201.99,313.14L202.25,312.93L202.51,313.02L203.28,313.41L203.54,313.13L203.8,312.39L204.32,312.95L204.58,313.14L204.83,312.49L205.09,313L205.35,313.34L206.13,312.61L206.39,312.86L206.64,312.81L207.94,313.11L208.2,312.72L209.23,313.31L209.49,313.18L210.78,312.54L211.04,312.87L212.08,313.24L212.33,312.86L212.85,312.48L213.11,313.06L213.37,312.63L213.89,313.12L214.15,313.2L214.66,312.34L214.92,313.08L215.18,313.21L216.21,312.08L216.47,312.96L216.99,312.68L217.25,312.91L217.51,313.26L218.8,312.9L219.06,312.51L219.32,313.06L219.83,312.77L220.09,312.78L220.61,312.31L220.87,312.81L221.13,312.88L222.16,312.98L222.42,312.4L223.46,313.37L223.71,312.67L227.08,313.03L227.34,312.72L227.59,313.07L227.85,312.85L228.11,312.19L228.37,313.15L228.63,312.5L228.89,312.2L229.92,313.15L230.18,312.99L230.44,312.44L230.7,312.98L230.96,313.18L231.73,312.16L231.99,313.08L235.61,312.8L235.87,312.62L236.65,312.68L236.9,313.19L237.68,313.3L237.94,312.2L238.97,313.23L239.23,313.24L239.75,312.57L240.01,313.21L240.27,313.35L240.78,312.34L241.04,313.3L241.3,313.15L242.59,312.4L242.85,313.23L244.92,312.26L245.18,312.81L245.7,313.13L245.96,312.4L246.22,312.88L246.73,313.06L246.99,312.13L247.77,313.18L248.03,311.74L248.28,313.23L248.8,312.3L249.06,312.77L250.87,313.01L251.13,312.22L252.16,313.16L252.42,313.33L253.46,312.59L253.72,312.56L254.49,312.47L254.75,312.76L255.78,312.67L256.04,312.64L257.08,313.14L257.34,312.45L259.15,313.34L259.41,312.96L260.44,313.11L260.7,312.46L261.47,312.88L261.73,312.64L262.51,312.95L262.77,312.2L263.8,312.95L264.06,312.84L266.65,312.62L266.91,313.39L267.94,312.84L268.2,313.32L270.78,313.11L271.04,313.38L271.3,312.58L271.82,313.05L272.08,312.63L273.11,312.9L273.37,312.86L274.41,313.11L274.66,312.88L275.44,313.04L275.7,312.36L276.73,313L276.99,312.36L278.03,312.89L278.29,312.79L279.32,313.15L279.58,313.25L280.35,312.25L280.61,312.85L280.87,312.99L281.13,312.52L281.39,313.22L281.65,313.29L281.91,312.15L282.42,312.97L282.68,312.84L285.01,313.4L285.27,312.23L285.79,313.23L286.04,312.73L286.3,312.78L286.56,312.4L286.82,313.13L287.08,312.98L288.11,312.66L288.37,312.98L289.41,312.72L289.66,313.47L290.44,312.57L290.7,312.9L290.96,312.95L291.73,312.96L291.99,311.94L293.03,313.08L293.29,312.66L294.58,313.09L294.84,312.9L295.87,312.48L296.13,313.06L297.42,313.21L297.68,313.19L298.98,312.61L299.23,313L300.01,312.96L300.27,311.93L301.04,313.22L301.3,313.04L301.56,313.04L303.11,312.73L303.37,313.22L304.67,312.55L304.92,312.97L305.18,312.58L305.44,312.93L305.7,313.32L305.96,312.24L306.48,312.74L306.73,313.03L307.51,312.91L307.77,313.15L308.54,312.67L308.8,312.5L310.1,313.15L310.36,313.09L312.42,312.89L312.68,313.25L313.72,312.53L313.98,313.02L314.23,312.11L314.75,312.84L315.01,312.68L317.08,313.17L317.34,312.85L317.86,312.48L318.11,313.21L319.92,312.7L320.18,313.37L320.7,312.26L321.22,312.73L321.48,313.41L322.51,312.46L322.77,313.05L324.58,312.75L324.84,313.23L325.61,312.49L325.87,312.95L327.68,312.81L327.94,312.96L328.98,313.2L329.24,312.84L332.6,313.22L332.86,312.86L334.41,312.55L334.67,312.48L335.44,312.91L335.7,312.41L336.74,313.35L336.99,312.72L338.55,313.11L338.8,312.41L339.32,313.12L339.58,311.8L340.1,313.03L340.36,312.77L340.61,312.2L340.87,313.15L341.39,312.35L341.65,313.14L341.91,312.51L342.43,312.8L342.68,313.04L343.2,312.59L343.46,313.41L344.75,312.97L345.01,313.04L346.05,312.86L346.3,313.12L347.08,312.8L347.34,312.86L348.37,312.86L348.63,313.03L349.41,312.23L349.67,312.77L349.93,313.13L350.18,313.17L350.44,312.38L351.22,313.22L351.48,312.9L352.51,313.05L352.77,312.57L353.29,313.23L353.55,313L353.8,312.86L354.32,312.93L354.58,313.33L355.36,312.73L355.62,313.05L357.17,312.43L357.43,312.14L359.24,313.16L359.49,312.76L360.01,313.29L360.27,312.81L360.53,313L361.31,312.97L361.56,312.4L362.34,313.11L362.6,312.87L363.63,312.88L363.89,313.07L364.41,312.61L364.67,312.25L365.7,313.29L365.96,313.17L370.62,312.68L370.87,313.11L372.17,312.67L372.43,313.31L372.68,312.41L373.2,312.63L373.46,312.86L374.5,312.65L374.75,312.45L375.01,312.95L375.53,312.67L375.79,312.7L376.56,312.91L376.82,312.3L377.86,312.97L378.12,313.19L379.41,312.05L379.67,312.62L379.93,313.13L380.19,311.48L381.22,313.07L381.48,312.26L382.25,312.92L382.51,312.62L384.32,313.12L384.58,312.71L385.62,312.38L385.87,313.04L386.13,312.3L386.39,313.24L386.65,312.53L386.91,313.06L387.69,312.89L387.94,313.19L388.2,312.55L388.72,312.88L388.98,312.92L390.53,312.98L390.79,312.47L391.82,312.88L392.08,312.36L392.34,313.18L392.6,311.97L392.86,312.92L393.12,312.98L395.7,312.78L395.96,313.26L396.22,312.02L396.74,312.92L397,312.96L397.51,312.5L397.77,313.04L398.03,313.2L399.32,313.15L399.58,312.96L400.62,313.16L400.88,312.89L401.91,313.18L402.17,312.19L402.94,312.93L403.2,312.92L404.5,312.6L404.75,313.13L405.01,312.41L405.53,312.68L405.79,312.83L406.82,313.17L407.08,312.91L407.6,312.29L407.86,311.68L409.15,313.19L409.41,313.04L409.93,313.45L410.19,312.62L410.44,313.11L411.22,312.46L411.48,312.9L411.74,313.14L413.81,313.03L414.07,312.25L414.58,313.29L415.1,312.82L415.36,313.14L416.65,312.99L416.91,311.98L417.17,313.17L417.69,312.53L417.94,312.95L418.2,312.58L418.72,313.1L418.98,312.92L419.24,312.26L419.76,312.56L420.01,312.81L420.27,312.34L420.79,312.83L421.05,313.03L422.08,312.74L422.34,313L425.19,312.67L425.45,313.07L427.77,312.35L428.03,313.02L428.81,313.34L429.07,312.36L429.84,313.09L430.1,312.84L430.36,312.91L431.14,312.53L431.39,313.42L431.65,312.77L432.17,313.26L432.43,313.07L433.2,312.88L433.46,313.25L433.98,312.25L434.24,312.95L434.5,312.86L439.15,312.58L439.41,312.35L440.19,313.13L440.45,312.93L442.26,312.8L442.51,313.28L442.77,311.94L443.29,313.1L443.55,313.07L444.07,313.34L444.33,312.69L445.36,312.15L445.62,313.14L447.17,313.21L447.43,313.29L448.46,312.16L448.72,313.42L449.76,312.99L450.02,313.13L452.08,312.99L452.34,312.41L452.86,313.07L453.12,312.7L453.38,312.6L454.67,312.9L454.93,312.68L455.96,312.56L456.22,312.82L457.26,312.98L457.52,312.66L458.55,313.1L458.81,312.79L459.07,312.28L459.33,312.91L459.58,312.97L460.36,312.46L460.62,313.05L460.88,312.97L461.65,313.15L461.91,312.25L463.21,313.27L463.46,312.84L465.53,313.06L465.79,313.33L466.83,313.19L467.08,313.32L467.34,312.12L467.86,313.18L468.12,312.91L469.41,312.92L469.67,312.45L470.71,313.28L470.96,313.07L471.22,312.3L471.48,312.99L471.74,313.11L473.55,312.91L473.81,313.21L474.58,312.78L474.84,313.02L475.1,312.89L476.14,312.61L476.4,313.27L477.95,312.52L478.21,313.05L479.24,312.67L479.5,313.03L481.05,312.73L481.31,313.04L481.83,312.4L482.09,312.89L482.34,313.06L483.12,312.65L483.38,312.5L484.41,313.16L484.67,313.2L485.19,312.71L485.45,313.3L485.71,313.19L486.74,311.66L487,312.79L488.03,312.38L488.29,313.44L489.07,312.73L489.33,313.35L490.36,312.33L490.62,313.3L491.4,311.74L491.65,312.09L491.91,313.26L493.46,312.09L493.72,313.02L494.76,313.15L495.02,312.8L500.71,313.05L500.96,312.92L502,313.32L502.26,312.64L503.81,313.02L504.07,312.33L504.84,313.2L505.1,312.63L505.36,313.31L505.62,312.74L505.88,312.28L506.14,313.08L506.65,312.58L506.91,312.59L507.69,313.19L507.95,312.63L509.5,313L509.76,312.51L510.53,313.27L510.79,313L511.05,312.84L512.34,312.95L512.6,312.24L513.12,313L513.38,311.93L514.16,313.18L514.41,312.95L515.97,312.28L516.22,313.08L517,313.12" style="vector-effect: non-scaling-stroke; fill: none; stroke: rgb(31, 119, 180); stroke-opacity: 1; stroke-width: 2px; opacity: 1;"/></g><g class="points"/><g class="text"/></g><g class="trace scatter trace5813bc" style="stroke-miterlimit: 2; opacity: 1;"><g class="fills"/><g class="errorbars"/><g class="lines"><path class="js-line" d="M0,125.43L1.03,240.63L1.29,243.86L1.55,244.18L1.81,247.57L2.07,245.89L2.33,247.51L2.59,249.17L2.84,248.96L3.1,249.48L3.36,249.98L3.62,250.17L3.88,249.46L4.14,251.65L4.4,250.63L4.66,252.22L4.91,253.11L5.17,250.8L5.69,251.61L5.95,252.07L6.47,251.63L6.72,249.48L7.76,251.38L8.02,250.23L9.31,249.25L9.57,249.22L10.35,250.3L10.6,249.32L11.12,249L11.38,247L11.64,249.48L12.16,248.06L12.41,249.23L13.19,249.24L13.45,248.19L13.97,249.13L14.48,248.57L14.74,248.2L15.26,247.37L15.52,248.26L16.04,247.53L16.29,246.67L17.33,247.51L17.59,245.82L18.36,247.66L18.62,246.7L19.14,247.57L19.4,246.75L20.43,245.66L20.69,245.89L21.21,245.85L21.47,245.4L23.28,245.97L23.54,245.08L25.35,245.23L25.6,245.85L26.64,245.9L26.9,245.48L27.67,245.72L27.93,244.7L28.71,244.32L28.97,245.07L29.48,244.72L29.74,244.12L30.52,244.89L30.78,243.74L31.55,244L31.81,244.55L32.85,244.15L33.1,244L34.4,244.18L34.66,244.05L36.21,243.75L36.47,244.23L37.76,243.33L38.02,243.53L38.79,243.79L39.05,243.23L39.57,243.65L39.83,243.07L41.38,243.21L41.64,243.53L42.16,243.78L42.42,242.7L42.93,243.7L43.19,243L43.45,243.39L43.71,242.87L44.23,243.31L44.48,243.21L45.52,242.8L45.78,243.17L46.29,243.33L46.55,242.88L47.07,243.8L47.59,243.48L47.85,243.33L49.4,243.76L49.66,242.79L50.43,242.29L50.69,243.08L51.73,242.71L51.98,242.71L52.76,242.27L53.02,243.37L54.05,242.51L54.31,242.76L55.35,243.45L55.61,243.39L56.9,242.39L57.16,242.92L57.93,242.86L58.19,242.5L60,243.1L60.26,242.96L62.33,243.1L62.59,242.95L62.85,242.54L63.36,243L63.62,242.89L64.4,243.38L64.66,242.8L66.21,242.87L66.47,242.73L68.02,243L68.28,242.91L69.05,242.54L69.31,242.84L72.67,242.92L72.93,242.31L73.71,242.96L73.97,242.54L75,242.89L75.26,242.45L78.88,242.92L79.14,242.69L80.43,242.16L80.69,242.51L81.47,242.66L81.73,242.41L83.54,242.19L83.8,243.08L85.09,242.37L85.35,242.57L88.19,242.41L88.45,243.15L89.74,242.27L90,242.59L90.78,243.09L91.04,242.91L91.3,242.66L93.62,242.87L93.88,242.25L94.92,243.05L95.18,242.65L96.73,242.69L96.99,242.5L102.16,242.25L102.42,242.12L103.19,243.02L103.45,242.04L104.49,242.87L104.74,242.64L105,242.71L105.78,242.47L106.04,242.86L107.07,242.57L107.33,242.74L109.92,242.22L110.18,242.13L111.21,243.05L111.47,242.36L112.76,242.78L113.02,242.73L113.54,243.03L113.8,242.48L114.06,242.49L114.57,242.13L114.83,242.59L115.09,242.5L116.64,242.65L116.9,242.53L117.68,242.48L117.93,242.24L118.45,243.03L118.71,242.07L119.75,242.53L120,242.27L121.3,242.35L121.56,242.21L122.59,242.89L122.85,242.33L123.11,242.03L124.66,242.55L124.92,242.43L125.95,242.67L126.21,242.62L126.99,242.68L127.25,242.15L128.02,243.01L128.28,242.26L129.57,243.03L129.83,242.47L130.35,242.83L130.61,242.06L131.64,242.34L131.9,242.26L132.16,242.92L132.68,242.2L132.94,242.66L133.97,242.4L134.23,242.8L135,242.32L135.26,242.87L135.52,242.85L136.04,243.27L136.3,242.7L137.07,242.25L137.33,242.59L137.59,242.54L138.63,242.68L138.88,242.92L140.44,242.76L140.69,242.97L141.73,242.53L141.99,242.63L142.5,242.83L142.76,243.2L143.8,242.32L144.06,242.6L146.64,242.21L146.9,242.03L147.94,242.78L148.19,242.52L149.49,242.58L149.75,242.42L152.33,242.67L152.59,243.12L153.11,242.57L153.37,243.03L153.63,243.06L154.66,242.53L154.92,242.42L155.18,243.17L155.69,242.72L155.95,242.48L157.25,243.05L157.51,242.47L158.28,242.85L158.54,242.36L159.83,242.78L160.09,242.84L160.35,242.35L160.87,242.78L161.13,242.86L162.68,242.87L162.94,242.11L163.97,243.03L164.23,242.44L164.49,242.27L165.52,242.57L165.78,242.37L167.33,242.31L167.59,242.09L169.66,242.87L169.92,242.27L171.47,243.07L171.73,242.72L173.28,242.67L173.54,242.69L174.83,242.84L175.09,242.56L175.87,242.42L176.13,242.28L177.16,242.89L177.42,242.48L179.75,243.05L180.01,242.46L180.26,243.12L180.52,242.96L180.78,242.06L181.56,242.36L181.82,242.99L182.08,242.28L182.59,243.03L182.85,242.6L183.63,242.28L183.89,242.73L184.14,242.97L184.4,242.14L185.44,242.76L185.7,242.68L186.47,242.62L186.73,241.95L188.28,242.75L188.54,242.52L189.32,242.9L189.58,242.03L189.83,241.78L190.09,242.18L190.35,242.72L194.49,242.22L194.75,241.74L196.04,243.25L196.3,242.71L197.59,242.54L197.85,242.94L198.89,242.26L199.14,242.62L199.4,241.88L199.92,242.45L200.18,242.83L201.21,243.14L201.47,242.77L202.77,242.65L203.02,242.84L203.28,243.19L203.8,242.65L204.06,242.62L206.9,243.22L207.16,242.82L207.94,242.6L208.2,242.25L209.23,242.58L209.49,242.6L211.56,242.57L211.82,242.43L212.85,242.86L213.11,242.93L213.37,242.35L213.89,242.65L214.15,242.75L214.4,243.31L214.66,242.46L214.92,242.49L216.47,242.66L216.73,242.18L217.25,242.91L217.51,242.76L217.77,242.75L218.28,242.79L218.54,242.26L219.83,242.83L220.09,243.13L220.61,242.25L220.87,242.47L221.13,242.54L225.27,242.81L225.52,242.55L226.3,242.74L226.56,242.9L228.89,242.55L229.15,242.8L230.7,242.61L230.96,242.72L231.73,242.28L231.99,242.15L232.77,243.07L233.03,242.89L234.84,242.82L235.09,242.52L236.9,242.28L237.16,242.63L238.2,242.24L238.46,242.81L239.23,242.45L239.49,242.52L240.27,242.81L240.53,242.44L240.78,242.03L241.04,243.02L241.3,242.48L241.56,242.28L244.4,242.52L244.66,242.35L245.44,242.77L245.7,242.32L246.22,242.76L246.47,242.59L246.73,242.3L247.77,242.76L248.03,242.58L249.58,242.65L249.84,242.75L250.35,242.41L250.61,243.2L251.13,241.78L251.39,242.65L251.65,242.93L252.42,242.78L252.68,242.71L252.94,243.13L253.46,242.6L253.72,242.85L253.97,242.24L254.49,242.73L254.75,242.92L255.01,242.15L255.53,242.74L255.78,242.32L256.04,242.63L256.56,242.16L256.82,242.01L257.34,243.01L257.59,242.78L257.85,242.41L259.41,242.78L259.66,242.25L261.73,242.35L261.99,243.25L262.51,242.26L262.77,243.17L263.8,242.63L264.06,242.97L264.58,242.54L264.84,242.8L265.1,242.86L265.35,243.34L265.87,242.83L266.13,242.84L266.39,242.27L266.65,242.69L266.91,242.95L267.68,242.27L267.94,243.02L268.46,242.27L268.72,242.85L268.97,242.42L269.75,242.78L270.01,243.46L270.27,242.4L270.78,242.65L271.04,242.49L276.22,242.79L276.47,242.31L277.25,242.91L277.51,242.7L277.77,243.1L278.54,242.62L278.8,242.08L279.84,243.07L280.1,242.46L282.16,242.82L282.42,241.97L282.94,243.14L283.2,242.51L283.46,242.4L284.23,242.74L284.49,242.6L285.53,242.76L285.79,242.28L286.04,242.89L286.56,242.27L286.82,242.37L287.08,243.06L287.6,242.42L287.85,242.3L288.11,242.73L288.63,242.4L288.89,242.44L289.66,243.19L289.92,242.46L293.29,242.79L293.54,242.52L294.32,242.98L294.58,242.74L298.2,242.43L298.46,242.98L299.49,242.29L299.75,242.8L300.01,242.69L300.27,242.08L300.79,242.47L301.04,242.51L303.89,242.19L304.15,242.99L305.44,242.11L305.7,242.86L307.51,242.63L307.77,243.2L308.8,242.33L309.06,242.63L310.1,242.61L310.36,242.96L311.39,242.73L311.65,242.79L314.75,242.23L315.01,242.56L315.27,242.06L315.53,242.72L315.79,242.93L317.08,242.67L317.34,242.53L318.11,242.76L318.37,242.96L319.15,242.42L319.41,243.02L320.44,242.35L320.7,242.79L321.48,242.79L321.73,241.92L322.25,242.93L322.51,242.23L322.77,242.16L324.58,242.71L324.84,242.47L325.1,242.96L325.36,242.47L325.61,242.08L326.39,242.11L326.65,242.88L329.49,242.1L329.75,241.73L330.27,243.25L330.53,242.31L330.79,242.45L332.08,242.33L332.34,242.52L333.89,242.65L334.15,242.54L335.7,242.53L335.96,242.76L336.99,242.96L337.25,242.68L340.87,242.35L341.13,243.16L341.39,243.52L341.65,242.98L341.91,242.75L343.72,242.51L343.98,242.87L345.01,242.35L345.27,242.14L345.53,241.79L345.79,242.47L346.05,243.17L347.34,242.58L347.6,242.98L348.89,242.23L349.15,242.69L349.41,242.66L349.67,242.86L349.93,242.49L350.18,242.29L350.7,241.95L350.96,242.6L351.48,243.07L351.74,242.74L351.99,242.09L353.29,242.56L353.55,242.59L355.36,242.62L355.62,243.33L356.39,242.42L356.65,243.03L357.43,242.59L357.68,243.19L358.46,242.06L358.72,242.52L358.98,242.82L360.79,242.31L361.05,242.3L361.56,242.78L361.82,242.22L362.08,242.06L362.86,242.65L363.12,242.46L363.37,242.27L363.89,243.18L364.41,242.84L364.67,243.07L365.18,241.91L365.7,242.5L365.96,242.01L366.74,242.62L366.99,242.51L368.55,242.58L368.81,242.35L370.87,242.75L371.13,242.15L372.17,243.54L372.43,242.56L373.2,242.81L373.46,242.02L374.75,242.87L375.01,242.75L377.08,242.64L377.34,242.94L378.37,242.47L378.63,242.4L379.41,242.97L379.67,242.57L379.93,242.81L380.19,242.02L380.96,242.67L381.22,242.41L382.25,242.3L382.51,242.69L383.03,242.18L383.29,242.54L383.55,242.8L384.32,242.56L384.58,243.16L385.1,242.43L385.62,242.85L385.87,242.9L386.39,242.6L386.65,243.33L387.69,242.27L387.94,242.78L389.75,242.73L390.01,242.2L391.56,242.53L391.82,242.45L392.86,242.54L393.12,242.3L394.15,242.96L394.41,243.22L395.19,242.44L395.44,242.9L397.25,242.88L397.51,242.08L399.07,242.67L399.32,242.56L400.62,242.81L400.88,242.86L401.13,243.38L401.39,242.8L401.65,242.51L401.91,243L402.43,242.64L402.69,242.65L403.2,242.92L403.46,242.45L403.72,242.2L404.75,242.97L405.01,242.74L405.27,243.02L406.31,242.48L406.57,242.85L407.34,242.99L407.6,242.39L408.63,243L408.89,242.6L411.22,242.13L411.48,242.87L412.51,242.12L412.77,242.43L413.03,242.67L414.07,242.1L414.32,242.29L414.84,242.89L415.1,242.56L415.36,242.64L416.91,242.11L417.17,242.75L417.94,242.03L418.2,242.7L420.01,242.81L420.27,242.92L421.31,242.61L421.57,242.64L421.82,242.25L422.34,242.75L422.6,242.71L422.86,242.2L423.12,242.95L423.38,242.96L423.63,241.61L424.15,242.23L424.41,242.43L425.7,242.8L425.96,242.48L428.03,242.72L428.29,242.12L429.32,242.81L429.58,242.39L430.62,242.75L430.88,242.54L431.39,242.7L431.65,243.27L431.91,242.39L432.43,243L432.69,243.11L434.24,242.68L434.5,242.85L434.76,242.19L435.27,242.51L435.53,242.4L435.79,242.24L436.05,242.78L436.31,242.93L437.34,242.56L437.6,242.75L438.38,242.22L438.64,242.11L439.15,242.64L439.41,242.03L439.67,242.16L439.93,242.02L440.19,242.52L440.45,242.62L441.22,242.24L441.48,242.7L442.77,243.01L443.03,242.46L444.07,243.1L444.33,242.6L444.58,242.28L445.1,242.6L445.36,241.68L446.65,242.9L446.91,242.43L447.17,242.83L447.43,242.14L447.69,242.23L448.72,243.35L448.98,242.51L450.53,242.51L450.79,242.98L452.08,242.68L452.34,242.85L453.12,242.86L453.38,242.92L453.64,243.07L453.89,242.53L454.15,242.3L456.22,242.33L456.48,242.6L458.29,243.05L458.55,242.49L459.33,242.51L459.58,242.88L461.91,242.31L462.17,242.7L463.21,242.48L463.46,242.96L465.02,242.75L465.27,243.06L466.31,242.55L466.57,242.67L467.6,242.39L467.86,242.56L468.89,242.79L469.15,242.58L469.67,241.97L469.93,242.96L470.71,243.24L470.96,242.39L471.22,241.95L471.48,243.15L471.74,242.58L472.26,242.97L472.52,242.72L473.03,242.26L473.29,242.77L473.55,242.88L473.81,242.4L474.33,242.78L474.58,242.86L475.36,242.14L475.62,242.44L475.88,242.9L477.43,242.89L477.69,241.96L478.72,242.5L478.98,242.74L479.76,242.92L480.02,242.03L480.79,242.71L481.05,242.27L481.83,242.39L482.09,242.74L482.34,242.42L482.6,243.02L482.86,243.46L484.15,242.54L484.41,243.01L484.93,242.11L485.19,242.38L485.45,242.85L487,242.46L487.26,242.55L488.55,242.9L488.81,242.3L490.1,242.79L490.36,242.45L491.91,242.84L492.17,242.31L492.95,243.18L493.21,242.24L494.24,243.04L494.5,243.12L495.53,242.44L495.79,242.85L497.6,242.26L497.86,242.3L499.41,243.1L499.67,242.07L500.96,243.01L501.22,242.46L501.48,242.88L502,242.42L502.26,242.39L503.29,242.58L503.55,242.82L503.81,242.42L504.07,242.74L504.33,243.19L505.62,242.92L505.88,242.8L506.14,243.23L506.4,242.69L506.65,242.45L507.17,242.11L507.43,241.77L507.69,242.99L508.21,242.24L508.47,242.54L508.98,243.02L509.24,242.33L510.02,242.5L510.28,242.16L511.31,243.09L511.57,242.89L511.83,242.87L512.09,242.14L512.6,242.42L512.86,242.59L513.38,243.41L513.64,242.95L513.9,242.46L514.67,242.34L514.93,242.04L515.19,241.99L515.45,243.32L517,242.58" style="vector-effect: non-scaling-stroke; fill: none; stroke: rgb(255, 127, 14); stroke-opacity: 1; stroke-width: 2px; opacity: 1;"/></g><g class="points"/><g class="text"/></g><g class="trace scatter trace9f1013" style="stroke-miterlimit: 2; opacity: 1;"><g class="fills"/><g class="errorbars"/><g class="lines"><path class="js-line" d="M0,291.2L1.03,255.45L1.29,253.72L1.55,253.9L1.81,253.01L3.62,250.87L3.88,251.74L4.91,249.63L5.17,250.2L5.43,249.28L5.95,249.57L6.21,249.45L7.24,249.5L7.5,249.18L9.57,249.54L9.83,249.05L10.09,249.84L10.35,248.84L10.6,249.24L10.86,249.15L11.9,249.25L12.16,249.32L12.93,248.88L13.19,248.91L14.74,249.03L15,248.93L17.33,248.87L17.59,249.36L19.14,248.61L19.4,248.85L20.69,248.96L20.95,248.83L22.76,248.97L23.02,248.88L24.57,249.13L24.83,249.12L30.26,249.14L30.52,248.89L31.55,249.04L31.81,248.92L53.54,249.08L53.79,248.93L57.16,248.99L57.42,248.93L66.47,248.96L66.73,248.92L69.05,248.95L69.31,248.94L87.68,249L87.93,248.94L517,248.92" style="vector-effect: non-scaling-stroke; fill: none; stroke: rgb(44, 160, 44); stroke-opacity: 1; stroke-width: 2px; opacity: 1;"/></g><g class="points"/><g class="text"/></g></g></g><g class="overplot"/><path class="xlines-above crisp" d="M0,0" style="fill: none;"/><path class="ylines-above crisp" d="M0,0" style="fill: none;"/><g class="overlines-above"/><g class="xaxislayer-above"><g class="xtick"><text text-anchor="middle" x="0" y="403" transform="translate(60,0)" style="font-family: 'Open Sans', verdana, arial, sans-serif; font-size: 12px; fill: rgb(68, 68, 68); fill-opacity: 1; white-space: pre;">0</text></g><g class="xtick"><text text-anchor="middle" x="0" y="403" transform="translate(189.31,0)" style="font-family: 'Open Sans', verdana, arial, sans-serif; font-size: 12px; fill: rgb(68, 68, 68); fill-opacity: 1; white-space: pre;">500</text></g><g class="xtick"><text text-anchor="middle" x="0" y="403" transform="translate(318.63,0)" style="font-family: 'Open Sans', verdana, arial, sans-serif; font-size: 12px; fill: rgb(68, 68, 68); fill-opacity: 1; white-space: pre;">1000</text></g><g class="xtick"><text text-anchor="middle" x="0" y="403" transform="translate(447.94,0)" style="font-family: 'Open Sans', verdana, arial, sans-serif; font-size: 12px; fill: rgb(68, 68, 68); fill-opacity: 1; white-space: pre;">1500</text></g></g><g class="yaxislayer-above"><g class="ytick"><text text-anchor="end" x="59" y="4.199999999999999" transform="translate(0,374.9)" style="font-family: 'Open Sans', verdana, arial, sans-serif; font-size: 12px; fill: rgb(68, 68, 68); fill-opacity: 1; white-space: pre;">0</text></g><g class="ytick"><text text-anchor="end" x="59" y="4.199999999999999" transform="translate(0,331.53)" style="font-family: 'Open Sans', verdana, arial, sans-serif; font-size: 12px; fill: rgb(68, 68, 68); fill-opacity: 1; white-space: pre;">0.5</text></g><g class="ytick"><text text-anchor="end" x="59" y="4.199999999999999" transform="translate(0,288.15999999999997)" style="font-family: 'Open Sans', verdana, arial, sans-serif; font-size: 12px; fill: rgb(68, 68, 68); fill-opacity: 1; white-space: pre;">1</text></g><g class="ytick"><text text-anchor="end" x="59" y="4.199999999999999" transform="translate(0,244.79)" style="font-family: 'Open Sans', verdana, arial, sans-serif; font-size: 12px; fill: rgb(68, 68, 68); fill-opacity: 1; white-space: pre;">1.5</text></g><g class="ytick"><text text-anchor="end" x="59" y="4.199999999999999" transform="translate(0,201.42)" style="font-family: 'Open Sans', verdana, arial, sans-serif; font-size: 12px; fill: rgb(68, 68, 68); fill-opacity: 1; white-space: pre;">2</text></g><g class="ytick"><text text-anchor="end" x="59" y="4.199999999999999" transform="translate(0,158.05)" style="font-family: 'Open Sans', verdana, arial, sans-serif; font-size: 12px; fill: rgb(68, 68, 68); fill-opacity: 1; white-space: pre;">2.5</text></g><g class="ytick"><text text-anchor="end" x="59" y="4.199999999999999" transform="translate(0,114.68)" style="font-family: 'Open Sans', verdana, arial, sans-serif; font-size: 12px; fill: rgb(68, 68, 68); fill-opacity: 1; white-space: pre;">3</text></g><g class="ytick"><text text-anchor="end" x="59" y="4.199999999999999" transform="translate(0,71.32)" style="font-family: 'Open Sans', verdana, arial, sans-serif; font-size: 12px; fill: rgb(68, 68, 68); fill-opacity: 1; white-space: pre;">3.5</text></g></g><g class="overaxes-above"/></g></g><g class="polarlayer"/><g class="ternarylayer"/><g class="geolayer"/><g class="funnelarealayer"/><g class="pielayer"/><g class="treemaplayer"/><g class="sunburstlayer"/><g class="glimages"/><defs id="topdefs-a00f2e"><g class="clips"/><clipPath id="legenda00f2e"><rect width="101" height="67" x="0" y="0"/></clipPath></defs><g class="layer-above"><g class="imagelayer"/><g class="shapelayer"/></g><g class="infolayer"><g class="legend" pointer-events="all" transform="translate(587.34, 60)"><rect class="bg" shape-rendering="crispEdges" width="101" height="67" x="0" y="0" style="stroke: rgb(68, 68, 68); stroke-opacity: 1; fill: rgb(255, 255, 255); fill-opacity: 1; stroke-width: 0px;"/><g class="scrollbox" transform="translate(0, 0)" clip-path="url('#legenda00f2e')"><g class="groups"><g class="traces" transform="translate(0, 14.5)" style="opacity: 1;"><text class="legendtext" text-anchor="start" x="40" y="4.680000000000001" style="font-family: 'Open Sans', verdana, arial, sans-serif; font-size: 12px; fill: rgb(68, 68, 68); fill-opacity: 1; white-space: pre;">train loss</text><g class="layers" style="opacity: 1;"><g class="legendfill"/><g class="legendlines"><path class="js-line" d="M5,0h30" style="fill: none; stroke: rgb(31, 119, 180); stroke-opacity: 1; stroke-width: 2px;"/></g><g class="legendsymbols"><g class="legendpoints"/></g></g><rect class="legendtoggle" pointer-events="all" x="0" y="-9.5" width="95.78125" height="19" style="cursor: pointer; fill: rgb(0, 0, 0); fill-opacity: 0;"/></g><g class="traces" transform="translate(0, 33.5)" style="opacity: 1;"><text class="legendtext" text-anchor="start" x="40" y="4.680000000000001" style="font-family: 'Open Sans', verdana, arial, sans-serif; font-size: 12px; fill: rgb(68, 68, 68); fill-opacity: 1; white-space: pre;">test loss</text><g class="layers" style="opacity: 1;"><g class="legendfill"/><g class="legendlines"><path class="js-line" d="M5,0h30" style="fill: none; stroke: rgb(255, 127, 14); stroke-opacity: 1; stroke-width: 2px;"/></g><g class="legendsymbols"><g class="legendpoints"/></g></g><rect class="legendtoggle" pointer-events="all" x="0" y="-9.5" width="95.78125" height="19" style="cursor: pointer; fill: rgb(0, 0, 0); fill-opacity: 0;"/></g><g class="traces" transform="translate(0, 52.5)" style="opacity: 1;"><text class="legendtext" text-anchor="start" x="40" y="4.680000000000001" style="font-family: 'Open Sans', verdana, arial, sans-serif; font-size: 12px; fill: rgb(68, 68, 68); fill-opacity: 1; white-space: pre;">acc</text><g class="layers" style="opacity: 1;"><g class="legendfill"/><g class="legendlines"><path class="js-line" d="M5,0h30" style="fill: none; stroke: rgb(44, 160, 44); stroke-opacity: 1; stroke-width: 2px;"/></g><g class="legendsymbols"><g class="legendpoints"/></g></g><rect class="legendtoggle" pointer-events="all" x="0" y="-9.5" width="95.78125" height="19" style="cursor: pointer; fill: rgb(0, 0, 0); fill-opacity: 0;"/></g></g></g><rect class="scrollbar" rx="20" ry="3" width="0" height="0" x="0" y="0" style="fill: rgb(128, 139, 164); fill-opacity: 1;"/></g><g class="g-gtitle"><text class="gtitle" x="350" y="30" text-anchor="middle" dy="0em" style="font-family: 'Open Sans', verdana, arial, sans-serif; font-size: 17px; fill: rgb(68, 68, 68); opacity: 1; font-weight: normal; white-space: pre;">SAMPLE_PER_CLASS_10</text></g><g class="g-xtitle"/><g class="g-ytitle"/></g></svg>