<svg class="main-svg" xmlns="http://www.w3.org/2000/svg" xmlns:xlink="http://www.w3.org/1999/xlink" width="700" height="450" style="" viewBox="0 0 700 450"><rect x="0" y="0" width="700" height="450" style="fill: rgb(255, 255, 255); fill-opacity: 1;"/><defs id="defs-f3d29f"><g class="clips"><clipPath id="clipf3d29fxyplot" class="plotclip"><rect width="517" height="330"/></clipPath><clipPath class="axesclip" id="clipf3d29fx"><rect x="60" y="0" width="517" height="450"/></clipPath><clipPath class="axesclip" id="clipf3d29fy"><rect x="0" y="60" width="700" height="330"/></clipPath><clipPath class="axesclip" id="clipf3d29fxy"><rect x="60" y="60" width="517" height="330"/></clipPath></g><g class="gradients"/></defs><g class="bglayer"/><g class="layer-below"><g class="imagelayer"/><g class="shapelayer"/></g><g class="cartesianlayer"><g class="subplot xy"><g class="layer-subplot"><g class="shapelayer"/><g class="imagelayer"/></g><g class="gridlayer"><g class="x"><path class="xgrid crisp" transform="translate(189.31,0)" d="M0,60v330" style="stroke: rgb(238, 238, 238); stroke-opacity: 1; stroke-width: 1px;"/><path class="xgrid crisp" transform="translate(318.63,0)" d="M0,60v330" style="stroke: rgb(238, 238, 238); stroke-opacity: 1; stroke-width: 1px;"/><path class="xgrid crisp" transform="translate(447.94,0)" d="M0,60v330" style="stroke: rgb(238, 238, 238); stroke-opacity: 1; stroke-width: 1px;"/></g><g class="y"><path class="ygrid crisp" transform="translate(0,325.05)" d="M60,0h517" style="stroke: rgb(238, 238, 238); stroke-opacity: 1; stroke-width: 1px;"/><path class="ygrid crisp" transform="translate(0,276.53)" d="M60,0h517" style="stroke: rgb(238, 238, 238); stroke-opacity: 1; stroke-width: 1px;"/><path class="ygrid crisp" transform="translate(0,228)" d="M60,0h517" style="stroke: rgb(238, 238, 238); stroke-opacity: 1; stroke-width: 1px;"/><path class="ygrid crisp" transform="translate(0,179.48000000000002)" d="M60,0h517" style="stroke: rgb(238, 238, 238); stroke-opacity: 1; stroke-width: 1px;"/><path class="ygrid crisp" transform="translate(0,130.95999999999998)" d="M60,0h517" style="stroke: rgb(238, 238, 238); stroke-opacity: 1; stroke-width: 1px;"/><path class="ygrid crisp" transform="translate(0,82.44)" d="M60,0h517" style="stroke: rgb(238, 238, 238); stroke-opacity: 1; stroke-width: 1px;"/></g></g><g class="zerolinelayer"><path class="xzl zl crisp" transform="translate(60,0)" d="M0,60v330" style="stroke: rgb(68, 68, 68); stroke-opacity: 1; stroke-width: 1px;"/><path class="yzl zl crisp" transform="translate(0,373.57)" d="M60,0h517" style="stroke: rgb(68, 68, 68); stroke-opacity: 1; stroke-width: 1px;"/></g><path class="xlines-below"/><path class="ylines-below"/><g class="overlines-below"/><g class="xaxislayer-below"/><g class="yaxislayer-below"/><g class="overaxes-below"/><g class="plot" transform="translate(60, 60)" clip-path="url('#clipf3d29fxyplot')"><g class="scatterlayer mlayer"><g class="trace scatter tracec25756" style="stroke-miterlimit: 2; opacity: 1;"><g class="fills"/><g class="errorbars"/><g class="lines"><path class="js-line" d="M0,16.5L1.03,264.77L1.29,271.03L2.84,295.07L3.1,295.38L4.4,301.82L4.66,302.18L4.91,302.12L5.17,303.38L6.47,307.93L6.72,307.43L8.28,310.19L8.53,310.36L9.83,310.34L10.09,311.11L10.86,311.42L11.12,311.09L11.38,311.97L11.64,311.59L11.9,310.84L12.93,312.35L13.19,312.43L13.97,312.17L14.22,312.62L15.78,312.67L16.04,312.68L30.78,313.37L31.04,313.3L38.02,313.44L38.28,313.35L40.86,313.41L41.12,313.4L45.26,313.44L45.52,313.42L50.43,313.45L50.69,313.45L69.31,313.46L69.57,313.4L72.16,313.48L72.42,313.48L91.04,313.47L91.3,313.47L517,313.47" style="vector-effect: non-scaling-stroke; fill: none; stroke: rgb(31, 119, 180); stroke-opacity: 1; stroke-width: 2px; opacity: 1;"/></g><g class="points"/><g class="text"/></g><g class="trace scatter tracecf7070" style="stroke-miterlimit: 2; opacity: 1;"><g class="fills"/><g class="errorbars"/><g class="lines"><path class="js-line" d="M0,168.06L1.03,227.4L1.29,226.72L1.55,225.36L1.81,234.04L2.84,248.1L3.1,242.99L4.14,240.24L4.4,245.35L4.66,245.27L4.91,242.89L5.17,238.77L5.43,242.28L5.69,243.44L6.47,234.43L6.98,235.69L7.24,234.1L7.5,236.69L7.76,235.84L8.02,231.82L8.53,236.43L8.79,233.94L9.05,233.56L9.31,227.45L9.57,231.35L9.83,232.99L10.09,232.92L10.35,229.7L10.6,226.83L11.12,229.18L11.38,231.43L11.64,229.59L11.9,221.69L12.41,227.61L12.93,226.18L13.19,224.92L14.22,216.58L14.48,221.64L14.74,223.47L15,220.58L15.26,218.38L15.52,218.83L15.78,220.78L16.04,220.61L16.29,217.63L17.07,202.92L17.33,216.09L17.59,212.79L17.85,216.17L18.1,218.42L19.14,214.56L19.4,211.97L19.91,211.88L20.17,215.59L20.43,212.61L20.69,212.23L20.95,212.48L21.21,213.18L22.24,210.6L22.5,200.1L23.28,209.58L23.54,208.4L24.05,210.38L24.31,208.49L24.57,208.31L24.83,209.29L25.09,205.62L25.6,208.83L26.12,208.1L26.38,207.03L26.64,206.93L26.9,204.96L27.16,204.42L27.41,204.96L27.67,206.2L27.93,205.59L28.19,207.32L28.45,204.81L28.97,206.33L29.23,204.96L29.74,207.36L30,204.08L30.52,207.03L30.78,203.71L31.04,205.99L31.29,205.05L31.55,203.55L31.81,202.63L32.07,204.85L32.33,203.95L32.59,204.64L32.85,206.01L33.1,203.64L33.62,203.74L33.88,204.2L34.4,202.97L34.66,202.24L35.17,201.18L35.43,201.83L35.69,201.77L36.21,200.41L36.47,201.41L36.73,202.04L37.5,200.49L37.76,202.5L38.28,199.4L38.54,199.63L38.79,199.74L39.05,202.32L39.57,200.26L39.83,199.84L40.35,200.57L40.6,197.91L40.86,201.83L41.38,198.37L41.64,199.13L41.9,199.76L42.16,199.12L42.42,198.81L42.67,198.1L42.93,199.49L43.19,201.53L43.45,195.37L43.97,198.7L44.23,199.57L45,195.66L45.26,199.69L46.29,195.52L46.55,198.69L46.81,197.06L47.07,197.36L47.33,199.95L47.59,200.57L47.85,198.8L48.11,196.31L48.36,197.39L48.62,198.66L48.88,198.92L49.14,197.6L49.66,199.5L50.17,199.19L50.43,196.58L50.69,198.7L51.21,198.47L51.47,197.53L51.73,198.76L51.98,195.71L52.5,197.94L52.76,196.9L53.02,195.91L53.28,198.72L53.54,195.6L53.79,195.97L54.31,197.98L54.57,196.04L54.83,199L55.35,197.32L55.61,197.4L55.86,197.17L56.12,198.18L56.9,195.46L57.16,199.16L58.19,196.15L58.45,197.76L58.71,196.41L59.23,197.11L59.48,198.87L60.26,195.2L60.52,197.31L61.3,198.37L61.55,196.31L62.07,197.06L62.33,195.21L63.36,198.31L63.62,196.21L64.14,193.89L64.4,198.17L65.69,195.17L65.95,197.27L66.21,195.09L66.47,197.02L66.73,197.95L67.24,197.58L67.5,196.49L67.76,197.78L68.02,196.04L68.28,197.25L68.54,196.38L68.8,194.34L69.05,196.09L69.31,196.64L69.57,195.54L69.83,196.76L70.09,197.17L70.35,198.04L70.61,197.26L70.86,194.73L71.38,197.57L71.64,197.37L71.9,195.86L72.42,197.62L72.67,195.32L72.93,197.81L73.45,196.58L73.71,195.79L73.97,195.5L74.23,196.27L74.49,196.02L74.74,194.58L75.52,196.78L75.78,193.88L76.04,197.78L76.55,196.01L76.81,197.07L77.07,195.59L77.33,196.65L77.59,198.57L78.62,195.8L78.88,196.47L79.14,198.34L79.4,196.35L79.66,196.55L79.92,197.33L80.18,195.56L80.43,197.42L80.95,197L81.21,196.7L82.5,195.89L82.76,197.71L83.28,196.99L83.54,196.72L84.57,195.6L84.83,196.6L85.86,197.26L86.12,197.39L86.9,195.51L87.16,195.74L87.42,197.15L87.68,195.06L87.93,197.17L88.19,197.26L88.45,197.34L88.71,195.3L89.23,194.21L89.49,197.28L89.74,196.32L90.52,197.24L90.78,196.17L91.3,197.7L91.55,195.13L91.81,198.59L92.33,196.7L92.59,195.22L93.11,197.31L93.37,196.04L94.4,196.41L94.66,194.78L95.69,197.6L95.95,195.47L96.73,197.86L96.99,196.35L97.24,196.36L97.5,197.35L98.02,193.72L98.28,195.61L98.54,196.38L98.8,196.61L99.06,195.85L99.31,195.27L99.83,198.04L100.09,196.35L100.35,194.45L101.64,197.26L101.9,196.91L102.16,195.05L102.68,195.52L102.93,196.79L103.19,197.65L103.45,194.88L103.71,194.78L103.97,196.5L104.23,196.95L104.49,196.06L104.74,196.48L105,196.26L105.26,196.43L105.52,195.15L105.78,195.79L106.04,195.4L106.3,194.84L106.81,194.68L107.33,196.64L107.59,196.03L107.85,195.82L108.11,197.71L108.37,195.16L108.88,196.18L109.14,197.38L109.4,195.22L109.92,195.57L110.18,196.09L110.69,195.5L110.95,197.04L111.21,194.75L111.47,197.86L111.73,197.35L111.99,197.74L112.25,195.33L113.28,197.61L113.54,194.67L114.06,197.84L114.31,196.56L114.57,195.5L115.09,198.01L115.35,194.06L116.38,197.09L116.64,196.48L116.9,196.26L117.16,197.13L117.68,197.8L117.93,193.98L118.97,197.99L119.23,196.68L119.49,197.57L119.75,195.33L120,197.31L120.52,196.43L120.78,196.97L121.04,197.92L121.3,196.5L121.56,196.45L122.33,196.14L122.59,195.86L122.85,195.26L123.11,197.12L123.37,195.28L123.88,195.79L124.14,195.25L125.18,196.94L125.44,195.74L125.69,195L125.95,195.19L126.21,196.6L126.47,195.66L126.73,197.13L126.99,198.48L127.5,195.15L128.02,195.9L128.28,196.44L128.8,197.08L129.06,193.84L129.31,195.52L130.09,197.6L130.35,194.98L130.61,197.72L131.13,197.38L131.38,197.05L132.16,195.67L132.42,196.87L132.94,195.72L133.19,197.31L133.45,197.06L133.71,195.48L134.49,197.62L134.75,196.7L135.78,197.71L136.04,195.38L136.3,197.67L136.81,197.11L137.07,195.75L137.33,197.5L137.59,194.51L137.85,196.22L138.11,196.11L138.37,196.47L138.63,196.23L138.88,195.79L139.4,196.14L139.66,197.21L139.92,197.33L140.18,196.71L140.44,196.4L141.47,198.09L141.73,196.98L141.99,196L142.25,196.42L142.5,197.34L143.28,194.83L143.54,196.03L143.8,194.57L144.06,195.18L144.32,195.95L144.57,197.85L144.83,196.39L145.09,195.86L145.87,196.36L146.13,197.64L146.38,196.23L146.9,196.76L147.16,196.74L147.68,195.78L147.94,195.08L148.19,199.36L148.45,197.79L148.71,195.38L148.97,196.51L149.23,195.2L149.49,193.48L150.26,197.47L150.52,197.26L150.78,196.31L151.04,196.51L151.3,196.1L151.56,195.36L152.33,197.85L152.59,195.84L153.37,197.24L153.63,197.26L154.14,196.04L154.4,196.9L154.66,196.95L154.92,194.6L155.44,195.34L155.69,196.73L155.95,195.35L156.47,196.38L156.73,196.57L156.99,196.73L157.25,195.88L157.51,193.99L158.02,195.42L158.28,197.05L159.06,196.1L159.32,194.97L160.61,197.48L160.87,195.88L161.13,192.66L161.38,197.27L161.64,195.21L161.9,197.44L162.68,194.98L162.94,197.81L163.71,195.76L163.97,196.8L164.49,195.35L164.75,196.62L165.01,196.23L165.52,196.41L165.78,195.33L166.04,194.81L166.3,198.35L166.56,195.18L167.07,197.64L167.33,195.35L167.59,194.07L167.85,196.07L168.11,196.77L168.37,196.91L168.63,198.13L168.88,198.29L169.14,196.11L169.66,196.95L169.92,195.62L170.7,198.62L170.95,196.64L171.47,195.74L171.73,197.62L171.99,197.3L172.25,194.66L172.76,197.89L173.28,196.78L173.54,194.9L173.8,199.21L174.32,195.51L174.57,196.33L174.83,196.05L175.09,196.61L175.35,197.18L176.39,192.88L176.64,196.42L177.16,197.06L177.42,197.21L177.68,195.92L177.94,196.39L178.2,197.19L178.71,195.44L178.97,197.99L179.23,194.87L179.75,197.29L180.01,195.05L180.52,195.87L180.78,194.89L181.04,197.58L181.56,195.65L181.82,195.09L182.08,196.7L182.33,195.81L182.59,195.1L182.85,193.77L183.11,197.3L183.63,193.93L183.89,195.92L184.14,197.01L184.4,198.02L184.66,196.08L184.92,194.83L185.7,197.42L185.95,196.52L186.47,196.44L186.73,198.73L187.76,195.6L188.02,195.96L188.28,197.35L188.8,197.01L189.06,194L189.32,197.93L189.83,195.42L190.09,196.13L190.87,198.52L191.13,197.27L191.39,196.02L191.9,196.53L192.16,196.67L192.42,197.88L192.68,195.07L193.2,195.4L193.45,196.95L194.23,194.27L194.49,198.63L195.01,194.73L195.27,196.18L195.52,197.67L195.78,197.78L196.04,196.16L196.56,195.95L196.82,197.47L197.08,196.47L197.85,196.87L198.11,196.5L198.37,195.77L198.63,196.31L198.89,197.82L199.66,195.85L199.92,197.65L200.18,197.9L200.44,197L200.95,194.97L201.47,195.15L201.73,195.13L202.25,194.52L202.51,197.25L202.77,195.63L203.54,198.05L203.8,195.88L204.06,195.86L204.32,196.95L205.61,194.02L205.87,197.66L206.13,195.91L206.39,198.53L206.64,197.82L207.42,195.81L207.68,198.49L208.2,198.63L208.46,195.02L208.71,196.24L208.97,195.55L209.23,198.04L209.75,195.04L210.01,198.91L210.27,195.46L210.78,197.58L211.04,196.23L211.3,197.46L211.56,196.04L211.82,196.36L212.08,195.05L212.33,196.75L212.85,195.25L213.11,196.31L213.37,196.43L213.63,195.63L213.89,197.44L214.15,194.75L214.4,196.58L214.66,196.45L214.92,196.92L215.18,195.28L215.44,197.42L215.7,195.71L215.96,195.13L216.47,197.37L216.99,197L217.25,196.63L217.77,193.17L218.02,198.16L218.8,194.65L219.06,197.09L219.32,197.93L219.58,197.09L219.83,196.05L220.09,195.77L220.35,196.66L220.61,194.55L220.87,196.06L221.13,196.47L221.39,195.82L221.65,196.56L221.9,198.24L222.94,195.14L223.2,197.02L223.46,197.38L223.71,195.75L224.23,194.99L224.49,197.68L224.75,198.09L225.01,195.06L225.52,197.53L225.78,196.05L226.04,196.3L226.56,195.28L226.82,196.59L227.08,196.49L227.34,194.04L227.59,197.69L228.11,195.85L228.37,197.93L228.89,195L229.4,195.11L229.66,195.44L229.92,198.23L230.44,197.53L230.7,196.99L230.96,197.48L231.21,195.93L231.47,197.73L231.99,196.37L232.25,196.92L232.51,195.41L233.03,196.2L233.28,196.86L233.54,195.61L234.06,196.79L234.32,196.3L234.58,196.12L234.84,197.35L235.61,195.38L235.87,197.71L236.65,197.61L236.9,195.63L237.16,194.9L237.42,195.16L237.68,196.9L237.94,197.87L238.2,196.49L238.46,195.39L239.49,198.15L239.75,195.94L240.01,197.19L240.27,197.01L240.53,195.21L240.78,198.17L241.3,197.23L241.56,195.99L242.85,196.68L243.11,196.51L243.37,198.27L243.63,197.33L243.89,195.96L244.4,197.97L244.92,197.05L245.18,195.05L245.44,194.35L245.7,196.68L246.47,195.64L246.73,197.37L246.99,198.63L247.25,195.5L247.51,196.95L247.77,194.3L248.03,196.09L248.28,196.15L248.8,196.71L249.06,194.06L250.35,198.13L250.61,196.42L250.87,195.2L251.39,195.48L251.65,195.52L252.16,197.14L252.42,195.04L252.94,194.61L253.46,196.59L253.72,196.77L254.49,196.15L254.75,196.9L255.78,194.67L256.04,197.09L256.82,195.67L257.08,195.95L257.34,196.29L257.59,197.18L257.85,194.06L258.63,197.27L258.89,197.22L259.15,195.54L259.41,194.52L259.66,195.58L259.92,195.74L260.7,198.14L260.96,194.18L261.22,198.5L261.73,195.92L261.99,195.24L262.51,196.94L262.77,196.11L263.03,198.41L264.06,195.48L264.32,196.68L264.58,198.14L264.84,197.17L265.1,196.7L265.35,194.71L265.61,195.19L265.87,196.59L266.39,196.41L266.65,197.86L267.68,195.97L267.94,197.24L268.2,195.26L268.72,196.58L268.97,196.91L269.75,194.6L270.01,197.4L270.27,195.61L270.53,195.7L270.78,197.49L271.56,196.2L271.82,197.22L272.34,195.87L272.6,198.33L273.63,194.56L273.89,197.39L274.66,195.22L274.92,195.61L275.18,196.76L275.44,194.5L275.96,194.92L276.22,194.57L276.73,196.82L276.99,194.24L277.77,196.88L278.03,196.64L278.29,196.19L278.54,196.21L278.8,195.34L279.06,197.7L279.58,196.9L279.84,195.25L280.1,196.07L280.35,194.72L280.61,192.96L281.39,197.16L281.65,196.52L281.91,195.57L282.68,196.85L282.94,196.46L283.2,195.79L283.46,196.04L283.72,195.21L284.49,197.01L284.75,195.78L285.01,195.99L285.27,194.88L286.3,198.16L286.56,195.81L287.6,197.52L287.85,195.9L288.63,197.24L288.89,193.18L290.18,197.33L290.44,196L290.7,197.64L291.22,196.86L291.48,196.72L291.73,197L291.99,194.66L292.77,197.9L293.03,195.84L293.29,195.09L293.54,197.32L293.8,195.5L294.06,196.71L294.32,197.37L294.58,195.25L295.1,196.87L295.35,197.07L295.61,197.9L295.87,196.04L296.13,196.97L296.65,196.81L296.91,195.64L297.17,197.62L297.68,196.26L297.94,196.11L298.2,194.76L298.46,196.22L298.72,198.01L298.98,194.45L299.23,195.49L299.49,198.25L300.27,194.98L300.53,197.36L300.79,197.03L301.04,195.35L302.85,197.36L303.11,194.76L304.15,196.68L304.41,196.41L304.67,197.65L304.92,197.46L305.18,196.15L305.7,198.34L305.96,196.16L306.48,192.53L306.73,196.15L307.25,195.46L307.51,197.2L307.77,196.61L308.03,196.44L308.29,196.93L308.54,197.28L308.8,195.9L309.32,196.62L309.58,197.39L311.13,195.24L311.39,196.86L311.91,195.62L312.17,198.11L313.46,195.24L313.72,195.61L314.23,196.51L314.49,194.98L315.27,197.9L315.53,196.69L316.3,196.64L316.56,197.16L317.08,197.64L317.34,195.72L317.6,199.32L318.11,197.65L318.37,195.86L318.63,196.95L319.15,196L319.41,196.65L319.92,196.14L320.18,196.51L320.44,196.89L320.96,196.43L321.22,197.4L321.99,194.84L322.25,194.99L322.51,195.69L322.77,197.63L323.03,194.59L323.29,196.89L323.55,197.45L323.8,197.49L324.06,196.24L324.32,196.62L324.58,196.11L324.84,195.44L325.61,196.8L325.87,195.74L326.91,196.64L327.17,195.29L327.42,197.64L327.94,195.74L328.2,196.54L328.46,197.98L328.98,196.83L329.24,195.84L329.49,195.36L329.75,195.52L330.01,196.17L330.27,196.88L330.53,196.62L330.79,196.04L331.05,196.11L331.3,197.3L331.56,197.29L331.82,196.45L332.08,194.92L332.34,196.29L332.6,196.46L333.63,195.4L333.89,196.14L334.41,197.34L334.67,195.08L335.18,198.25L335.44,196.39L335.7,196.22L335.96,195.04L336.22,197.24L336.48,195.85L336.74,197.08L336.99,196.82L337.25,194.76L337.77,197.73L338.29,197.4L338.55,196.01L338.8,194.75L339.06,195.18L339.32,196.14L339.58,197.23L339.84,194.51L340.36,196.94L340.61,196.05L340.87,195.24L341.13,197.45L341.65,197.05L341.91,196.2L342.17,194.75L342.43,196.33L342.68,197.44L343.2,195.65L343.46,196.51L343.72,196.81L344.49,195.84L344.75,197.61L345.27,194.5L345.53,197.53L345.79,197.71L346.05,195.3L346.3,195.17L346.56,197.24L346.82,195.55L347.34,196.33L347.6,195.72L347.86,194.92L348.12,195.9L348.37,198.28L349.67,194.71L349.93,196.86L350.18,197.31L350.44,195.63L350.7,195.05L350.96,197.13L351.22,198.04L351.48,196.67L351.74,196.34L352.25,195.38L352.77,198.39L353.03,196.51L353.29,197.78L353.55,194.73L353.8,196.97L354.32,195.22L354.58,193.98L355.1,196.46L355.36,194.5L355.62,195.64L356.13,195.32L356.39,194.47L356.91,197.57L357.17,193.68L357.68,197.22L357.94,195.42L358.2,196.65L358.46,195.44L358.72,196.71L358.98,197.52L360.01,195.2L360.27,196.2L360.53,197.2L361.05,194.75L361.31,197.36L361.82,194.17L362.34,195.22L362.6,196.42L363.12,195.5L363.37,196.57L363.63,194.48L364.15,195.7L364.41,196.85L364.93,196.27L365.18,194.91L365.44,197.17L365.7,196.52L365.96,194.56L366.74,196.24L366.99,195.94L367.25,195.87L367.51,197.7L367.77,196.6L368.03,195.37L368.55,197.36L368.81,196.84L369.06,195.96L369.58,196.35L369.84,194.59L370.36,196.84L370.62,196.44L370.87,194.84L371.13,197.48L371.65,195.98L371.91,196.68L372.17,195.32L372.43,196.79L372.68,196.45L372.94,196.36L373.46,194.38L373.72,198.81L373.98,195.62L374.5,195.82L374.75,196.06L375.27,196.86L375.53,197.79L375.79,195.42L376.31,197.06L376.56,196.47L377.08,195.87L377.34,197.16L377.6,197.99L377.86,196.88L378.12,196.47L378.37,195.44L378.63,196.21L378.89,196.84L379.15,195.51L379.41,196.88L379.67,197.43L380.19,196.36L380.44,193.8L381.48,197.65L381.74,195.24L382.77,196.36L383.03,198.91L384.06,195.13L384.32,196.85L384.84,194.91L385.1,196.19L385.36,196.99L385.62,197.3L386.13,196.76L386.39,195.52L386.65,196.25L386.91,195.85L387.17,194.8L387.43,198.67L387.94,197.48L388.2,198.39L388.72,195.09L388.98,195.37L389.24,196.05L389.5,196.87L389.75,195.35L390.01,195.72L390.27,196.37L390.53,195.93L390.79,194.99L391.31,195.82L391.56,197.01L392.08,197.15L392.34,194.89L392.6,194.99L392.86,196.62L393.38,195.51L393.63,196.34L393.89,199.83L394.15,194.86L394.67,197.64L394.93,195.25L395.44,196.96L395.7,196.55L395.96,195.88L396.22,196.56L396.48,195.67L396.74,194.47L397,196.3L397.51,195.04L397.77,195.81L398.03,199.47L398.29,195.74L398.55,196.33L398.81,193.72L400.1,197.92L400.36,197.9L401.13,195.93L401.39,197.87L401.91,195.24L402.17,196.87L402.43,196.48L402.69,195.72L402.94,196.16L403.2,197.36L403.72,194.93L403.98,195.91L404.24,196.7L404.75,194.94L405.01,196.35L405.27,196.7L405.53,196.94L405.79,194.55L406.57,198.01L406.82,195.83L407.08,194.8L407.34,197.46L407.86,196.37L408.12,198.24L408.89,195.06L409.15,196.02L409.41,196.09L409.67,195.28L409.93,196.58L410.19,195.59L410.44,196.72L410.7,195.95L410.96,197.77L412.51,195.78L412.77,195.6L413.03,197.29L413.55,196.99L413.81,196.06L414.07,195.3L414.32,196.44L414.58,196.83L415.1,194.68L415.36,195.08L415.62,197.12L415.88,194.26L416.13,197.9L416.39,196.69L416.65,195.78L417.17,194.8L417.43,195.27L417.69,196.25L417.94,197.21L418.2,197.12L418.46,194.44L419.24,196.43L419.5,196.18L420.01,196.83L420.27,195.96L420.79,193.55L421.05,197.68L421.31,196.84L421.82,197.14L422.08,197.22L422.34,195.7L422.86,196.52L423.12,196.78L423.63,195.33L423.89,195.51L424.15,196.39L424.67,196.62L424.93,195.07L425.7,197.54L425.96,195.76L426.22,195.48L426.48,196.66L427.26,197.04L427.51,195.45L428.03,196.33L428.29,194.95L428.55,195.1L428.81,196.86L429.07,198.64L429.32,194.55L429.84,195.04L430.1,194.34L430.36,196.12L431.14,197.14L431.39,197L431.65,197.33L431.91,195.22L432.17,196.28L432.43,197.83L432.69,195.24L432.95,196.89L433.2,197.7L433.72,193.97L433.98,196.34L434.24,196.45L434.76,194.84L435.01,195.78L435.27,195.86L435.53,195.35L435.79,196.91L436.31,197.17L436.82,195.9L437.08,197.04L437.6,195.42L437.86,195.94L438.12,196.72L438.38,195.05L438.89,196.36L439.15,196.06L439.67,194.48L439.93,197.17L440.19,198.35L440.45,196.2L440.7,196.92L440.96,197.23L441.22,196.17L442,198.05L442.26,196.67L442.51,195.65L442.77,196.27L443.03,197.19L443.29,195.38L443.55,196.74L443.81,197.74L444.07,195.8L444.58,196.74L444.84,196.59L445.1,197.22L445.62,196.55L445.88,194.81L447.17,197.43L447.43,196.52L447.69,196.77L447.95,196.37L448.2,195.64L448.98,196.56L449.24,197.25L449.5,195.59L449.76,197.38L450.02,196.7L450.27,196.78L450.79,196.02L451.05,198.14L451.31,195.68L451.83,196.7L452.08,197.09L453.12,196.44L453.38,196.66L453.64,197.74L453.89,196.4L454.15,196.89L454.41,195.98L454.67,195.89L454.93,196.76L455.45,197.11L455.96,194.88L456.22,197.29L456.48,194.96L457,195.5L457.26,196.57L457.52,197.33L458.03,197.1L458.29,194.87L458.55,198.22L459.07,196.17L459.33,198.13L460.36,193.47L460.62,196.89L461.39,196.6L461.65,195.67L462.69,196.39L462.95,195.09L463.46,196.23L463.72,198.29L463.98,194.91L464.5,195.78L464.76,196.9L465.02,196.92L465.27,198.06L466.31,194.89L466.57,195.87L466.83,195.66L467.08,196.62L467.6,195.27L467.86,195.88L468.12,195.88L468.38,196.58L468.64,196.22L468.89,195.67L470.45,196.18L470.71,197.91L470.96,195.07L471.48,196.92L471.74,195.06L472.77,196.78L473.03,194.91L474.07,198.64L474.33,196.22L475.1,197.7L475.36,197.54L475.62,195.55L475.88,197.1L476.4,196.66L476.65,196.36L477.17,197.06L477.43,196.07L477.69,196.98L477.95,195.42L478.21,195.82L478.98,198.6L479.24,198.15L479.5,197.63L480.02,195.14L480.27,197.34L480.53,198.1L480.79,197.06L481.05,194.52L481.83,196.14L482.09,195.93L482.34,193.88L482.6,198.47L483.38,194.49L483.64,197.69L484.41,195.9L484.67,197.08L485.19,194.03L485.45,197.51L485.71,197.51L485.96,196.73L486.22,198.15L486.48,198.02L486.74,194.9L487,194.93L487.26,197.18L487.52,196.21L487.77,198.18L488.55,195.88L488.81,196.32L489.07,196.45L489.33,196.94L489.59,195.21L490.1,197.63L490.62,197.07L490.88,195.92L491.4,197.08L491.91,196.76L492.17,195.4L492.69,197.22L492.95,194.75L493.21,194.02L493.46,196.15L494.5,197.63L494.76,194.11L495.02,194.53L495.28,197.9L495.53,195L496.05,196.34L496.31,198L496.83,196.23L497.09,196.72L497.34,197.26L497.86,195.26L498.12,197.85L498.64,194.07L498.9,196.51L499.15,198.06L500.19,195.44L500.45,195.22L500.71,194.67L500.96,196.17L501.48,197.38L501.74,195.23L502,195.28L502.26,196.27L502.52,197.17L502.78,195.57L503.03,196.48L503.29,195.84L503.55,197.46L503.81,194.94L504.07,196.86L504.33,197.37L504.59,198L504.84,196.3L505.36,195.01L505.62,195.95L505.88,195.79L506.4,197.48L506.65,195.6L506.91,195.33L507.17,196.32L507.69,195.66L507.95,196.82L508.21,194.97L508.72,195.75L508.98,195.83L509.24,195.26L509.5,196.45L509.76,196.21L510.02,195.72L510.28,197.42L510.53,198.36L511.05,197.48L511.31,195.68L511.57,196.63L511.83,196.05L512.09,195.1L512.34,197.44L512.86,195.29L513.12,195.5L513.38,195.54L513.64,196.47L513.9,198.16L514.41,196.73L514.67,195.32L514.93,194.88L515.19,195.93L515.45,194.38L515.71,196.26L515.97,197.05L516.74,194.45L517,195.75" style="vector-effect: non-scaling-stroke; fill: none; stroke: rgb(255, 127, 14); stroke-opacity: 1; stroke-width: 2px; opacity: 1;"/></g><g class="points"/><g class="text"/></g><g class="trace scatter trace448f62" style="stroke-miterlimit: 2; opacity: 1;"><g class="fills"/><g class="errorbars"/><g class="lines"><path class="js-line" d="M0,125.44L1.29,107.08L1.55,107.56L2.84,97.72L3.1,99.59L3.36,100.48L3.62,98.84L3.88,98.46L4.14,98.73L4.4,96.52L5.17,98.99L5.43,97.47L5.69,96.52L6.47,99.26L6.72,97.76L6.98,98.14L7.76,97.27L8.02,98.51L8.53,96.79L9.05,97.18L9.31,98.32L10.09,96.57L10.35,97.25L10.6,97.84L11.38,96.67L11.64,97.08L11.9,98.2L12.16,97.23L12.41,96.89L12.67,97.7L13.19,97.45L13.45,97.54L14.22,98.42L14.48,97.68L14.74,97.23L15,97.76L15.26,97.84L15.52,98.06L15.78,97.47L16.04,97.43L17.07,99.6L17.33,97.96L17.59,98.33L17.85,97.42L18.1,97.4L19.4,98.11L19.66,97.66L21.47,97.93L21.72,97.65L22.24,97.98L22.5,99.25L23.02,97.79L23.54,98.17L23.79,97.82L24.83,97.86L25.09,98.31L25.6,97.48L26.12,97.87L26.38,97.87L27.41,98.09L27.67,97.92L30.26,97.67L30.52,97.58L31.55,97.75L31.81,97.94L33.1,97.87L33.36,97.85L37.24,98.13L37.5,97.98L39.05,97.73L39.31,98.14L43.19,97.87L43.45,98.48L44.74,98.12L45,98.3L46.04,98.27L46.29,98.52L47.33,97.86L47.59,97.93L48.62,98.01L48.88,98L50.43,98.22L50.69,98.05L52.24,98.13L52.5,98.12L54.05,98.16L54.31,98.01L55.35,98.02L55.61,98.12L57.16,97.94L57.42,98.14L58.97,98.12L59.23,98.16L61.3,98.01L61.55,98.22L63.11,98.03L63.36,98.05L65.17,98.28L65.43,98.23L67.76,97.95L68.02,98.14L81.73,98.09L81.99,98.27L83.28,98.14L83.54,98.17L87.93,98.13L88.19,98.06L95.43,98.12L95.69,97.98L97.24,98.25L97.5,98.07L98.54,98.05L98.8,98.15L100.61,98.26L100.87,98.1L113.28,98.01L113.54,98.34L115.09,97.96L115.35,98.23L118.45,98.01L118.71,98.21L120,98.01L120.26,98.06L135.78,97.97L136.04,98.21L137.33,98.06L137.59,98.29L141.73,98.1L141.99,98.15L145.09,98.13L145.35,98.19L147.42,98.1L147.68,98.09L150.78,98.07L151.04,98.09L153.88,98.18L154.14,98.1L157.25,98.2L157.51,98.17L166.3,97.93L166.56,98.26L168.11,98.04L168.37,98.01L173.28,98.03L173.54,98.14L174.57,98.05L174.83,98.13L188.8,97.98L189.06,98.21L190.09,98.03L190.35,98.11L192.42,98.06L192.68,98.22L194.75,98.03L195.01,98.24L196.82,97.99L197.08,98.12L201.21,98.18L201.47,98.2L203.28,98.18L203.54,98.12L212.33,98.15L212.59,98.17L216.99,98.17L217.25,98.09L219.83,98.2L220.09,98.19L222.16,98.13L222.42,98.18L223.71,98.21L223.97,98.23L226.56,98.19L226.82,98.15L231.99,98.09L232.25,98.01L234.58,98.11L234.84,97.97L237.42,98.22L237.68,98.07L240.27,98.02L240.53,98.12L242.08,98.1L242.34,98.14L244.92,98.17L245.18,98.37L247.25,98.2L247.51,98.19L252.42,98.23L252.68,98.03L254.23,98.12L254.49,98.1L260.96,98.39L261.22,97.88L262.25,98.16L262.51,98.1L265.61,98.22L265.87,98.09L270.53,98.11L270.78,98.01L280.35,98.21L280.61,98.39L281.91,98.11L282.16,98.03L285.01,98.1L285.27,98.21L286.56,98.19L286.82,98.01L289.92,98.15L290.18,97.97L292.25,98.08L292.51,98.03L299.23,98.18L299.49,97.94L301.04,98.16L301.3,98.17L308.8,98.14L309.06,98.02L325.1,98.08L325.36,97.99L328.98,98.1L329.24,98.12L332.86,98.15L333.11,98.21L334.41,98.04L334.67,98.26L335.7,98.06L335.96,98.24L336.99,98.13L337.25,98.31L339.06,98.15L339.32,98.08L346.82,98.16L347.08,98.06L364.41,98.11L364.67,98.04L366.74,98.05L366.99,98.1L376.31,98.13L376.56,98.07L380.19,98.16L380.44,98.28L383.55,98.02L383.81,98.17L387.17,98.21L387.43,97.83L388.98,98.27L389.24,98.1L393.63,98.13L393.89,97.88L394.93,98.16L395.19,98.16L398.55,98.05L398.81,98.3L400.88,98.08L401.13,98.1L402.69,98.14L402.94,98.17L517,98.13" style="vector-effect: non-scaling-stroke; fill: none; stroke: rgb(44, 160, 44); stroke-opacity: 1; stroke-width: 2px; opacity: 1;"/></g><g class="points"/><g class="text"/></g></g></g><g class="overplot"/><path class="xlines-above crisp" d="M0,0" style="fill: none;"/><path class="ylines-above crisp" d="M0,0" style="fill: none;"/><g class="overlines-above"/><g class="xaxislayer-above"><g class="xtick"><text text-anchor="middle" x="0" y="403" transform="translate(60,0)" style="font-family: 'Open Sans', verdana, arial, sans-serif; font-size: 12px; fill: rgb(68, 68, 68); fill-opacity: 1; white-space: pre;">0</text></g><g class="xtick"><text text-anchor="middle" x="0" y="403" transform="translate(189.31,0)" style="font-family: 'Open Sans', verdana, arial, sans-serif; font-size: 12px; fill: rgb(68, 68, 68); fill-opacity: 1; white-space: pre;">500</text></g><g class="xtick"><text text-anchor="middle" x="0" y="403" transform="translate(318.63,0)" style="font-family: 'Open Sans', verdana, arial, sans-serif; font-size: 12px; fill: rgb(68, 68, 68); fill-opacity: 1; white-space: pre;">1000</text></g><g class="xtick"><text text-anchor="middle" x="0" y="403" transform="translate(447.94,0)" style="font-family: 'Open Sans', verdana, arial, sans-serif; font-size: 12px; fill: rgb(68, 68, 68); fill-opacity: 1; white-space: pre;">1500</text></g></g><g class="yaxislayer-above"><g class="ytick"><text text-anchor="end" x="59" y="4.199999999999999" transform="translate(0,373.57)" style="font-family: 'Open Sans', verdana, arial, sans-serif; font-size: 12px; fill: rgb(68, 68, 68); fill-opacity: 1; white-space: pre;">0</text></g><g class="ytick"><text text-anchor="end" x="59" y="4.199999999999999" transform="translate(0,325.05)" style="font-family: 'Open Sans', verdana, arial, sans-serif; font-size: 12px; fill: rgb(68, 68, 68); fill-opacity: 1; white-space: pre;">0.2</text></g><g class="ytick"><text text-anchor="end" x="59" y="4.199999999999999" transform="translate(0,276.53)" style="font-family: 'Open Sans', verdana, arial, sans-serif; font-size: 12px; fill: rgb(68, 68, 68); fill-opacity: 1; white-space: pre;">0.4</text></g><g class="ytick"><text text-anchor="end" x="59" y="4.199999999999999" transform="translate(0,228)" style="font-family: 'Open Sans', verdana, arial, sans-serif; font-size: 12px; fill: rgb(68, 68, 68); fill-opacity: 1; white-space: pre;">0.6</text></g><g class="ytick"><text text-anchor="end" x="59" y="4.199999999999999" transform="translate(0,179.48000000000002)" style="font-family: 'Open Sans', verdana, arial, sans-serif; font-size: 12px; fill: rgb(68, 68, 68); fill-opacity: 1; white-space: pre;">0.8</text></g><g class="ytick"><text text-anchor="end" x="59" y="4.199999999999999" transform="translate(0,130.95999999999998)" style="font-family: 'Open Sans', verdana, arial, sans-serif; font-size: 12px; fill: rgb(68, 68, 68); fill-opacity: 1; white-space: pre;">1</text></g><g class="ytick"><text text-anchor="end" x="59" y="4.199999999999999" transform="translate(0,82.44)" style="font-family: 'Open Sans', verdana, arial, sans-serif; font-size: 12px; fill: rgb(68, 68, 68); fill-opacity: 1; white-space: pre;">1.2</text></g></g><g class="overaxes-above"/></g></g><g class="polarlayer"/><g class="ternarylayer"/><g class="geolayer"/><g class="funnelarealayer"/><g class="pielayer"/><g class="treemaplayer"/><g class="sunburstlayer"/><g class="glimages"/><defs id="topdefs-f3d29f"><g class="clips"/><clipPath id="legendf3d29f"><rect width="101" height="67" x="0" y="0"/></clipPath></defs><g class="layer-above"><g class="imagelayer"/><g class="shapelayer"/></g><g class="infolayer"><g class="legend" pointer-events="all" transform="translate(587.34, 60)"><rect class="bg" shape-rendering="crispEdges" width="101" height="67" x="0" y="0" style="stroke: rgb(68, 68, 68); stroke-opacity: 1; fill: rgb(255, 255, 255); fill-opacity: 1; stroke-width: 0px;"/><g class="scrollbox" transform="translate(0, 0)" clip-path="url('#legendf3d29f')"><g class="groups"><g class="traces" transform="translate(0, 14.5)" style="opacity: 1;"><text class="legendtext" text-anchor="start" x="40" y="4.680000000000001" style="font-family: 'Open Sans', verdana, arial, sans-serif; font-size: 12px; fill: rgb(68, 68, 68); fill-opacity: 1; white-space: pre;">train loss</text><g class="layers" style="opacity: 1;"><g class="legendfill"/><g class="legendlines"><path class="js-line" d="M5,0h30" style="fill: none; stroke: rgb(31, 119, 180); stroke-opacity: 1; stroke-width: 2px;"/></g><g class="legendsymbols"><g class="legendpoints"/></g></g><rect class="legendtoggle" pointer-events="all" x="0" y="-9.5" width="95.78125" height="19" style="cursor: pointer; fill: rgb(0, 0, 0); fill-opacity: 0;"/></g><g class="traces" transform="translate(0, 33.5)" style="opacity: 1;"><text class="legendtext" text-anchor="start" x="40" y="4.680000000000001" style="font-family: 'Open Sans', verdana, arial, sans-serif; font-size: 12px; fill: rgb(68, 68, 68); fill-opacity: 1; white-space: pre;">test loss</text><g class="layers" style="opacity: 1;"><g class="legendfill"/><g class="legendlines"><path class="js-line" d="M5,0h30" style="fill: none; stroke: rgb(255, 127, 14); stroke-opacity: 1; stroke-width: 2px;"/></g><g class="legendsymbols"><g class="legendpoints"/></g></g><rect class="legendtoggle" pointer-events="all" x="0" y="-9.5" width="95.78125" height="19" style="cursor: pointer; fill: rgb(0, 0, 0); fill-opacity: 0;"/></g><g class="traces" transform="translate(0, 52.5)" style="opacity: 1;"><text class="legendtext" text-anchor="start" x="40" y="4.680000000000001" style="font-family: 'Open Sans', verdana, arial, sans-serif; font-size: 12px; fill: rgb(68, 68, 68); fill-opacity: 1; white-space: pre;">acc</text><g class="layers" style="opacity: 1;"><g class="legendfill"/><g class="legendlines"><path class="js-line" d="M5,0h30" style="fill: none; stroke: rgb(44, 160, 44); stroke-opacity: 1; stroke-width: 2px;"/></g><g class="legendsymbols"><g class="legendpoints"/></g></g><rect class="legendtoggle" pointer-events="all" x="0" y="-9.5" width="95.78125" height="19" style="cursor: pointer; fill: rgb(0, 0, 0); fill-opacity: 0;"/></g></g></g><rect class="scrollbar" rx="20" ry="3" width="0" height="0" x="0" y="0" style="fill: rgb(128, 139, 164); fill-opacity: 1;"/></g><g class="g-gtitle"><text class="gtitle" x="350" y="30" text-anchor="middle" dy="0em" style="font-family: 'Open Sans', verdana, arial, sans-serif; font-size: 17px; fill: rgb(68, 68, 68); opacity: 1; font-weight: normal; white-space: pre;">SAMPLE_PER_CLASS_100</text></g><g class="g-xtitle"/><g class="g-ytitle"/></g></svg>