<svg class="main-svg" xmlns="http://www.w3.org/2000/svg" xmlns:xlink="http://www.w3.org/1999/xlink" width="700" height="450" style="" viewBox="0 0 700 450"><rect x="0" y="0" width="700" height="450" style="fill: rgb(255, 255, 255); fill-opacity: 1;"/><defs id="defs-f769bd"><g class="clips"><clipPath id="clipf769bdxyplot" class="plotclip"><rect width="517" height="330"/></clipPath><clipPath class="axesclip" id="clipf769bdx"><rect x="60" y="0" width="517" height="450"/></clipPath><clipPath class="axesclip" id="clipf769bdy"><rect x="0" y="60" width="700" height="330"/></clipPath><clipPath class="axesclip" id="clipf769bdxy"><rect x="60" y="60" width="517" height="330"/></clipPath></g><g class="gradients"/></defs><g class="bglayer"/><g class="layer-below"><g class="imagelayer"/><g class="shapelayer"/></g><g class="cartesianlayer"><g class="subplot xy"><g class="layer-subplot"><g class="shapelayer"/><g class="imagelayer"/></g><g class="gridlayer"><g class="x"><path class="xgrid crisp" transform="translate(189.31,0)" d="M0,60v330" style="stroke: rgb(238, 238, 238); stroke-opacity: 1; stroke-width: 1px;"/><path class="xgrid crisp" transform="translate(318.63,0)" d="M0,60v330" style="stroke: rgb(238, 238, 238); stroke-opacity: 1; stroke-width: 1px;"/><path class="xgrid crisp" transform="translate(447.94,0)" d="M0,60v330" style="stroke: rgb(238, 238, 238); stroke-opacity: 1; stroke-width: 1px;"/></g><g class="y"><path class="ygrid crisp" transform="translate(0,337.58)" d="M60,0h517" style="stroke: rgb(238, 238, 238); stroke-opacity: 1; stroke-width: 1px;"/><path class="ygrid crisp" transform="translate(0,301.43)" d="M60,0h517" style="stroke: rgb(238, 238, 238); stroke-opacity: 1; stroke-width: 1px;"/><path class="ygrid crisp" transform="translate(0,265.27)" d="M60,0h517" style="stroke: rgb(238, 238, 238); stroke-opacity: 1; stroke-width: 1px;"/><path class="ygrid crisp" transform="translate(0,229.12)" d="M60,0h517" style="stroke: rgb(238, 238, 238); stroke-opacity: 1; stroke-width: 1px;"/><path class="ygrid crisp" transform="translate(0,192.97)" d="M60,0h517" style="stroke: rgb(238, 238, 238); stroke-opacity: 1; stroke-width: 1px;"/><path class="ygrid crisp" transform="translate(0,156.81)" d="M60,0h517" style="stroke: rgb(238, 238, 238); stroke-opacity: 1; stroke-width: 1px;"/><path class="ygrid crisp" transform="translate(0,120.66)" d="M60,0h517" style="stroke: rgb(238, 238, 238); stroke-opacity: 1; stroke-width: 1px;"/><path class="ygrid crisp" transform="translate(0,84.5)" d="M60,0h517" style="stroke: rgb(238, 238, 238); stroke-opacity: 1; stroke-width: 1px;"/></g></g><g class="zerolinelayer"><path class="xzl zl crisp" transform="translate(60,0)" d="M0,60v330" style="stroke: rgb(68, 68, 68); stroke-opacity: 1; stroke-width: 1px;"/><path class="yzl zl crisp" transform="translate(0,373.74)" d="M60,0h517" style="stroke: rgb(68, 68, 68); stroke-opacity: 1; stroke-width: 1px;"/></g><path class="xlines-below"/><path class="ylines-below"/><g class="overlines-below"/><g class="xaxislayer-below"/><g class="yaxislayer-below"/><g class="overaxes-below"/><g class="plot" transform="translate(60, 60)" clip-path="url('#clipf769bdxyplot')"><g class="scatterlayer mlayer"><g class="trace scatter tracecc5624" style="stroke-miterlimit: 2; opacity: 1;"><g class="fills"/><g class="errorbars"/><g class="lines"><path class="js-line" d="M0,16.5L1.03,257.55L1.29,268.42L2.84,293.86L3.1,294.39L3.36,294.88L3.62,297.17L3.88,296.43L4.14,299.02L5.17,304.56L5.43,304.47L5.69,304.6L6.72,306.08L6.98,306.45L8.53,309.27L8.79,308.92L9.05,309.18L9.31,308.67L9.57,309.7L9.83,309.35L10.86,310.8L11.12,310.69L12.41,311.13L12.67,311L13.97,311.78L14.22,311.21L15.26,312.31L15.52,312.12L17.33,312.21L17.59,312.07L18.62,312.61L18.88,312.39L20.95,312.77L21.21,312.62L22.24,312.79L22.5,312.73L23.79,312.64L24.05,312.79L25.35,313.07L25.6,312.81L26.9,313.05L27.16,313.08L31.81,313.05L32.07,312.97L33.62,313.27L33.88,313.24L42.42,313.33L42.67,313.35L44.48,313.37L44.74,313.37L46.29,313.36L46.55,313.34L48.36,313.33L48.62,313.4L53.28,313.37L53.54,313.39L59.74,313.41L60,313.36L62.07,313.4L62.33,313.29L64.92,313.43L65.17,313.45L75,313.42L75.26,313.47L76.3,313.43L76.55,313.43L81.73,313.42L81.99,313.27L85.35,313.44L85.61,313.3L87.68,313.43L87.93,313.39L94.4,313.45L94.66,313.41L99.83,313.47L100.09,313.43L106.56,313.47L106.81,313.43L116.38,313.4L116.64,313.43L121.3,313.31L121.56,313.44L124.4,312.96L124.66,313.41L134.23,313.34L134.49,313.46L138.37,313.44L138.63,313.47L143.28,313.4L143.54,313.46L145.61,313.44L145.87,313.47L149.23,313.38L149.49,313.44L152.59,313.38L152.85,313.44L156.73,313.45L156.99,313.44L163.2,313.43L163.45,313.44L182.59,313.36L182.85,313.41L185.44,313.3L185.7,313.44L188.02,313.41L188.28,313.44L192.16,313.45L192.42,313.44L207.16,313.43L207.42,313.45L215.44,313.37L215.7,313.46L218.54,313.37L218.8,313.46L225.27,313.38L225.52,313.39L517,313.43" style="vector-effect: non-scaling-stroke; fill: none; stroke: rgb(31, 119, 180); stroke-opacity: 1; stroke-width: 2px; opacity: 1;"/></g><g class="points"/><g class="text"/></g><g class="trace scatter tracef01f2f" style="stroke-miterlimit: 2; opacity: 1;"><g class="fills"/><g class="errorbars"/><g class="lines"><path class="js-line" d="M0,169.44L1.29,229.66L1.55,227.73L1.81,228.18L2.07,237.59L2.33,220.78L2.59,238.42L2.84,238.44L3.1,231.72L3.36,241.34L3.62,233.1L3.88,235.95L4.14,236.13L4.4,241.14L5.43,236.67L5.69,237.69L6.98,229.93L7.24,231.55L8.02,234.39L8.28,231.71L8.53,233.19L8.79,232.11L9.05,230.39L9.31,231.41L9.57,230.34L9.83,230.38L10.6,226.42L10.86,227.97L11.12,228.39L11.9,224.45L12.16,227.17L12.41,224.46L12.67,228.17L12.93,227.27L13.19,224.4L13.71,225.44L13.97,227.05L14.74,221.85L15,223.13L15.26,223.79L16.55,220.65L16.81,221.84L17.07,222.89L17.33,221.04L17.59,216.81L18.1,222.97L18.36,221.43L18.62,220.77L18.88,220.11L19.14,220.8L19.4,221.26L20.43,216.72L20.69,217.39L21.21,218.16L21.47,217.18L21.72,218.79L21.98,217.1L22.24,215.3L22.5,216.45L22.76,216.07L23.02,213.76L23.28,217.19L23.79,214.23L24.05,215.02L24.31,215.84L24.57,214.16L25.35,216.09L25.6,215.15L26.38,216.58L26.64,213.03L26.9,212.52L27.16,214.41L27.41,213.82L27.67,215.26L28.19,212.3L28.45,212.66L28.71,212.88L29.23,212.9L29.48,211.41L30.52,213.52L30.78,214.18L31.04,214.26L31.29,212.64L32.07,210.53L32.59,211.07L32.85,212.17L33.88,209.37L34.14,208.93L34.66,211.01L34.91,209.87L35.17,209.05L35.43,210.39L35.69,208.19L35.95,208.89L36.21,209.12L36.47,208.63L36.73,208.35L36.98,208.18L37.24,209.29L38.02,207.57L38.28,208.82L38.54,209.27L38.79,206.73L39.57,208.66L39.83,207.06L40.09,210.67L40.35,206.43L40.6,206.77L40.86,206.96L41.12,209.04L41.64,208.23L41.9,207.61L42.16,208.11L42.42,206.31L43.19,209.03L43.45,206.4L44.23,209.5L44.48,207.04L44.74,206.59L45,208.05L45.26,208.33L45.52,207.09L46.55,205.64L46.81,207.62L47.33,208.55L47.59,205.29L47.85,207.54L48.11,205.54L48.62,205.68L48.88,206.17L49.14,208.17L49.4,206.07L49.66,205.56L50.17,207.14L50.43,206.72L50.69,206.17L50.95,207.3L51.21,206.33L51.47,205.51L51.73,206.21L51.98,205.8L52.24,205.29L52.76,206.95L53.02,206.23L53.28,205.74L53.54,205.45L53.79,206.59L54.83,205.41L55.09,204.89L55.35,206.86L55.86,205.04L56.12,204.69L56.64,204.2L56.9,206.1L57.42,204.06L57.67,205.61L57.93,205.14L58.19,205.55L58.45,204.42L58.71,205.99L59.23,205.5L59.48,205.35L60,206.61L60.26,205.99L60.52,205.76L60.78,206.59L61.04,204.99L61.3,205.72L61.55,207.01L62.07,205.8L62.33,203.84L62.59,206.66L62.85,205.23L63.11,203.98L63.36,206.35L63.62,205.3L63.88,203.99L64.14,205.82L64.66,204.8L64.92,205.01L65.43,205.35L65.69,204.55L66.21,203.97L66.47,205.36L66.98,205.59L67.24,204.41L68.28,205.34L68.54,203.83L68.8,205.8L69.31,205.67L69.57,205.51L69.83,205.95L70.09,205.26L70.35,204.02L70.61,207.3L71.12,205.08L71.38,205.1L72.42,207.35L72.67,206.33L72.93,206.24L73.19,205.02L73.71,206.74L73.97,203.71L75.26,206.45L75.52,204.87L76.3,205.73L76.55,204.88L77.33,203.88L77.59,206.69L78.62,203.97L78.88,205.3L79.14,205.52L79.4,204.93L79.66,204.82L80.18,205.24L80.43,204.46L80.95,205.2L81.21,204.84L81.47,204.8L82.76,204.78L83.02,206.37L83.54,204.74L83.8,205.22L84.05,205.49L84.83,204.7L85.09,205.01L85.35,205.4L85.61,204.28L86.64,205.52L86.9,205.15L87.16,206.6L87.68,205.51L87.93,203.91L88.45,203.79L88.71,206.26L88.97,204.04L89.49,206.55L89.74,205.92L90,205.11L90.26,205.84L90.52,203.93L91.04,203.42L91.55,205.99L91.81,204.26L92.07,206.4L92.59,204.51L92.85,204.87L93.11,204.74L93.37,206.17L93.88,204.31L94.14,204.58L94.4,205.68L94.66,203.89L94.92,206.77L95.18,204L95.43,205.37L95.95,205.82L96.21,202.98L96.47,205.65L96.99,204.89L97.24,205.73L97.5,205.38L98.28,203.71L98.54,204.92L98.8,206.08L99.06,205.72L99.31,204.29L99.83,204.13L100.09,205.43L100.35,205L100.61,206.41L100.87,204.38L101.12,204.9L101.38,206.59L101.9,205.05L102.16,204.25L102.42,206.13L102.93,205.5L103.19,203.78L103.45,203.78L103.71,205L103.97,204.18L104.49,204.58L104.74,206.35L105.78,202.85L106.04,204.45L106.3,205.28L106.56,204.25L106.81,202.74L107.07,205.5L107.59,205.1L107.85,203.98L108.88,206.08L109.14,205.88L109.66,206.24L110.18,203.29L110.43,206.03L110.95,206.48L111.21,204.88L111.47,205.16L111.73,203.01L112.5,206.24L112.76,204.55L113.02,206.87L113.54,205.54L113.8,205.32L114.31,204.1L114.83,204.49L115.09,203.83L115.87,205.32L116.12,204.58L116.38,206.09L116.64,204.47L116.9,204.7L117.16,205.22L117.93,202.67L118.19,205.27L118.45,205.35L118.71,203.13L119.23,206.73L119.49,204.94L119.75,204.79L120,205.26L120.26,203.55L120.52,205.21L121.04,204.5L121.3,205.1L121.56,206.49L121.81,204.62L122.07,203.46L123.11,207.04L123.37,206.6L124.14,203.56L124.4,205.04L124.66,203.57L124.92,204.49L125.18,204.99L126.21,206.17L126.47,205.49L126.73,204.33L126.99,207.52L127.5,205.29L127.76,204.37L128.02,202.1L128.28,204.23L128.54,204.82L129.06,204.91L129.31,204.6L129.57,204.7L130.35,207.14L130.61,204.74L131.13,205.99L131.38,204.48L132.16,205.46L132.42,203.78L133.19,205.21L133.45,205L133.97,205.15L134.23,203.04L134.49,202.93L134.75,207.01L135.26,203.87L135.52,204.98L135.78,204.39L136.04,206.74L136.3,203.9L136.56,204.24L136.81,205.72L137.33,205.16L137.59,205.71L137.85,203.82L138.37,204.43L138.63,205.78L139.14,206.24L139.66,204.1L139.92,205.37L140.95,203.08L141.21,204.13L141.47,205.88L141.99,204.38L142.25,205.63L142.76,203.65L143.02,205.44L143.28,204.79L143.54,206.29L143.8,204.77L144.06,203.2L144.83,206.13L145.09,205.89L145.35,203.85L145.61,204.86L145.87,204.61L146.13,203.49L146.64,206.56L146.9,204.47L147.16,205.58L147.42,203.76L147.68,203.28L148.45,204.84L148.71,204.74L149.49,205.93L149.75,204.93L150.01,206.28L150.26,203.46L150.52,203.66L150.78,203.01L151.04,204.21L151.3,206.14L151.56,205.22L151.82,204.27L152.33,204.96L152.59,205.46L152.85,205.18L153.11,203.68L153.88,205.35L154.14,205.05L154.4,203.68L155.18,205.42L155.44,205.2L155.69,205.46L155.95,204.18L156.21,203.68L156.47,205.47L157.51,203.59L157.76,204.65L158.02,204.71L158.28,205.93L158.54,204.65L158.8,204.74L159.06,207.18L160.09,202.83L160.35,205.37L160.61,205.51L160.87,203.81L161.9,206.19L162.16,204.26L162.94,206.13L163.2,205.21L163.45,206.56L163.71,204.54L163.97,205.13L164.23,204.28L164.49,204.83L164.75,205.69L165.01,206.27L165.26,204.69L165.52,204.74L165.78,206.88L166.82,203.83L167.07,203.8L168.11,204.9L168.37,203.8L168.88,204.4L169.14,206.34L170.18,204.61L170.44,204.32L171.21,205.06L171.47,203.75L171.73,205.67L171.99,204.24L172.25,203.9L172.76,203.21L173.02,204.11L173.54,203.19L173.8,205.01L174.06,203.1L174.32,205.64L174.57,205.59L175.61,203.69L175.87,206.86L176.64,204.41L176.9,204.53L177.16,204.25L178.45,204.56L178.71,205.48L179.75,203.01L180.01,205.34L180.26,205.4L180.52,203.44L181.04,206.8L181.56,205.95L181.82,205.1L183.11,205.23L183.37,205.64L183.89,204.8L184.14,206.2L184.66,203.65L184.92,206.16L185.18,206.58L185.44,203.78L185.7,206.67L186.21,204.83L186.47,206.76L186.73,204.47L187.25,205.59L187.51,204.34L187.76,204.61L188.02,206.16L189.06,204.31L189.32,205.73L189.58,204.28L190.09,205.46L190.35,206.26L191.13,204.15L191.39,205.2L191.9,205.59L192.42,203.78L192.68,205.42L193.71,204.83L193.97,203.97L194.75,205.92L195.01,203.98L195.78,206L196.04,203.65L197.33,206.95L197.59,204.18L198.11,205.84L198.37,204.44L198.89,206.37L199.14,204.7L199.4,205.25L199.92,204.74L200.18,206.45L200.95,204.26L201.21,204.91L201.47,204.28L202.51,205.55L202.77,205.27L203.02,205.39L203.28,204.56L204.06,206.65L204.32,205L204.83,203.96L205.09,206.11L205.61,204.97L205.87,205.76L206.13,206.16L206.39,205.32L206.64,204.03L207.42,205.77L207.68,204.36L207.94,206.29L208.2,203.62L208.46,204.37L209.23,205.64L209.49,204.43L210.01,204.58L210.27,205.57L210.52,205.25L210.78,206.5L211.3,204.16L211.56,206.05L211.82,205.65L212.59,204.22L212.85,204.88L213.11,205.04L213.37,205.3L213.63,204.3L214.15,206.15L214.4,204.29L214.92,203.89L215.44,206.04L215.7,206.17L216.47,204.58L216.73,205.35L217.25,204.15L217.51,205.6L217.77,203.61L218.28,204.49L218.54,205.2L219.06,204.03L219.32,205.39L219.58,205.75L219.83,204.31L220.09,204.58L220.35,203.45L221.39,205L221.65,204.07L221.9,205.55L222.42,205.24L222.68,203.58L222.94,205.85L223.46,205.07L223.71,204.93L223.97,203.26L224.23,204.9L224.49,206.1L224.75,204.15L225.27,204.96L225.52,205.45L226.04,204.85L226.3,205.49L226.56,205.91L226.82,203.35L227.08,204.55L227.34,206.11L227.59,204.51L228.11,205.77L228.37,206.1L229.4,204.78L229.66,205.43L230.44,203.54L230.7,204.17L230.96,205.59L231.47,204.15L231.73,204.78L231.99,205.25L232.25,204.14L232.51,204.59L232.77,205.37L233.28,203.3L233.54,205.68L234.58,205.15L234.84,205.55L235.09,205.51L235.35,203.17L235.61,206.31L235.87,206.19L236.13,203.65L236.65,204.16L236.9,205.68L237.16,206.74L237.42,204.98L237.68,205.89L237.94,205.55L238.2,206.34L238.46,204.52L238.71,203.75L238.97,205.51L239.23,203.19L239.49,205.66L239.75,204.93L240.01,204.68L240.27,205.24L240.53,204.24L240.78,203.68L241.04,206.29L241.56,205.44L241.82,205.79L242.34,203.38L242.59,204.23L242.85,205.46L243.63,203.68L243.89,205.44L244.92,204.16L245.18,204.86L245.44,204.92L245.7,206.36L246.73,204.2L246.99,205.82L248.03,203.49L248.28,205.47L248.54,203.73L248.8,204.86L249.06,205.34L249.58,205.32L249.84,204.11L250.09,206.53L250.61,205.54L250.87,204.31L251.39,204.32L251.65,203.54L252.16,205.85L252.68,205.47L252.94,205.13L253.2,205.7L253.46,204.44L253.72,205.06L253.97,203.9L254.23,203.1L254.75,205.13L255.01,204.44L255.27,204.2L255.53,202.85L255.78,205.02L256.04,203.73L256.3,205.86L257.08,203.86L257.34,204.76L257.59,205.86L258.11,203.83L258.37,204.68L258.63,207.21L258.89,203.7L259.41,206.21L259.66,204.65L260.18,205.94L260.44,205.49L260.7,205.51L260.96,202.51L261.47,203.83L261.73,206.08L262.51,204.98L262.77,205.89L263.28,205.34L263.54,202.96L264.58,205.99L264.84,203.88L265.61,206.09L265.87,204.74L266.13,204.95L266.91,203.84L267.16,205.29L267.42,206.26L267.68,204.63L267.94,205.05L268.46,206.21L268.72,203.85L268.97,203.05L269.23,203.7L269.49,204.84L269.75,204.4L270.01,205.51L270.78,203.53L271.04,204.41L271.3,205.05L271.82,203.92L272.08,204.41L272.34,205.29L272.6,205.07L272.85,205.46L273.11,206.7L273.63,204.47L274.15,204.67L274.41,204.34L275.18,205.86L275.44,204.31L275.7,205.79L275.96,205.54L276.22,204L276.99,204.5L277.25,206.58L278.03,203.34L278.29,203.63L278.8,206.24L279.06,205.16L279.32,204.29L280.35,205.81L280.61,205.1L281.65,204.84L281.91,205.73L282.94,203.61L283.2,204.17L283.46,205.08L283.72,204.32L283.97,202.49L284.49,206.52L285.01,204.89L285.27,202.9L286.3,206.75L286.56,203.94L286.82,206.38L287.34,205.9L287.6,203.5L288.11,202.6L288.63,206.45L288.89,205.18L289.92,205.68L290.18,204.09L290.44,203.64L290.7,205.5L291.22,204.67L291.48,205.58L291.73,204.73L292.25,205.61L292.51,205.23L292.77,204.38L293.03,204.87L293.29,205.61L293.54,203.6L293.8,205.1L294.06,207.07L294.84,205.04L295.1,205.54L295.35,204.25L295.87,204.93L296.13,206.38L296.39,204.29L296.65,204.4L296.91,206.4L297.17,203.11L297.68,205.03L297.94,204.97L298.46,204.82L298.72,206.18L298.98,204.72L299.49,205.05L299.75,205.07L300.27,203.96L300.53,206.05L301.3,204.01L301.56,204.83L301.82,204.98L302.08,205.25L302.34,203.97L302.6,206.37L303.11,204.65L303.37,206.01L303.89,203.35L304.15,205.43L304.41,205.55L304.67,206.69L305.7,203.98L305.96,206.43L306.22,204.14L306.73,206.27L306.99,205.16L307.51,204.4L307.77,205.21L308.8,206.16L309.06,205.25L309.32,206.99L309.58,204.77L309.84,203.13L310.61,205.96L310.87,204.68L311.65,206.69L311.91,204.8L312.17,205.11L312.42,204.38L312.68,204.08L313.46,205.78L313.72,205.85L314.23,203.43L314.49,206.11L315.27,203.25L315.53,203.51L315.79,206.79L316.3,203.17L316.56,204.43L316.82,204.61L317.08,203.88L317.34,205.19L317.6,204.9L317.86,204.33L318.11,206.25L318.37,203.54L318.89,205.94L319.15,204.25L319.67,203.68L320.7,205.79L320.96,204.56L321.22,205.03L321.48,204.04L321.73,203.26L322.51,205.98L322.77,205.92L323.03,204.29L323.55,205.16L323.8,204.48L324.06,205.13L325.1,205.73L325.36,204.71L325.87,204.31L326.39,205.35L326.65,203.6L326.91,205.91L327.42,205.25L327.68,205.13L327.94,204.19L328.2,204.31L328.46,206.42L329.24,204.04L329.49,205.87L329.75,204.4L330.27,204.99L330.53,206.21L330.79,203.8L331.3,204.38L331.56,205.47L331.82,206.36L332.08,205.29L332.34,204.29L332.86,207.09L333.11,206.04L333.37,205.17L333.89,206.62L334.15,206.35L334.41,203.94L334.67,205.4L335.18,205.25L335.44,204.6L336.22,204.72L336.48,205.75L336.74,203.97L336.99,206.41L337.25,205.67L337.51,206.16L337.77,204L338.03,206.28L338.55,204.8L338.8,204.5L339.06,206.14L339.58,205.35L339.84,206.02L340.1,206.58L340.36,205.79L340.61,204.81L341.13,203.78L341.39,205.56L341.65,206.06L341.91,205.22L342.17,204.07L342.68,203.45L343.2,205.33L343.46,204.98L343.72,204.38L343.98,206.12L344.24,205.91L344.49,203.71L345.27,207.01L345.53,204.12L345.79,203.82L346.05,204.31L346.3,204.94L346.56,205.27L346.82,204.02L347.08,204.02L347.34,205.98L347.6,203.69L348.12,204.53L348.37,204.85L348.89,203.7L349.15,205.11L349.93,204.58L350.18,205.14L350.96,203.79L351.22,205.27L351.99,203.79L352.25,204.57L352.51,205.67L352.77,207.72L353.29,206.43L353.55,204.31L354.06,205.37L354.32,205.05L354.58,204.65L354.84,206.11L355.1,205.34L355.36,204.15L355.62,205.5L356.13,204.61L356.39,205.51L356.65,205.57L356.91,203.47L357.94,206.23L358.2,204.71L358.46,206.97L358.72,204.58L358.98,205.27L359.24,204.69L359.75,204.45L360.01,207.43L360.79,204.02L361.05,206.29L362.08,203.83L362.34,203.88L363.12,205.11L363.37,203.85L363.89,205.88L364.15,202.88L364.93,204.88L365.18,204.39L365.44,204.88L365.7,205.82L365.96,204.4L366.22,205.19L366.48,204.92L366.99,204.66L367.25,205.18L367.77,204.88L368.03,203.36L369.06,205.79L369.32,205.91L369.84,203.34L370.1,205.9L370.36,205.8L370.62,204.33L370.87,203.25L371.13,204.93L371.39,205.4L371.65,205.45L371.91,204.54L372.43,206.11L372.68,205.82L372.94,205.66L373.46,203.92L373.98,204.07L374.24,205.5L374.5,205.55L374.75,206.69L375.79,202.2L376.05,206.11L376.56,204.03L376.82,205.91L377.08,205.19L377.34,205.86L377.6,203.6L378.37,206.33L378.63,205.82L378.89,204.92L379.15,206.52L379.41,204.09L379.67,204.36L379.93,204.25L380.19,206.09L380.44,207.43L380.7,205.48L380.96,204.8L381.48,204.6L381.74,205.61L382.25,203.97L382.77,204.35L383.03,204.68L383.55,205.86L383.81,205.43L384.06,204.79L384.32,204.64L384.58,203.28L385.36,205.36L385.62,204.74L385.87,204.3L386.13,205.28L386.65,205.01L386.91,203.98L387.17,203.01L387.69,203.46L387.94,207.47L388.2,203.59L388.72,204.86L388.98,204.13L389.24,202.89L389.75,204.07L390.01,204.42L390.79,205.72L391.05,203.81L391.31,205.15L391.82,204.93L392.08,204.28L392.86,205.82L393.12,204.35L393.38,205.07L393.63,204.64L393.89,204.14L394.41,205.73L394.67,203.94L394.93,203.95L395.19,206.35L395.7,203.88L395.96,204.08L396.22,206.4L397.77,203.79L398.03,204.12L398.29,204.58L398.55,206.76L398.81,205.32L399.07,204.71L399.32,206.48L399.84,204.96L400.1,205.33L400.88,204.91L401.13,203.68L401.65,205.61L401.91,204.01L402.17,204.75L402.43,205.32L402.69,203.54L402.94,203.43L403.2,206.23L404.24,203.54L404.5,204.51L404.75,203.91L405.01,206.03L405.27,206.21L405.53,204.46L405.79,206.15L406.05,203.25L406.31,204.49L406.57,202.67L406.82,203.58L407.08,204.84L407.86,206.11L408.12,205.5L408.38,203.85L409.41,206.19L409.67,205.23L409.93,205.69L410.19,204.58L410.96,204.8L411.22,203.87L411.48,206.31L412,205.45L412.26,205.17L412.77,204.62L413.03,205.43L413.29,206.02L413.55,205.63L413.81,202.83L414.32,206.17L414.58,204.05L414.84,204.76L415.36,204.82L415.62,204.06L416.13,206.65L416.39,205.88L416.65,204.26L417.43,205.05L417.69,203.77L417.94,206.38L418.46,206.18L418.72,204.49L418.98,206.17L419.24,204.36L419.5,203.39L419.76,206.52L420.27,206.16L420.53,205.23L420.79,203.74L421.31,204.43L421.57,206.28L422.08,203.69L422.34,203.98L422.6,204.7L422.86,204.37L423.12,206.92L424.15,204.39L424.41,205.18L424.93,205.18L425.19,204.35L425.45,203.57L425.7,204.25L425.96,204.64L426.74,205.1L427,204.62L428.03,205.82L428.29,205.14L428.55,205.12L428.81,204.07L429.07,207.13L429.58,205.8L429.84,206.07L430.36,203.76L430.88,204.5L431.14,205.42L431.39,205.98L431.65,204.57L432.17,206.81L432.43,205.42L433.2,205.6L433.46,203.77L433.72,206.57L433.98,205.03L434.24,203.94L434.5,203.47L434.76,204.87L435.27,206.9L435.53,206.12L435.79,205.23L436.31,205.05L436.57,203.86L436.82,205.56L437.34,205.13L437.6,205.1L438.12,204.71L438.38,205.11L438.64,205.72L438.89,206.25L439.15,203.61L439.67,205.59L439.93,203.3L440.19,206.99L440.7,204.65L440.96,205.86L441.74,203.32L442,204.28L442.26,205.39L442.51,206.28L442.77,203.92L443.03,203.98L443.29,205.33L444.07,204.77L444.33,205.61L445.1,204.22L445.36,204.72L445.62,204.95L445.88,203.62L446.14,205.96L446.39,205.1L446.65,206.08L446.91,204.69L447.17,205.41L447.43,205.42L447.69,204.41L448.2,204.8L448.46,205.74L449.24,203.82L449.5,204.21L449.76,205.26L450.53,205.66L450.79,205.03L451.05,205.73L451.31,204.73L451.57,204.21L451.83,205.7L452.34,205.1L452.6,205.08L452.86,203.68L453.38,204.89L453.64,206.54L454.15,203.19L454.41,205.26L454.67,203.97L455.45,203.68L455.7,205.13L455.96,206.38L456.22,204.88L456.48,205L456.74,206.66L457,205.16L457.26,204.94L457.77,203.74L458.03,204.38L458.29,205.7L459.07,203.91L459.33,204.68L459.58,204.94L460.1,204.26L460.36,207.1L460.62,204.22L460.88,203.69L461.14,204.21L461.39,204.9L461.91,206.53L462.17,204.13L462.43,206.14L462.69,205.24L462.95,203.63L463.98,206.43L464.24,206.43L465.02,204.35L465.27,206.06L465.53,205.87L465.79,206.36L466.05,207.11L467.08,203.58L467.34,205.54L467.86,206.38L468.12,204.95L468.38,204.95L468.64,206.38L469.41,204.15L469.67,205.23L470.45,204.51L470.71,204.97L471.22,204.8L471.48,206L471.74,206.17L472,204.91L472.26,205.41L472.52,203.91L473.03,204.79L473.29,203.33L473.55,205.32L473.81,203.22L474.07,205.1L474.33,204.75L474.58,206.08L474.84,204.15L475.1,205.36L475.36,205.13L475.62,203.63L476.14,204.52L476.4,204.82L476.91,206.2L477.17,205.8L477.43,205.08L477.69,206.04L477.95,205.73L478.21,203.81L479.24,206.41L479.5,206.04L480.02,203.4L480.53,204.07L480.79,205.22L481.05,205.53L481.31,204.48L481.83,204.23L482.34,205.76L482.6,205.2L482.86,205.13L483.12,204.08L483.38,203.7L483.64,206.35L483.9,203.73L484.41,204L484.67,204.28L485.45,204.81L485.71,206.83L486.22,203.61L486.48,205.08L486.74,205.33L487,205.68L487.26,204.22L487.77,205.7L488.03,204.07L488.55,204.99L488.81,206.53L489.07,202.74L489.59,205.52L489.84,204.22L490.36,204.16L490.62,203.48L491.65,205.35L491.91,204.3L492.17,204.16L492.43,205.56L492.95,205.46L493.21,204.69L494.24,205.41L494.5,204.25L495.28,204.47L495.53,205.76L495.79,205.88L496.05,203.52L496.31,203.55L496.57,205.51L497.09,204.94L497.34,204.81L497.6,204.56L497.86,205.37L498.9,205.15L499.15,204.69L499.41,203.39L499.93,203.95L500.19,204.99L500.45,205.34L500.71,203.08L500.96,206.53L501.48,205.01L501.74,203.91L502.52,206.44L502.78,205.26L503.55,204.73L503.81,206.36L505.1,203.48L505.36,204.91L505.88,202.45L506.14,205.6L506.4,204.37L506.91,205.02L507.17,204.67L507.43,203.89L507.69,205.69L507.95,205.13L508.21,205.47L508.47,205.82L509.24,204.05L509.5,205.31L509.76,207.77L510.02,204.39L510.28,203.87L510.53,204.61L510.79,203.42L511.05,204.13L511.31,204.1L511.83,205.96L512.09,205.38L512.34,205.42L512.6,203.14L513.12,205.12L513.38,204.28L513.9,205.5L514.16,205.21L514.41,204.52L514.67,204.47L514.93,206.56L515.45,204.45L515.71,204.89L515.97,207.25L516.22,207.12L516.48,205.97L516.74,204.33L517,205.08" style="vector-effect: non-scaling-stroke; fill: none; stroke: rgb(255, 127, 14); stroke-opacity: 1; stroke-width: 2px; opacity: 1;"/></g><g class="points"/><g class="text"/></g><g class="trace scatter trace269ae9" style="stroke-miterlimit: 2; opacity: 1;"><g class="fills"/><g class="errorbars"/><g class="lines"><path class="js-line" d="M0,186.3L1.03,170.07L1.29,165.09L1.81,164.35L2.07,162.87L2.33,164.06L2.59,161.28L2.84,161.36L3.1,162.26L3.36,159.33L3.88,160.66L4.14,160.38L4.4,158.3L4.91,159.23L5.17,158.36L6.21,159.4L6.47,158.16L6.98,159.98L7.24,159.1L7.5,158.62L8.28,158.91L8.53,158.32L8.79,158.91L9.31,158.67L9.57,158.78L10.86,158.82L11.12,158.46L11.9,159.33L12.16,158.37L13.19,158.59L13.45,158.44L14.22,158.53L14.48,158.75L15.26,158.6L15.52,158.5L17.85,158.69L18.1,158.05L19.14,158.49L19.4,158.24L20.69,158.71L20.95,158.66L21.72,158.49L21.98,158.71L23.54,158.77L23.79,159.23L24.83,158.55L25.09,158.85L26.38,158.42L26.64,159L27.67,158.44L27.93,158.8L31.04,158.45L31.29,158.52L33.62,158.74L33.88,158.81L39.57,158.76L39.83,158.93L40.6,158.92L40.86,158.87L41.9,158.84L42.16,158.82L43.45,158.86L43.71,158.65L46.04,158.96L46.29,158.89L63.88,159L64.14,158.77L66.21,159.02L66.47,158.86L517,158.85" style="vector-effect: non-scaling-stroke; fill: none; stroke: rgb(44, 160, 44); stroke-opacity: 1; stroke-width: 2px; opacity: 1;"/></g><g class="points"/><g class="text"/></g></g></g><g class="overplot"/><path class="xlines-above crisp" d="M0,0" style="fill: none;"/><path class="ylines-above crisp" d="M0,0" style="fill: none;"/><g class="overlines-above"/><g class="xaxislayer-above"><g class="xtick"><text text-anchor="middle" x="0" y="403" transform="translate(60,0)" style="font-family: 'Open Sans', verdana, arial, sans-serif; font-size: 12px; fill: rgb(68, 68, 68); fill-opacity: 1; white-space: pre;">0</text></g><g class="xtick"><text text-anchor="middle" x="0" y="403" transform="translate(189.31,0)" style="font-family: 'Open Sans', verdana, arial, sans-serif; font-size: 12px; fill: rgb(68, 68, 68); fill-opacity: 1; white-space: pre;">500</text></g><g class="xtick"><text text-anchor="middle" x="0" y="403" transform="translate(318.63,0)" style="font-family: 'Open Sans', verdana, arial, sans-serif; font-size: 12px; fill: rgb(68, 68, 68); fill-opacity: 1; white-space: pre;">1000</text></g><g class="xtick"><text text-anchor="middle" x="0" y="403" transform="translate(447.94,0)" style="font-family: 'Open Sans', verdana, arial, sans-serif; font-size: 12px; fill: rgb(68, 68, 68); fill-opacity: 1; white-space: pre;">1500</text></g></g><g class="yaxislayer-above"><g class="ytick"><text text-anchor="end" x="59" y="4.199999999999999" transform="translate(0,373.74)" style="font-family: 'Open Sans', verdana, arial, sans-serif; font-size: 12px; fill: rgb(68, 68, 68); fill-opacity: 1; white-space: pre;">0</text></g><g class="ytick"><text text-anchor="end" x="59" y="4.199999999999999" transform="translate(0,337.58)" style="font-family: 'Open Sans', verdana, arial, sans-serif; font-size: 12px; fill: rgb(68, 68, 68); fill-opacity: 1; white-space: pre;">0.2</text></g><g class="ytick"><text text-anchor="end" x="59" y="4.199999999999999" transform="translate(0,301.43)" style="font-family: 'Open Sans', verdana, arial, sans-serif; font-size: 12px; fill: rgb(68, 68, 68); fill-opacity: 1; white-space: pre;">0.4</text></g><g class="ytick"><text text-anchor="end" x="59" y="4.199999999999999" transform="translate(0,265.27)" style="font-family: 'Open Sans', verdana, arial, sans-serif; font-size: 12px; fill: rgb(68, 68, 68); fill-opacity: 1; white-space: pre;">0.6</text></g><g class="ytick"><text text-anchor="end" x="59" y="4.199999999999999" transform="translate(0,229.12)" style="font-family: 'Open Sans', verdana, arial, sans-serif; font-size: 12px; fill: rgb(68, 68, 68); fill-opacity: 1; white-space: pre;">0.8</text></g><g class="ytick"><text text-anchor="end" x="59" y="4.199999999999999" transform="translate(0,192.97)" style="font-family: 'Open Sans', verdana, arial, sans-serif; font-size: 12px; fill: rgb(68, 68, 68); fill-opacity: 1; white-space: pre;">1</text></g><g class="ytick"><text text-anchor="end" x="59" y="4.199999999999999" transform="translate(0,156.81)" style="font-family: 'Open Sans', verdana, arial, sans-serif; font-size: 12px; fill: rgb(68, 68, 68); fill-opacity: 1; white-space: pre;">1.2</text></g><g class="ytick"><text text-anchor="end" x="59" y="4.199999999999999" transform="translate(0,120.66)" style="font-family: 'Open Sans', verdana, arial, sans-serif; font-size: 12px; fill: rgb(68, 68, 68); fill-opacity: 1; white-space: pre;">1.4</text></g><g class="ytick"><text text-anchor="end" x="59" y="4.199999999999999" transform="translate(0,84.5)" style="font-family: 'Open Sans', verdana, arial, sans-serif; font-size: 12px; fill: rgb(68, 68, 68); fill-opacity: 1; white-space: pre;">1.6</text></g></g><g class="overaxes-above"/></g></g><g class="polarlayer"/><g class="ternarylayer"/><g class="geolayer"/><g class="funnelarealayer"/><g class="pielayer"/><g class="treemaplayer"/><g class="sunburstlayer"/><g class="glimages"/><defs id="topdefs-f769bd"><g class="clips"/><clipPath id="legendf769bd"><rect width="101" height="67" x="0" y="0"/></clipPath></defs><g class="layer-above"><g class="imagelayer"/><g class="shapelayer"/></g><g class="infolayer"><g class="legend" pointer-events="all" transform="translate(587.34, 60)"><rect class="bg" shape-rendering="crispEdges" width="101" height="67" x="0" y="0" style="stroke: rgb(68, 68, 68); stroke-opacity: 1; fill: rgb(255, 255, 255); fill-opacity: 1; stroke-width: 0px;"/><g class="scrollbox" transform="translate(0, 0)" clip-path="url('#legendf769bd')"><g class="groups"><g class="traces" transform="translate(0, 14.5)" style="opacity: 1;"><text class="legendtext" text-anchor="start" x="40" y="4.680000000000001" style="font-family: 'Open Sans', verdana, arial, sans-serif; font-size: 12px; fill: rgb(68, 68, 68); fill-opacity: 1; white-space: pre;">train loss</text><g class="layers" style="opacity: 1;"><g class="legendfill"/><g class="legendlines"><path class="js-line" d="M5,0h30" style="fill: none; stroke: rgb(31, 119, 180); stroke-opacity: 1; stroke-width: 2px;"/></g><g class="legendsymbols"><g class="legendpoints"/></g></g><rect class="legendtoggle" pointer-events="all" x="0" y="-9.5" width="95.78125" height="19" style="cursor: pointer; fill: rgb(0, 0, 0); fill-opacity: 0;"/></g><g class="traces" transform="translate(0, 33.5)" style="opacity: 1;"><text class="legendtext" text-anchor="start" x="40" y="4.680000000000001" style="font-family: 'Open Sans', verdana, arial, sans-serif; font-size: 12px; fill: rgb(68, 68, 68); fill-opacity: 1; white-space: pre;">test loss</text><g class="layers" style="opacity: 1;"><g class="legendfill"/><g class="legendlines"><path class="js-line" d="M5,0h30" style="fill: none; stroke: rgb(255, 127, 14); stroke-opacity: 1; stroke-width: 2px;"/></g><g class="legendsymbols"><g class="legendpoints"/></g></g><rect class="legendtoggle" pointer-events="all" x="0" y="-9.5" width="95.78125" height="19" style="cursor: pointer; fill: rgb(0, 0, 0); fill-opacity: 0;"/></g><g class="traces" transform="translate(0, 52.5)" style="opacity: 1;"><text class="legendtext" text-anchor="start" x="40" y="4.680000000000001" style="font-family: 'Open Sans', verdana, arial, sans-serif; font-size: 12px; fill: rgb(68, 68, 68); fill-opacity: 1; white-space: pre;">acc</text><g class="layers" style="opacity: 1;"><g class="legendfill"/><g class="legendlines"><path class="js-line" d="M5,0h30" style="fill: none; stroke: rgb(44, 160, 44); stroke-opacity: 1; stroke-width: 2px;"/></g><g class="legendsymbols"><g class="legendpoints"/></g></g><rect class="legendtoggle" pointer-events="all" x="0" y="-9.5" width="95.78125" height="19" style="cursor: pointer; fill: rgb(0, 0, 0); fill-opacity: 0;"/></g></g></g><rect class="scrollbar" rx="20" ry="3" width="0" height="0" x="0" y="0" style="fill: rgb(128, 139, 164); fill-opacity: 1;"/></g><g class="g-gtitle"><text class="gtitle" x="350" y="30" text-anchor="middle" dy="0em" style="font-family: 'Open Sans', verdana, arial, sans-serif; font-size: 17px; fill: rgb(68, 68, 68); opacity: 1; font-weight: normal; white-space: pre;">SAMPLE_PER_CLASS_50</text></g><g class="g-xtitle"/><g class="g-ytitle"/></g></svg>